<?xml version="1.0" encoding="UTF-8"?>
<svg
    xmlns="http://www.w3.org/2000/svg"
    xmlns:cc="http://creativecommons.org/ns#"
    xmlns:dc="http://purl.org/dc/elements/1.1/"
    xmlns:rdf="http://www.w3.org/1999/02/22-rdf-syntax-ns#"
    version="1.1"
    x="0px"
    y="0px"
    width="16"
    height="16"
    viewBox="0 0 16 16"
    >
  <metadata>
    <rdf:RDF>
      <cc:Work>
        <dc:format>image/svg+xml</dc:format>
        <dc:type rdf:resource="http://purl.org/dc/dcmitype/StillImage" />
        <cc:license rdf:resource="https://creativecommons.org/publicdomain/zero/1.0/" />
        <dc:source>https://www.svgrepo.com/svg/124691/hand-holding-up-a-pen</dc:source>
      </cc:Work>
    </rdf:RDF>
  </metadata>
  <style>
    @media (prefers-color-scheme: light) {
      :root {
        color: rgb(24, 24, 27);
      }
    }

    @media (prefers-color-scheme: dark) {
      :root {
        color: rgb(250, 250, 250);
      }
    }

    path {
      stroke: currentColor;
      fill: color-mix(in srgb, currentColor 20%, transparent);
    }
  </style>
  <g transform="scale(0.0494040634842216, 0.0494040634842216) scale(-1,1) translate(-323.86,0)">
    <path vector-effect="non-scaling-stroke" d="M288.68,247.305c14.805-11.805,3.418-66.739-3.58-85.562l-3.873-9.081c-2.516-6.106-6.322-10.326-12.449-13.044
      c-14.271-6.334-26.33-11.763-37.99-17.013c-14.176-6.381-27.562-12.408-44.58-19.92c-5.376-2.374-10.965-3.577-16.613-3.577
      c-17.691,0-32.38,11.374-40.271,17.484c0,0-69.527,56.178-83.278,60.343c-13.887,4.206-29.377,4.943-37.851,4.984v85.283
      c29.387,0.95,50.025,9.79,66.79,16.97c4.371,1.872,8.499,3.639,12.431,5.116c8.563,3.215,19.276,4.775,32.753,4.775
      c5.232,0,10.78-0.229,16.928-0.709c1.055,1.571,2.359,2.966,3.903,4.124c3.007,2.256,6.574,3.447,10.318,3.447
      c6.557,0,11.951-4.464,15.669-8.845l0.638,2.203c1.051,3.626,3.188,6.729,6.182,8.974c3.006,2.255,6.574,3.447,10.317,3.447
      c12.871,0,21.274-17.202,21.274-17.202s1.861,14.525,9.123,19.846c3.033,2.22,6.574,3.447,10.318,3.447
      c5.482,0,10.326-2.658,13.797-6.893c19.887-24.255,27.895-64.323,27.895-64.323S280.711,253.659,288.68,247.305z M237.67,192.004
      l13.975,4.712l10.088,29.813L237.67,192.004z" />
    <path vector-effect="non-scaling-stroke" d="M103.171,26.926c-1.096,1.589-1.88,3.447-2.306,5.54c-3.94,19.299,24.001,59.934,27.201,64.503
      c1.599,2.285,4.694,2.896,7.032,1.44c0.08-0.051,0.159-0.102,0.237-0.158c2.362-1.651,2.937-4.907,1.283-7.269
      c-9.687-13.838-23.681-37.966-25.531-51.353l35.332,56.6c6.87-2.946,14.694-5.613,23.176-5.613c6.402,0,12.721,1.779,18.814,4.185
      L130.772,2.46c-1.523-2.447-4.744-3.194-7.191-1.67l-22.003,13.709c-2.446,1.526-3.194,4.745-1.669,7.192L103.171,26.926z" />
    <path vector-effect="non-scaling-stroke" d="M315.448,317.149l-13.99-46.968c-0.135-0.446-0.326-0.875-0.574-1.271l-8.744-14.012
      c-1.664,0.369-3.371,0.605-5.105,0.695c-0.637,0.031-1.262,0.048-1.879,0.048c-4.887,0-9.543-1.019-13.732-2.98
      c-2.002,6.767-4.848,15.184-8.629,23.9l7.229,11.581c0.246,0.396,0.545,0.757,0.889,1.072l35.996,33.259
      c1.727,1.596,4.307,1.839,6.303,0.596C315.204,321.828,316.12,319.402,315.448,317.149z" />
  </g>
</svg>
