<?xml version="1.0" encoding="UTF-8" standalone="no"?>
<svg
   xmlns:dc="http://purl.org/dc/elements/1.1/"
   xmlns:cc="http://creativecommons.org/ns#"
   xmlns:rdf="http://www.w3.org/1999/02/22-rdf-syntax-ns#"
   xmlns:svg="http://www.w3.org/2000/svg"
   xmlns="http://www.w3.org/2000/svg"
   version="1.1"
   id="Capa_1"
   x="0px"
   y="0px"
   width="16"
   height="16"
   viewBox="0 0 16 16"
   xml:space="preserve"><metadata
   id="metadata47"><rdf:RDF><cc:Work
       rdf:about=""><dc:format>image/svg+xml</dc:format><dc:type
         rdf:resource="http://purl.org/dc/dcmitype/StillImage" /><dc:title></dc:title></cc:Work></rdf:RDF></metadata><defs
   id="defs45" />
<g
   id="g10"
   transform="matrix(-0.04939122,0,0,0.04939122,16.405091,8.7332539e-4)">
	<g
   id="g8">
		<path
   d="m 288.68,247.305 c 14.805,-11.805 3.418,-66.739 -3.58,-85.562 l -3.873,-9.081 c -2.516,-6.106 -6.322,-10.326 -12.449,-13.044 -14.271,-6.334 -26.33,-11.763 -37.99,-17.013 -14.176,-6.381 -27.562,-12.408 -44.58,-19.92 -5.376,-2.374 -10.965,-3.577 -16.613,-3.577 -17.691,0 -32.38,11.374 -40.271,17.484 0,0 -69.527,56.178 -83.278,60.343 -13.887,4.206 -29.377,4.943 -37.851,4.984 v 85.283 c 29.387,0.95 50.025,9.79 66.79,16.97 4.371,1.872 8.499,3.639 12.431,5.116 8.563,3.215 19.276,4.775 32.753,4.775 5.232,0 10.78,-0.229 16.928,-0.709 1.055,1.571 2.359,2.966 3.903,4.124 3.007,2.256 6.574,3.447 10.318,3.447 6.557,0 11.951,-4.464 15.669,-8.845 l 0.638,2.203 c 1.051,3.626 3.188,6.729 6.182,8.974 3.006,2.255 6.574,3.447 10.317,3.447 12.871,0 21.274,-17.202 21.274,-17.202 0,0 1.861,14.525 9.123,19.846 3.033,2.22 6.574,3.447 10.318,3.447 5.482,0 10.326,-2.658 13.797,-6.893 19.887,-24.255 27.895,-64.323 27.895,-64.323 0,0 14.18,12.08 22.149,5.726 z m -51.01,-55.301 13.975,4.712 10.088,29.813 z"
   id="path2" />
		<path
   d="m 103.171,26.926 c -1.096,1.589 -1.88,3.447 -2.306,5.54 -3.94,19.299 24.001,59.934 27.201,64.503 1.599,2.285 4.694,2.896 7.032,1.44 0.08,-0.051 0.159,-0.102 0.237,-0.158 2.362,-1.651 2.937,-4.907 1.283,-7.269 -9.687,-13.838 -23.681,-37.966 -25.531,-51.353 l 35.332,56.6 c 6.87,-2.946 14.694,-5.613 23.176,-5.613 6.402,0 12.721,1.779 18.814,4.185 L 130.772,2.46 c -1.523,-2.447 -4.744,-3.194 -7.191,-1.67 l -22.003,13.709 c -2.446,1.526 -3.194,4.745 -1.669,7.192 z"
   id="path4" />
		<path
   d="m 315.448,317.149 -13.99,-46.968 c -0.135,-0.446 -0.326,-0.875 -0.574,-1.271 l -8.744,-14.012 c -1.664,0.369 -3.371,0.605 -5.105,0.695 -0.637,0.031 -1.262,0.048 -1.879,0.048 -4.887,0 -9.543,-1.019 -13.732,-2.98 -2.002,6.767 -4.848,15.184 -8.629,23.9 l 7.229,11.581 c 0.246,0.396 0.545,0.757 0.889,1.072 l 35.996,33.259 c 1.727,1.596 4.307,1.839 6.303,0.596 1.992,-1.241 2.908,-3.667 2.236,-5.92 z"
   id="path6" />
	</g>
</g>
<g
   id="g12">
</g>
<g
   id="g14">
</g>
<g
   id="g16">
</g>
<g
   id="g18">
</g>
<g
   id="g20">
</g>
<g
   id="g22">
</g>
<g
   id="g24">
</g>
<g
   id="g26">
</g>
<g
   id="g28">
</g>
<g
   id="g30">
</g>
<g
   id="g32">
</g>
<g
   id="g34">
</g>
<g
   id="g36">
</g>
<g
   id="g38">
</g>
<g
   id="g40">
</g>
</svg>
