<svg xmlns="http://www.w3.org/2000/svg" xmlns:xlink="http://www.w3.org/1999/xlink" id="Icon" x="0px" y="0px" width="1600px" height="1600px" viewBox="0 0 1600 1600" xml:space="preserve"> <style> path{ fill: #000; } @media (prefers-color-scheme: dark) { path { fill: #fff; } } </style> <path d="M1497.861,510.581C1387.408,243.43,969.956,162.576,597.054,316.808C224.152,470.963-7.774,820.433,102.601,1087.507 c110.452,267.151,521.506,350.703,894.407,196.472c24.588-10.175,48.561-21.274,71.915-33.065 c-3.469-1.312-6.938-2.774-10.328-4.239c-31.371-13.797-57.885-32.063-80.777-51.566c-19.81-17.107-37.075-35.146-52.798-53.488 c-284.495,113.38-593.498,53.184-687.765-150.996c-98.66-213.891,75.69-504.627,370.744-640.746 c294.975-136.12,634.425-82.32,733.084,131.571c47.789,103.591,30.293,225.759-33.914,339.604 c-56.421,81.548-91.799,26.438-139.354-37.304c-161.863-216.511-258.75-381.38-367.66-381.38 c-110.915,0-297.365,353.093-441.425,614.848c-8.016,11.409-2.543,29.984,12.642,42.162c15.646,12.562,35.687,13.565,44.706,2.312 c1.155-1.465,2.08-3.084,2.773-4.778C510.188,896.663,629.658,696.03,695.559,696.03c78.852,0,149.223,118.161,212.812,211.191 c99.815,143.75,202.098,357.643,416.759,159.245l0,0C1492.619,897.665,1570.314,685.779,1497.861,510.581z"/> </svg>