<?xml version="1.0" encoding="utf-8"?>
<!-- Generator: Adobe Illustrator 27.3.1, SVG Export Plug-In . SVG Version: 6.00 Build 0)  -->
<svg version="1.1" id="Layer_1" xmlns="http://www.w3.org/2000/svg" xmlns:xlink="http://www.w3.org/1999/xlink" x="0px" y="0px"
	 viewBox="0 0 165 165" enable-background="new 0 0 165 165" xml:space="preserve">
<path fill="#F36F21" d="M54.2,100.1v5H9V59.9h45.2V100.1 M156,59.9h-45.2v45.2H156V59.9z M105.1,9H59.9v45.2h45.2V9z M54.2,9
	C29.3,9,9,29.3,9,54.2h45.2V9z M156,54.2c0-25-20.2-45.2-45.2-45.2v45.2H156z M9,110.8c0,25,20.3,45.2,45.2,45.2v-45.2H9z M59.9,156
	c25,0,45.2-20.2,45.2-45.2H59.9V156z M110.8,110.8c0,25,20.3,45.2,45.2,45.2v-45.2H110.8z"/>
</svg>
