<?xml version="1.0" encoding="UTF-8"?><svg xmlns="http://www.w3.org/2000/svg" width="200" height="200" viewBox="0 0 200 200" fill="none" version="1.2" baseProfile="tiny-ps"><title>alwaysdata</title><path fill-rule="evenodd" d="M153.411 133.843V133C153.411 132.667 153.576 132.495 153.91 132.484L155.737 132.363H156.03V128.63C156.03 128.275 156.208 128.103 156.564 128.114H157.994C158.328 128.114 158.494 128.286 158.494 128.63V132.363H162.457C162.813 132.363 162.985 132.53 162.974 132.863V133.843C162.974 134.199 162.802 134.376 162.457 134.376H158.494V144.851C158.494 145.741 158.807 146.414 159.433 146.87C160.059 147.327 161.113 147.555 162.595 147.555H163.198C163.553 147.555 163.726 147.739 163.715 148.106V149.154C163.715 149.522 163.543 149.705 163.198 149.705H162.268C159.959 149.705 158.342 149.33 157.417 148.579C156.493 147.827 156.03 146.689 156.03 145.164V134.376H153.91C153.576 134.376 153.411 134.199 153.411 133.843ZM169.28 145.518C169.28 147.14 170.304 147.957 172.348 147.968C174.141 147.968 175.881 147.306 177.57 145.984V141.843H171.97C170.177 141.843 169.28 142.694 169.28 144.396V145.518ZM166.92 145.856V144.092C166.92 142.906 167.313 141.922 168.101 141.14C168.887 140.359 170.023 139.968 171.504 139.968H177.57V136.757C177.57 135.877 177.276 135.204 176.691 134.735C176.105 134.267 175.07 134.032 173.589 134.032C172.107 134.032 171.068 134.253 170.469 134.695C169.873 135.136 169.574 135.793 169.574 136.665V137.095C169.574 137.473 169.397 137.662 169.045 137.662H167.779C167.448 137.662 167.283 137.473 167.283 137.095V136.493C167.283 133.511 169.401 132.02 173.641 132.02C177.88 132.02 180 133.511 180 136.493V149.172C180 149.528 179.832 149.706 179.496 149.706H178.211C177.875 149.706 177.702 149.53 177.69 149.177L177.622 147.933C175.876 149.31 173.934 149.992 171.797 149.981C170.223 149.981 169.016 149.59 168.178 148.809C167.34 148.027 166.92 147.043 166.92 145.856ZM139.229 145.518C139.229 147.14 140.251 147.957 142.295 147.968C144.088 147.968 145.828 147.306 147.517 145.984V141.843H141.917C140.124 141.843 139.229 142.694 139.229 144.396V145.518ZM136.868 145.856V144.092C136.868 142.906 137.261 141.922 138.048 141.14C138.834 140.359 139.97 139.968 141.451 139.968H147.517V136.757C147.517 135.877 147.223 135.204 146.639 134.735C146.053 134.267 145.018 134.032 143.537 134.032C142.055 134.032 141.015 134.253 140.418 134.695C139.82 135.136 139.521 135.793 139.521 136.665V137.095C139.521 137.473 139.344 137.662 138.992 137.662H137.726C137.395 137.662 137.23 137.473 137.23 137.095V136.493C137.23 133.511 139.348 132.02 143.588 132.02C147.827 132.02 149.947 133.511 149.947 136.493V149.172C149.947 149.528 149.779 149.706 149.443 149.706H148.158C147.822 149.706 147.649 149.53 147.638 149.177L147.57 147.933C145.823 149.31 143.882 149.992 141.744 149.981C140.17 149.981 138.964 149.59 138.125 148.809C137.287 148.027 136.868 147.043 136.868 145.856ZM121.014 145.171C121.014 145.959 121.268 146.599 121.774 147.092C122.281 147.584 123.063 147.83 124.122 147.83C125.895 147.83 127.673 147.17 129.458 145.849V136.203C127.731 134.848 125.952 134.17 124.122 134.17C123.063 134.17 122.281 134.419 121.774 134.917C121.268 135.416 121.014 136.059 121.014 136.846V145.171ZM118.585 145.473V136.527C118.585 135.139 118.992 134.041 119.805 133.232C120.619 132.424 121.845 132.02 123.484 132.02C125.579 132.02 127.57 132.692 129.458 134.037V125.534C129.458 125.178 129.624 125 129.957 125H131.371C131.727 125 131.899 125.178 131.887 125.535V149.171C131.887 149.527 131.715 149.706 131.371 149.706H130.096C129.762 149.706 129.584 149.534 129.561 149.191L129.493 147.946C127.7 149.314 125.701 149.992 123.497 149.981C121.853 149.981 120.624 149.577 119.808 148.768C118.993 147.96 118.585 146.861 118.585 145.473ZM101.732 146.007V145.061C101.732 144.728 101.892 144.561 102.214 144.561H103.523C103.834 144.561 103.989 144.727 103.989 145.058V145.897C103.989 147.37 105.361 148.106 108.108 148.106C109.452 148.106 110.482 147.911 111.2 147.522C111.918 147.133 112.278 146.589 112.278 145.89V144.586C112.278 143.716 111.583 143.058 110.194 142.611L104.763 140.828C104.063 140.599 103.435 140.177 102.877 139.563C102.321 138.95 102.042 138.23 102.042 137.404V136.028C102.042 134.858 102.53 133.898 103.507 133.146C104.483 132.395 106.028 132.019 108.141 132.019C110.233 132.019 111.781 132.395 112.786 133.146C113.79 133.898 114.294 134.858 114.294 136.028V137.06C114.294 137.37 114.126 137.519 113.794 137.508H112.483C112.174 137.508 112.024 137.361 112.036 137.066V136.049C112.036 134.613 110.727 133.895 108.108 133.895C105.546 133.895 104.265 134.616 104.265 136.056V136.975C104.265 137.883 104.869 138.519 106.075 138.881L111.505 140.647C113.525 141.301 114.535 142.415 114.535 143.988V146.003C114.535 147.151 114.001 148.101 112.932 148.853C111.864 149.605 110.259 149.981 108.116 149.981C105.973 149.981 104.374 149.605 103.317 148.854C102.26 148.102 101.732 147.154 101.732 146.007ZM85.2577 132.828C85.2345 132.748 85.2232 132.679 85.2232 132.621C85.2232 132.404 85.384 132.295 85.7058 132.295H87.1533C87.4405 132.295 87.6413 132.473 87.7563 132.828L91.7543 144.527C91.846 144.814 91.9264 145.126 91.9955 145.465C92.0641 145.803 92.122 146.078 92.1677 146.29C92.2137 146.503 92.237 146.621 92.237 146.643C92.4664 145.703 92.6558 145.02 92.8055 144.596L96.8383 132.828C96.9525 132.473 97.1474 132.295 97.4231 132.295H98.767C99.1005 132.295 99.2672 132.404 99.2672 132.621C99.2672 132.679 99.2556 132.748 99.2325 132.828L91.1512 156.467C91.0136 156.822 90.8121 157 90.5481 157H89.4624C89.0601 157 88.9165 156.822 89.0315 156.467L91.1512 149.843L85.2577 132.828ZM71.3515 145.518C71.3515 147.14 72.3741 147.957 74.4186 147.968C76.2111 147.968 77.9512 147.306 79.64 145.984V141.843H74.0396C72.2478 141.843 71.3515 142.694 71.3515 144.396V145.518ZM68.9906 145.856V144.092C68.9906 142.906 69.3838 141.922 70.171 141.14C70.9577 140.359 72.0928 139.968 73.5743 139.968H79.64V136.757C79.64 135.877 79.3467 135.204 78.7615 134.735C78.1752 134.267 77.1413 134.032 75.6593 134.032C74.1779 134.032 73.138 134.253 72.5404 134.695C71.9432 135.136 71.6446 135.793 71.6446 136.665V137.095C71.6446 137.473 71.4677 137.662 71.1144 137.662H69.8487C69.5179 137.662 69.3529 137.473 69.3529 137.095V136.493C69.3529 133.511 71.4719 132.02 75.7111 132.02C79.9504 132.02 82.0699 133.511 82.0699 136.493V149.172C82.0699 149.528 81.902 149.706 81.5665 149.706H80.2811C79.9455 149.706 79.7722 149.53 79.7609 149.177L79.6924 147.933C77.9458 149.31 76.0044 149.992 73.8674 149.981C72.2937 149.981 71.0869 149.59 70.2485 148.809C69.4101 148.027 68.9906 147.043 68.9906 145.856ZM44.2973 132.828C44.2741 132.759 44.2628 132.696 44.2628 132.639C44.2628 132.421 44.4398 132.306 44.7937 132.295H46.1799C46.4879 132.295 46.6761 132.474 46.7441 132.833L50.0579 145.103C50.1056 145.262 50.1479 145.454 50.1836 145.676C50.22 145.898 50.2563 146.087 50.2921 146.24C50.3285 146.394 50.3463 146.483 50.3463 146.505C50.3463 146.414 50.472 145.943 50.7248 145.095L54.1095 132.83C54.2215 132.473 54.4169 132.295 54.6965 132.295H56.1725C56.4746 132.295 56.6588 132.478 56.7261 132.845L59.8873 145.134L60.2341 146.485C60.2341 146.346 60.3671 145.882 60.6334 145.095L63.9186 132.827C64.033 132.472 64.2278 132.295 64.5031 132.295H65.7074C66.0174 132.295 66.1717 132.403 66.1717 132.62C66.1717 132.677 66.1604 132.745 66.1377 132.826L61.5374 149.204C61.4455 149.538 61.2733 149.705 61.0207 149.705H59.3177C59.0077 149.705 58.8242 149.539 58.767 149.208L55.6534 137.301C55.6058 137.117 55.4872 136.566 55.2983 135.647L54.8233 137.335L51.4857 149.203C51.3719 149.538 51.183 149.705 50.9202 149.705H49.3094C49.0234 149.705 48.8345 149.539 48.7433 149.207L44.2973 132.828ZM38.4213 149.172V125.602C38.4213 125.247 38.5994 125.068 38.9551 125.068H40.3514C40.6846 125.068 40.8514 125.247 40.8514 125.602V149.172C40.8514 149.528 40.6846 149.705 40.3514 149.705H38.9551C38.5994 149.705 38.4213 149.528 38.4213 149.172ZM22.361 145.518C22.361 147.14 23.3836 147.957 25.4281 147.968C27.2206 147.968 28.9606 147.306 30.6493 145.984V141.843H25.0492C23.2573 141.843 22.361 142.694 22.361 144.396V145.518ZM20 145.856V144.092C20 142.906 20.3933 141.922 21.1804 141.14C21.9671 140.359 23.1022 139.968 24.5836 139.968H30.6493V136.757C30.6493 135.877 30.3562 135.204 29.771 134.735C29.1846 134.267 28.1507 134.032 26.6688 134.032C25.1874 134.032 24.1475 134.253 23.5498 134.695C22.9527 135.136 22.6542 135.793 22.6542 136.665V137.095C22.6542 137.473 22.4772 137.662 22.1238 137.662H20.8582C20.5274 137.662 20.3623 137.473 20.3623 137.095V136.493C20.3623 133.511 22.4813 132.02 26.7206 132.02C30.9598 132.02 33.0795 133.511 33.0795 136.493V149.172C33.0795 149.528 32.9115 149.706 32.5759 149.706H31.2905C30.9551 149.706 30.7817 149.53 30.7704 149.177L30.7018 147.933C28.9552 149.31 27.0138 149.992 24.8769 149.981C23.3031 149.981 22.0965 149.59 21.258 148.809C20.4196 148.027 20 147.043 20 145.856Z" fill="#E9568E"></path><path d="M147.868 94.0639C144.806 91.0082 140.567 89.6763 136.562 90.068L113.872 59.7464C116.071 55.1237 115.207 49.4825 111.438 45.6433C106.571 40.7856 98.7192 40.7856 93.8514 45.6433C89.6903 49.7959 89.0622 56.1423 92.0457 60.9216L75.3224 87.7959C73.2026 87.0124 70.8472 86.934 68.5703 87.8742L59.6199 76.9052C60.091 76.0433 60.405 75.0247 60.405 73.9278C60.405 70.4804 57.6571 67.7381 54.2025 67.7381C50.7479 67.7381 48 70.5588 48 73.9278C48 77.3753 50.8265 80.1175 54.2025 80.1175C54.438 80.1175 54.7521 80.0392 54.9876 80.0392L63.7025 92.732C62.1323 96.1794 62.7604 100.332 65.5869 103.153C69.1984 106.757 75.1654 106.835 78.777 103.153C81.3679 100.567 82.0745 96.8062 80.9754 93.5938L100.918 66.7979C102.017 66.9546 103.116 66.9546 104.215 66.7979L125.178 98.5299C122.98 103.623 124 109.734 128.162 113.887C133.657 119.371 142.529 119.371 147.947 113.887C153.364 108.402 153.364 99.5485 147.868 94.0639Z" fill="#E9568E"></path></svg>