<svg xmlns="http://www.w3.org/2000/svg" viewBox="0 0 169.83 137.88"><defs><style>.cls-1{fill:#254993;}.cls-2{fill:#e40019;}.cls-3{fill:#fff;}</style></defs><g id="Ebene_2" data-name="Ebene 2"><g id="Ebene_1-2" data-name="Ebene 1"><path class="cls-1" d="M141,97.22c-23-6-38.69,25.39-25.6,36.52,7.53,6.4,24.47,6.64,33.94-8.29C157.92,111.9,152,100.12,141,97.22Z"/><path class="cls-2" d="M0,0H59.11S78,.35,85.92,14.51a39.08,39.08,0,0,1,3,31.73c-3.17,10.14-10.08,14.49-12.9,15.88a33.14,33.14,0,0,1,18.44,9.41c12.34,12.89,7.83,31.48,7.16,34.26-.89,3.67-4.15,16.19-16.3,23.72A36.23,36.23,0,0,1,67,134.78H0Z"/><path class="cls-3" d="M34.76,27.15V52.37c8.29,0,14.31.33,19.58-3.76s5.89-14,0-18.45C50.67,27.38,43.42,27.15,34.76,27.15Z"/><polygon class="cls-1" points="135.39 1.32 120.14 88.85 154.59 88.85 169.84 1.32 135.39 1.32"/><path class="cls-3" d="M34.76,79.83v29.23c11.51,0,19.88.38,27.2-4.36s8.18-16.19,0-21.38C56.86,80.1,46.79,79.83,34.76,79.83Z"/></g></g></svg>