<svg width="105" height="146" viewBox="0 0 105 146" fill="none" xmlns="http://www.w3.org/2000/svg">
<g clip-path="url(#clip0_12_9282)">
<path d="M74.4508 58.7761C74.4505 58.424 74.5544 58.0796 74.7496 57.7865C74.9446 57.4935 75.2222 57.265 75.5471 57.13C75.8719 56.995 76.2295 56.9594 76.5745 57.0279C76.9194 57.0964 77.2366 57.2659 77.4854 57.5147C77.7342 57.7637 77.9037 58.0809 77.9724 58.4263C78.0412 58.7718 78.006 59.1298 77.8715 59.4553C77.737 59.7806 77.5091 60.0587 77.2168 60.2546C76.9243 60.4503 76.5804 60.5547 76.2288 60.5547C75.7576 60.5547 75.3056 60.3675 74.9721 60.0339C74.6389 59.7003 74.4514 59.2479 74.4508 58.7761Z" fill="#111111"/>
<path fill-rule="evenodd" clip-rule="evenodd" d="M104.82 6.48067V94.3729C104.82 100.884 102.037 107.639 96.5502 114.441C92.259 119.763 86.3032 125.147 78.8282 130.44C66.1903 139.403 52.4125 145.543 52.4125 145.543C52.4125 145.543 38.633 139.403 25.9968 130.44C18.5273 125.147 12.5661 119.763 8.27491 114.441C2.78287 107.639 0 100.884 0 94.3729V6.50947L44.3408 0.0270028C45.144 1.46357 46.3152 2.65972 47.7336 3.49223C49.1522 4.32473 50.7665 4.76349 52.4107 4.76329C54.0601 4.76394 55.6797 4.32257 57.1012 3.48498C58.5228 2.64739 59.6946 1.44411 60.4951 0L104.82 6.48067ZM76.4714 78.4755C82.7131 73.192 97.3466 57.3305 89.0357 35.4187C88.8559 34.9488 88.1566 35.091 88.1584 35.6527C88.2087 44.5114 85.922 50.1676 85.922 50.1676C87.2757 40.2504 84.6457 31.4925 80.8992 26.2413C80.43 25.5824 79.5959 26.0451 79.7037 26.7814C81.4295 38.5258 78.0606 46.6914 75.2094 51.4907C74.6352 50.6749 73.9961 49.9066 73.2984 49.1937C73.2567 49.1537 73.2053 49.1251 73.1492 49.1107C73.0933 49.0963 73.0345 49.0967 72.9786 49.1116C72.9227 49.1267 72.8719 49.1559 72.8305 49.1964C72.7892 49.2369 72.759 49.2875 72.743 49.3431C72.1515 50.9939 72.0418 53.0965 72.0418 53.0965L70.5515 51.1163C70.5147 51.0688 70.4665 51.0311 70.4115 51.0068C70.3563 50.9827 70.2961 50.9728 70.2362 50.978C70.1764 50.9832 70.1186 51.0034 70.0685 51.0367C70.0183 51.0698 69.9773 51.1152 69.9493 51.1685C67.8657 54.8373 67.1952 58.7545 66.9777 60.7095C61.8901 64.6267 51.235 70.5115 37.1966 66.3567C19.5257 61.1294 14.8607 44.7432 14.3826 43.0635C14.3605 42.9859 14.3473 42.9395 14.3422 42.9272C14.3112 42.8577 14.26 42.7991 14.1952 42.7591C14.1304 42.7193 14.0551 42.6999 13.9791 42.7037C13.9031 42.7073 13.83 42.7339 13.7694 42.78C13.7087 42.8259 13.6634 42.8893 13.6393 42.9614C12.7638 45.5177 11.8146 61.0767 22.7843 73.7608C24.0742 75.2642 25.4794 76.6642 26.9874 77.9481C23.5031 80.2254 17.0525 86.2362 14.2293 88.8669L14.2247 88.8711C14.0927 88.9942 13.9687 89.1099 13.8532 89.2172C13.0371 89.9769 13.6842 90.4882 14.1858 90.3261C15.346 89.9524 16.8066 89.374 18.5654 88.6774L18.574 88.6739C21.1086 87.6702 24.262 86.4214 28.0283 85.1866C25.6355 86.769 17.5781 93.2316 14.5166 95.9391C13.4092 96.9166 14.0779 97.6349 14.8276 97.3793C15.9136 97.0063 17.2578 96.4774 18.8277 95.8594C26.093 92.9999 38.1927 88.2379 51.9128 88.2379C65.7626 88.2379 78.3002 93.1661 85.4739 95.9859L85.4939 95.9938C86.9925 96.5828 88.2561 97.0794 89.2478 97.4189C89.8662 97.6295 90.5656 96.8788 89.708 96.1353C86.1126 93.021 77.5752 86.6574 75.2346 85.2028C78.7815 86.3648 81.9973 87.5461 84.6467 88.5195L84.664 88.5258C86.7808 89.3034 88.5351 89.9477 89.8069 90.3423C90.3552 90.5224 90.8532 89.9823 90.1808 89.2838C87.4285 86.4089 79.7253 80.3729 76.4714 78.4755Z" fill="#111111"/>
</g>
<defs>
<clipPath id="clip0_12_9282">
<rect width="105" height="146" fill="white"/>
</clipPath>
</defs>
</svg>