<svg xmlns="http://www.w3.org/2000/svg" width="512" height="512"><g fill="#E30040" fill-rule="evenodd" transform="translate(42)"><path d="M105.024088,382.286819 C104.921252,383.211448 104.847798,384.150753 104.744962,385.090059 C102.027156,419.991127 114.896335,454.275776 139.914843,478.741747 C164.948041,503.207719 199.721269,514.875654 234.53857,511.397288 C269.385252,507.9336 300.735513,489.661173 320.406554,460.718824 C340.092285,431.776475 345.909859,395.598538 336.287356,361.930309 C335.83194,361.695482 335.376524,361.460656 334.950489,361.211153 C325.91562,356.470596 317.02766,351.392476 308.389443,345.932763 C299.97159,340.64917 291.759408,334.99866 283.855734,328.966558 C278.038159,324.548887 272.352803,319.89639 266.887809,315.053096 C259.630532,308.610048 252.696453,301.77073 246.217791,294.549819 C228.823832,340.590463 187.997976,373.730333 139.356591,381.303484 C127.85366,383.108711 116.600473,383.431598 105.024088,382.286819"/><path d="M277.02596,83.3778098 C297.56376,137.329167 317.131965,186.08499 339.8587,239.155748 C336.626715,240.006994 333.23313,238.583359 331.587755,235.648029 C304.659438,185.512601 281.242232,137.40255 259.161894,84.9188578 C256.796668,79.3417317 254.504896,73.7792822 252.198434,68.1874795 C251.067239,65.3695631 249.906662,62.5369701 248.760776,59.7043771 C248.496341,58.999898 248.202524,58.2954189 247.908707,57.5909399 C247.556127,56.6663111 247.526745,55.668299 247.938089,54.7289936 C248.099688,54.3620774 248.334742,54.0538678 248.540413,53.7456582 L249.216192,52.9237659 C251.008475,50.5167957 252.404105,48.0070889 253.491228,45.2185259 C255.680164,39.6267231 256.31187,33.5652676 255.312893,27.6505786 C253.329629,15.7478174 245.029302,5.91446345 233.658588,1.89306199 C222.302566,-2.11366282 209.653749,0.337337336 200.648262,8.32143366 C191.613392,16.2908533 187.617483,28.5311775 190.232453,40.2724956 C190.408743,41.0503579 190.599724,41.8282203 190.820087,42.5914059 L191.011068,43.1491186 L191.187358,43.8242443 C191.422412,44.9249929 191.113904,46.0697714 190.394052,46.9356937 C190.100236,47.2585799 189.806419,47.5667895 189.527293,47.9043524 C188.425479,49.1812207 187.323666,50.4434124 186.221853,51.7349574 C184.047608,54.2886941 181.917435,56.9011374 179.801954,59.5282573 C175.5563,64.8118505 171.486936,70.2128568 167.579172,75.7312764 C159.646116,86.9002052 152.462293,98.406697 145.910176,110.397518 C144.250111,113.406231 142.6635,116.42962 141.150343,119.482363 C140.342347,121.008734 139.593113,122.520429 138.84388,124.076154 C138.461918,124.839339 138.094647,125.602525 137.712685,126.380387 L137.44825,126.952777 C137.257269,127.33437 137.051597,127.686609 136.757781,128.024172 C135.993857,128.846064 134.892043,129.30104 133.760848,129.21298 C133.320123,129.183627 132.879398,129.110244 132.453363,129.051537 C126.150991,128.303028 119.907382,128.053525 113.560938,128.303028 C100.456705,128.831388 87.528762,131.531891 75.3206705,136.301801 C48.50988,146.736898 26.4736138,166.550372 13.2518541,192.073062 C0.514892299,216.627094 -3.17250957,244.762227 2.76259145,271.781936 C9.05027273,300.401399 25.7243808,325.630556 49.5970025,342.655467 C71.7067229,358.418187 98.5028225,366.079397 125.622121,364.406259 C155.0185,362.601032 182.666668,349.920408 203.175087,328.800712 C221.964676,309.515597 233.570443,284.389176 236.12665,257.618971 C238.771002,229.806723 231.469653,201.950446 215.515396,178.996169 C207.788012,167.87127 198.194891,158.15533 187.162067,150.288646 C181.99089,146.575455 176.59935,143.317239 170.869921,140.499322 C169.503672,139.80952 168.108042,139.163748 166.712412,138.532652 C166.227614,138.327179 165.742816,138.107029 165.346163,137.754789 C164.450022,136.976927 163.994606,135.817472 164.097441,134.613987 C164.156205,134.114981 164.332495,133.645328 164.552858,133.175675 C164.758529,132.808759 164.94951,132.427166 165.125801,132.06025 C165.493072,131.311741 165.875034,130.563232 166.271686,129.8294 C167.799534,126.864717 169.386145,123.914711 171.016829,121.008734 C177.554255,109.238063 184.767459,98.0104275 192.729897,87.1790615 C196.652352,81.8074085 200.751098,76.5971986 205.026133,71.4750485 C206.069183,70.2128568 207.156306,68.9506651 208.228737,67.6737968 L209.036734,66.7344913 L209.433386,66.2941919 L209.756585,65.9272757 C210.608654,65.0613535 211.827994,64.665084 213.003261,64.8558804 C213.355842,64.914587 213.649659,65.0173236 214.002239,65.1053835 L214.633945,65.2668266 C215.045289,65.3842398 215.486014,65.4722996 215.897358,65.5603595 C216.749427,65.751156 217.601496,65.8832458 218.468256,66.000659 C218.89429,66.0446889 219.349706,66.1033955 219.775741,66.1474254 L220.319302,66.1767787 C221.50926,66.3675752 222.522928,67.1014075 223.06649,68.1874795 C223.286852,68.6277789 223.463143,69.0680783 223.668814,69.5083778 C223.845104,69.9340005 224.050776,70.3596233 224.227066,70.7999227 C225.754914,74.1315218 227.268071,77.5071507 228.825301,80.868103 L229.971186,83.3631331 C230.176858,83.7887559 230.367839,84.2143787 230.573511,84.6253248 C230.852637,85.2564207 231.161145,85.8434866 231.278672,86.577319 C231.352126,87.1790615 231.278672,87.7367741 231.043618,88.3091634 C230.882019,88.7494628 230.661656,89.160409 230.470675,89.5860318 C230.147477,90.3051875 229.824278,91.0390199 229.51577,91.7875289 C228.884064,93.2551937 228.267049,94.7375351 227.679415,96.2051998 C225.299498,101.987799 223.198707,107.873135 221.347661,113.861207 C217.807168,125.382375 215.339106,136.976927 214.031621,148.997101 C247.041947,181.344433 261.424284,228.192292 252.257197,273.46975 C293.009599,324.045478 357.355496,355.879127 415.9132,375.619218 C429.002742,319.070095 433.586286,251.924432 412.299253,194.979039 C401.398646,165.86057 384.195668,140.880915 359.661958,121.405004 C335.363302,102.149242 306.672084,90.4666306 277.02596,83.3778098"/></g></svg>