<svg width="32" height="32" viewBox="0 0 32 32" fill="none" xmlns="http://www.w3.org/2000/svg">
  <rect width="32" height="32" fill="#3643BA"/>
  <path d="M21.8046 6.49097C14.0292 6.49097 4.3573 14.5359 4.3573 21.2034C4.3573 24.647 7.00234 26.3837 10.4958 26.3837C13.061 26.3837 16.1652 25.4455 19.1596 23.6389V10.3338C18.3611 11.7012 14.6081 17.2109 11.5938 20.1454C10.0566 21.6426 8.83891 22.2914 7.79087 22.2914C6.61307 22.2914 6.05412 21.4929 6.05412 20.3051C6.05412 14.9152 15.1271 7.90831 21.1359 7.90831C23.6113 7.90831 25.2083 9.00626 25.2083 11.1423C25.2083 13.0986 23.8808 15.554 21.615 17.8198V21.9421C25.5676 18.8179 27.9332 14.8354 27.9332 11.6214C27.9332 8.2377 25.2981 6.49097 21.8046 6.49097Z" fill="white"/>
</svg>