<svg id="a0a870e5-68ef-496f-b882-6bf3180c6a3f" data-name="Ebene 1" xmlns="http://www.w3.org/2000/svg" xmlns:xlink="http://www.w3.org/1999/xlink" viewBox="0 0 346.23 112.58"><defs><clipPath id="a9b3fa3e-9abe-4b36-886d-da478b291684"><rect width="346.23" height="112.58" style="fill:none"/></clipPath></defs><g style="clip-path:url(#a9b3fa3e-9abe-4b36-886d-da478b291684)"><path d="M266.39,110.57V78.5q0-5.5-.67-12.44c-.44-4.62-1-9.27-1.5-14s-1.06-8.79-1.5-12.36h.66l8.69,26.06,13.36,35.91H300.8l13.36-35.91,9-26.06h.67q-.68,5.36-1.51,12.36t-1.5,14q-.66,6.93-.67,12.44v32.07h26.06V2H315.5L299.8,46.43q-1.51,4.51-2.84,9.36t-2.84,9.69h-.67q-1.5-4.85-2.84-9.69t-2.84-9.36L271.4,2H240.67V110.57ZM220.58,2H191.85V110.57h28.73ZM158.89,107.73A35.28,35.28,0,0,0,173.34,95a31.92,31.92,0,0,0,4.93-17.12,32.45,32.45,0,0,0-2.51-13.2,27.71,27.71,0,0,0-7.18-9.77,38.86,38.86,0,0,0-11.52-6.77l-13.2-5.17q-4.85-2-8.52-3.43a17.66,17.66,0,0,1-5.59-3.17,5.56,5.56,0,0,1-1.92-4.26,6,6,0,0,1,3.09-5.51,16,16,0,0,1,8.26-1.84,30.22,30.22,0,0,1,11.11,2,52.47,52.47,0,0,1,10.61,5.85l14.36-18A48.73,48.73,0,0,0,158.14,3.59a53.94,53.94,0,0,0-19-3.59,46,46,0,0,0-21,4.59,37.07,37.07,0,0,0-14.28,12.2,29.42,29.42,0,0,0-5.18,17,30.11,30.11,0,0,0,3,13.78,30.7,30.7,0,0,0,8,10A41.28,41.28,0,0,0,120.64,64l13.53,5.68c3.12,1.23,5.77,2.31,7.94,3.26a18.87,18.87,0,0,1,5,3,5.46,5.46,0,0,1,1.75,4.26A6.47,6.47,0,0,1,146,85.85q-2.92,2-9.44,2a32.28,32.28,0,0,1-12.78-2.93,54.76,54.76,0,0,1-12.61-7.6L94.75,97a59.08,59.08,0,0,0,19.88,11.7,64.39,64.39,0,0,0,21.21,3.84q13.53,0,23-4.85M28.73,25.05H30.4a39.5,39.5,0,0,1,14.2,2.43,19.49,19.49,0,0,1,10.1,9q3.77,6.6,3.76,19.29T54.7,75.33a20.54,20.54,0,0,1-10.1,9.52,36.34,36.34,0,0,1-14.2,2.67H28.73Zm5,85.52q15.69,0,27.89-5.68A42.61,42.61,0,0,0,80.84,87.11q7-12.12,7-31.32t-7-31.07A41.26,41.26,0,0,0,61.22,7.43Q48.61,2,32.07,2H0V110.57Z" style="fill:#1d1d1b"/></g></svg>