<?xml version="1.0" encoding="UTF-8"?>
<!-- Generator: Adobe Illustrator 21.0.2, SVG Export Plug-In . SVG Version: 6.00 Build 0)  -->
<svg version="1.1" id="icon-" xmlns="http://www.w3.org/2000/svg" xmlns:xlink="http://www.w3.org/1999/xlink" x="0px" y="0px" viewBox="0 0 104.4 109.4" style="enable-background:new 0 0 104.4 109.4;" xml:space="preserve">
<style type="text/css">
	.st0{fill:#52AE32;}
	.st1{fill:#FFFFFF;}
</style>
<path class="st0" d="M3.7,50.6c0,0-3.2,4.4,0,8.8L36,103.9c0,0,3.2,4.4,8.4,2.7l52.3-17c0,0,5.2-1.7,5.2-7.1v-55c0,0,0-5.5-5.2-7.1  l-52.3-17c0,0-5.2-1.7-8.4,2.7L3.7,50.6z"/>
<path class="st1" d="M67.7,52.3c-0.6-0.9-1.4-1.7-2.1-2.2c-0.3-0.3-0.7-0.5-1-0.7c-0.4-0.2-0.8-0.4-1.2-0.6  c-0.8-0.3-1.7-0.5-2.6-0.6c-0.9-0.1-1.8,0-2.7,0.3c-0.8,0.2-1.6,0.6-2.2,1.2c-0.4,0.3-0.9,0.7-1.2,1.1c-0.4,0.4-0.7,0.9-1,1.4v-4.4  c-0.3,0.3-0.5,0.6-0.9,0.8c-0.4,0.2-0.8,0.3-1.2,0.4C51,49,50.4,49,49.9,49h-4.1v1.2h3.5v26.9l-3.1,0.3l0,0.9H57l0-0.8l-3.4-0.4  V64.6c0.6,1.1,0.7,1.1,1.2,1.7c1,1.1,1.4,1.3,1.7,1.5c1.4,0.9,3.1,1.2,4.7,1.1c1.6-0.1,3.1-1,4.3-2c1.3-1,2.3-2.3,3-3.8  c0.8-1.6,1.2-3.4,1.1-5.1C69.6,56,68.9,54,67.7,52.3z M65.1,60.3c0,0.7-0.1,1.5-0.1,2.2c-0.1,0.7-0.1,1.4-0.3,2.1  c-0.2,0.9-0.5,1.4-0.8,1.7c-1.2,1.4-3,1.5-3.6,1.5c-0.9,0-1.8-0.2-2.6-0.5c-0.8-0.3-1.5-0.9-2.1-1.4c-0.6-0.6-1.1-1.2-1.5-2  c-0.4-0.8-0.5-1.7-0.6-2.6c-0.1-1-0.2-1.9-0.1-2.9c0-0.5,0-1,0-1.5c0-0.5,0-0.9,0-1.4c0.1-0.9,0.2-1.7,0.6-2.5  c0.3-0.7,0.8-1.4,1.4-2c0.6-0.6,1.2-1.1,1.9-1.4c0.7-0.3,1.4-0.5,2.1-0.6c0.6,0,1.1,0,1.7,0.1c0.8,0.1,1.5,0.4,2.1,0.9  c0.6,0.5,1.1,1.1,1.3,1.8c0.3,0.8,0.4,1.8,0.4,2.6C65.2,56.5,65.2,58.4,65.1,60.3z"/>
<path class="st1" d="M40.9,36.1c-0.6,1-1.9,1.2-2.9,1.2c-1.7,0.1-3.3,0-5,0c0,0.1,0,1.2,0,1.2h3.5v14.3c-0.3-0.7-0.6-1.3-1.2-1.9  c-0.5-0.7-1.1-1.2-1.8-1.7c-1.4-0.9-3.1-1.2-4.7-1c-1.6,0.2-3.1,1-4.3,2.1c-1.3,1.1-2.4,2.6-3,4.2c-0.7,1.7-1,3.6-0.8,5.4  c0.2,1.7,0.8,3.3,1.7,4.7c0.6,0.9,1.3,1.7,2.2,2.4c0.3,0.3,0.6,0.5,1,0.7c0.4,0.2,0.8,0.5,1.2,0.6c0.8,0.3,1.6,0.5,2.5,0.6  c1.7,0.1,3.4-0.1,4.7-1.1c0.5-0.4,1.1-0.9,1.4-1.4c0.4-0.5,0.7-0.9,1-1.5v3.4c0,0,0,0,0,0h0.2c0.7,0,1.3,0,2,0c1.6,0,3.3,0,4.9,0  c0.1,0,0.2,0,0.2,0l0.2-1.2h-3.2V36.1z M36.5,61.7c-0.1,0.9-0.3,1.7-0.7,2.5c-0.7,1.4-1.7,2.7-3.2,3.4c-0.7,0.3-1.4,0.5-2.2,0.5  c-0.8,0-1.5-0.1-2.3-0.3c-0.8-0.3-1.4-0.7-1.9-1.4c-0.5-0.7-0.8-1.4-0.9-2.2c-0.4-1.8-0.5-3.8-0.5-5.7c0-1,0-1.9,0.1-2.8  c0.1-0.9,0.2-1.8,0.4-2.7c0.2-0.8,0.6-1.5,1.2-2.2c0.5-0.6,1.2-1.1,2-1.3c1.4-0.5,3.1-0.3,4.4,0.6c0.6,0.5,1.2,1,1.7,1.6  c0.5,0.7,1,1.4,1.3,2.2c0.6,1.7,0.8,3.4,0.7,5.2l0,0.1C36.6,59.9,36.6,60.8,36.5,61.7z"/>
<path class="st1" d="M85.2,50c0.8,0,2,0,2.6,0.2c0.1,0.1,0.3,0.1,0.4,0.1c0.2,0.1,0.3,0.4,0.2,0.6c0,0.1-0.1,0.3-0.1,0.4  c-0.2,0.6-0.5,1.3-0.7,1.9c-0.8,1.9-1.5,3.9-2.3,5.8c-0.6,1.5-1.3,3-1.9,4.5c0,0,0,0.1,0,0.1l-5.6-13.4l3.4-0.5l0-0.8l-10.8,0v0.8  l3.2,0.5l8.2,19.3h0.7c0.3-0.7,0.5-1.3,0.8-2c0.6-1.6,1.3-3.2,1.9-4.8c0.7-1.9,1.5-3.7,2.3-5.6c0.6-1.5,1.3-3,1.9-4.5  c0.2-0.4,0.4-0.8,0.6-1.2c0.4-0.7,1.1-1.3,1.9-1.4c0.3,0,0.8-0.1,1.6-0.1v-1l-8.3,0L85.2,50z"/>
</svg>