<svg viewBox="0 0 405.1 405" xmlns="http://www.w3.org/2000/svg"><path d="M0-.05h405.1v405.1H0z" fill="#0072bc"/><g fill="#fd0"><path d="M215.55 278.9c-17.1 14.1-39 22.6-62.8 22.6-54.5 0-98.9-44.4-98.9-98.9s44.4-98.9 98.9-98.9c23.8 0 45.7 8.5 62.8 22.6 6.5-1.8 13.4-2.7 20.5-2.7 7.4 0 14.6 1 21.4 2.9-9.9-13.5-22.3-25.1-36.6-34l8.9-19.2-27.8-12.9-8.9 19.1c-12.7-4.2-26.3-6.5-40.5-6.5-71.4 0-129.5 58.1-129.5 129.5 0 46.4 24.5 87.2 61.3 110l-8.9 19.2 27.8 12.9 8.9-19.1c12.7 4.2 26.3 6.5 40.5 6.5 43 0 81.2-21.1 104.8-53.5-6.8 1.9-14 2.9-21.4 2.9-7.1.2-13.9-.7-20.5-2.5z"/><path d="M163.25 168.8c3.9-8.6 9.3-16.4 15.9-23h-81.1v112.9h81c-6.5-6.7-11.9-14.5-15.9-23.1h-42.1v-21.9h35.7c-.5-3.8-.8-7.6-.8-11.5s.3-7.8.8-11.6h-35.7v-21.9c.1.1 27.8.1 42.2.1z"/><path d="M227.25 213.3h27.7v21c-5.6 3.2-11.8 4.9-18.4 4.9-20.4 0-37-16.6-37-37s16.6-37 37-37c8.4 0 16.2 2.7 22.8 7.9l14.2-18.1c-10.7-8.4-23.4-12.8-37-12.8-33.1 0-60 26.9-60 60s26.9 60 60 60c13.6 0 26.4-4.4 37-12.8l4.4-3.5v-55.8h-50.7zm131.9-67.6v73.8c0 10.8-8.8 19.6-19.6 19.6s-19.6-8.8-19.6-19.6v-73.8h-23.1v73.8c0 23.5 19.1 42.6 42.6 42.6s42.6-19.1 42.6-42.6v-73.8z"/></g></svg>