<?xml version="1.0" encoding="UTF-8" standalone="no"?>
<!DOCTYPE svg PUBLIC "-//W3C//DTD SVG 1.1//EN" "http://www.w3.org/Graphics/SVG/1.1/DTD/svg11.dtd">
<svg width="512" height="512" viewBox="0 0 512 512" version="1.1" xmlns="http://www.w3.org/2000/svg" xmlns:xlink="http://www.w3.org/1999/xlink">
  <g id="Balken" transform="matrix(1.200172 0 0 0.953341 -42.606109 66.320693)">
    <rect fill="#04316a" fill-rule="evenodd" x="35.5" y="360.5" width="426.61" height="106.99"/>
  </g>
  <g id="Logo-Blau" transform="matrix(1.06867 0 0 1.114754 0 151.770492)">
    <path fill="#04316a" d="M0 19.1 L9.3 9.8 L9.3 178.1 L0 178.1 Z M27.8 11.3 L139 11.3 L139 2 L18.5 2 L18.5 11.3 L18.5 113.3 L120.9 113.3 L120.9 104 L27.8 104 Z M134.9 85.4 L46.3 85.4 L46.3 48.3 L122 48.3 L131.3 39 L46.3 39 L46.3 29.7 L139 29.7 L139 20.4 L46.3 20.4 L37 20.4 L37 94.5 L125.6 94.5 Z M18.5 127.1 L18.5 178.1 L27.8 178.1 L27.8 131.8 L37.1 131.8 L37.1 170.4 L46.4 161.1 L46.4 131.8 L121 131.8 L121 122.5 L18.5 122.5 Z M469.8 2 L469.8 108.6 C469.8 133.4 458.7 154.7 432.9 171.1 L432.7 170.8 C449.7 157.3 460.5 140.1 460.5 117.7 L460.5 2 L451.2 2 L451.2 117.5 C451.2 150.8 424.2 175.7 391 175.7 C357.8 175.7 330.8 150.7 330.8 117.5 L330.8 9.8 L321.5 19.1 L321.5 117.8 C321.5 156.2 352.6 185 391 185 C391.9 185 400.3 185 400.3 185 C438.1 185 479.1 157.1 479.1 108.8 C479.1 108.8 479.1 2.1 479.1 2.1 L469.8 2.1 Z M391 166.5 C419.1 166.5 442 145.7 442 117.5 L442 117.5 L442 9.8 L432.7 19.1 L432.7 108.6 C432.7 126.5 418.2 138.7 400.3 138.7 C382.4 138.7 367.9 126.5 367.9 108.6 L367.9 2 L358.6 2 L358.6 108.6 C358.6 131.6 377.3 148 400.3 148 C409.7 148 421.2 143.3 428.9 135.2 L429.1 135.5 C421.8 149 408.4 157.3 391 157.3 C368.1 157.3 349.5 140.7 349.3 117.9 L349.3 117.9 L349.3 2 L340 2 L340 117.9 L340 117.9 C340.2 145.8 363 166.5 391 166.5 Z M185.1 122.5 L161.7 178.1 L171 178.1 L171 178.1 L171 178.1 L182.7 150.3 L261.2 150.3 L272.9 178.1 L282.2 178.1 L266.5 141 L186.5 141 L190.4 131.7 L271.8 131.7 L291.3 178 L300.6 178 L277.2 122.4 L185.1 122.4 Z M198.7 2 L130.6 163.6 L136.5 171.6 L208 2 Z M235.8 2 L307.2 171.6 L313.1 163.6 L245 2 Z M179.7 113.2 L152.3 178.1 L143 178.1 L212.6 13 L250.9 103.9 L260.2 103.9 L217.2 2 L226.5 2 L273.3 113.2 Z M221.9 57.1 L202.1 104 L241.6 104 Z M183.6 104 L192.9 104 L217.3 46.1 L212.7 35.1 Z"/>
  </g>
</svg>