<svg width="46" height="46" viewBox="0 0 46 46" fill="none" xmlns="http://www.w3.org/2000/svg">
<path d="M45.3 0H0V45.3H45.3V0Z" fill="white"/>
<path d="M16.7959 19.2991L24.4155 0.129122C19.7075 -0.359299 14.9572 0.544923 10.7902 2.72269C6.62321 4.90047 3.23496 8.24965 1.07173 12.3291C1.07757 12.3723 1.07757 12.416 1.07173 12.4591L0.741342 13.2891C-1.57136 19.0792 1.95964 23.3691 5.38739 24.6491C6.49795 25.0417 7.67861 25.2142 8.85932 25.1564C10.04 25.0987 11.1967 24.8118 12.2608 24.3128C13.3248 23.8138 14.2746 23.1129 15.0536 22.2516C15.8327 21.3904 16.4251 20.3864 16.7959 19.2991ZM30.6102 24.2691C26.0674 35.7691 15.1233 40.0791 5.0982 38.4191C7.27138 40.5879 9.87035 42.3139 12.7423 43.4957C15.6142 44.6774 18.7011 45.291 21.8214 45.3004C24.9418 45.3099 28.0326 44.7148 30.912 43.5504C33.7915 42.386 36.4015 40.6757 38.5886 38.52C40.7756 36.3644 42.4956 33.8069 43.6473 30.998C44.799 28.1892 45.3593 25.1856 45.295 22.164C45.2308 19.1424 44.5435 16.1637 43.2734 13.4031C42.0033 10.6425 40.1761 8.15577 37.8993 6.08912L30.6102 24.2691Z" fill="#023D6B"/>
</svg>