<svg width="400" height="400" viewBox="0 0 400 400" fill="none" xmlns="http://www.w3.org/2000/svg">
  <style>
    @media (prefers-color-scheme: dark) {
    .a { fill: white }
    .b { fill: #003865 }
    }
  </style>
  <path class="a" d="M200 400C310.453 400 400 310.453 400 200C400 89.5468 310.453 0 200 0C89.5468 0 0 89.5468 0 200C0 310.453 89.5468 400 200 400Z" fill="#003865"/>
  <path class="b" d="M284.732 238.333H245.541L255.171 184.223C272.38 196.177 280.127 214.005 284.732 238.333ZM88.7757 218.828C79.6478 206.538 75.2932 189.466 75.2932 166.731C75.2932 134.307 86.9333 117.486 94.1352 110.271L108.371 185.817C109.251 192.193 108.036 195.045 102.97 201.295L88.7757 218.828ZM358.049 294.835L354.071 291.605C354.071 291.605 350.051 295.926 344.483 295.926C335.271 295.926 322.04 289.382 314 237.201C302.528 162.662 253.371 148.317 234.696 143.451L215.31 167.444C210.453 149.282 196.384 132.587 176.161 127.637L148.065 162.411L151.959 165.557C155.309 161.362 159.496 159.768 163.725 160.523C176.496 162.83 183.111 178.979 183.111 192.528C183.111 223.988 159.161 241.605 136.425 241.605C116.243 241.605 104.059 234.432 92.9628 223.568L127.716 180.573C132.95 174.114 135.085 171.429 133.871 164.298L122.105 96.6389H171.094C179.343 96.6389 181.897 103.686 177.04 110.104L180.976 113.292L207.564 80.3638C207.564 80.3638 206.601 71.2195 193.37 71.2195H120.933C114.778 82.1255 104.896 90.7245 93.9677 97.6037L83.2906 104.483C57.5817 121.094 42.9268 144.164 42.9268 168.451C42.9268 216.396 83.2487 251.253 134.666 251.253C180.222 251.253 217.236 223.61 217.236 181.245C217.236 179.147 217.111 177.05 216.859 174.953C220.251 171.932 223.852 170.59 228.039 171.639C236.874 173.946 243.238 176.63 250.691 181.412L229.169 193.703L213.3 280.825C213.3 280.825 199.274 274.281 197.054 273.275C195.589 275.078 170.341 306.328 170.341 306.328C163.306 315.011 162.05 316.773 162.05 320.338C162.05 324.911 166.656 327.805 173.272 327.805C178.212 327.805 182.525 325.749 182.525 325.749L181.395 321.513C181.395 321.513 177.794 323.484 173.355 323.484C170.55 323.484 166.991 322.855 166.991 320.003C166.991 314.298 179.803 305.07 189.224 305.07C200.069 305.07 206.14 307.796 213.887 311.404L248.891 327.763L272.674 298.317L268.654 295.045C265.011 298.946 262.666 300.498 260.028 300.498C257.139 300.498 254.041 299.785 248.388 297.184L217.739 282.88L231.221 266.186H279.666L287.873 256.035C293.818 296.219 311.53 319.038 331.502 327.763L358.049 294.835Z" fill="white"/>
</svg>