<?xml version="1.0" encoding="UTF-8"?>
<svg id="Ebene_1" xmlns="http://www.w3.org/2000/svg" viewBox="0 0 490 490"><defs><style>.cls-1{fill:#ffe983;}.cls-2{fill:#fff;}.cls-3{fill:#004644;}</style></defs><path id="Rechteck_146308" class="cls-3" d="M86.34,0h317.31c47.69,0,86.34,36.72,86.34,82.01v407.99H86.34c-47.69,0-86.34-36.72-86.34-82.01V82.01C0,36.72,38.66,0,86.34,0Z"/><path class="cls-2" d="M389.98,181.39c-.06-9.38-1.27-18.71-3.59-27.79-4.18-16.41-20.62-35.09-54.2-38.28-25.48-2.41-44.13,0-57.13,7.56l-6.11-10.38h-44.56l-6.11,10.37c-13.33-7.83-31.57-10.28-54.3-7.07-41.57,6.27-63.98,49.82-63.98,87.64,0,52.7,26.41,84.75,72.42,87.94,18.83,1.3,33.55-.92,45.86-7.03-.73,17.69-2.38,41.9-30.77,43.25-24.54,1.17-26.97-9.87-26.97-9.87l-57.08-9.25s-7.7,68.06,85.74,68.06c31.38,0,54.7-10.49,69.31-31.17,13.51-19.12,16.37-51.6,16.5-68.3,0,0-.11-90.5.13-94.03.78-10.09,3.17-13.8,8.09-18.83,6.08-5.77,12.62-6.12,21.91-5.99,19.91.24,23.96,13.28,24.23,35.72l.02,97.47,60.6.03-.02-110.03ZM214.87,238.2h0s0,0,0,0c0,0,0,0,0,0-4.35,8.11-15.56,9.86-24.28,9.86-23.15,0-31.37-23.43-31.38-43.5,0-17.23,4.07-46.17,31.41-46.36h.41c13.22-.35,20.04,4.61,24.16,14.87,4.65,11.56,3.76,30.64,3.76,30.64,0,9.91.26,26.38-4.09,34.49Z"/><rect class="cls-1" x="329.39" y="318.7" width="60.61" height="58.8"/></svg>