<svg viewBox="0 0 800 800" xmlns="http://www.w3.org/2000/svg" height="32" width="32" fill="none"><circle cx="398.49" cy="400" fill="#c3281c" r="400"/><g fill="#fff"><path d="m455.39 153.21c-36.54-17.02-79.97-1.23-97.02 35.32l-168.44 361.22c-17.05 36.54-1.23 79.97 35.32 97.02 36.51 17.05 79.95 1.23 96.99-35.32l168.44-361.22c17.05-36.57 1.25-79.97-35.29-97.02"/><path d="m572.01 383.79c-36.54-17.02-79.97-1.23-97.02 35.32l-60.91 130.65c-17.05 36.54-1.23 79.97 35.32 97.02 36.51 17.05 79.95 1.23 96.99-35.32l60.94-130.65c17.02-36.54 1.23-79.97-35.32-97.02"/></g></svg>