<svg data-name="hr" xmlns="http://www.w3.org/2000/svg" viewBox="0 0 512 512"><rect width="512" height="512" rx="72" ry="72" stroke-width="0" fill="#007396" data-name="hintergrund"/><path d="M267.15 378.04h-51.93V280.6c0-12.41-.06-18.01-3.62-21.56-3.06-3.05-8.97-4.6-19.05-4.6-7.59 0-16.45.95-27.48 2.76v120.85h-52.04V137.39l52.04-3.29v78.86c11.28-1.9 25.19-3.65 36.99-3.65 23.92 0 39.77 6.99 50.12 17.32 13.8 13.8 14.98 30.1 14.98 49.23v102.18h-.01zm75.25.04h-52.04v-99.24c0-17.63.69-33.45 14.7-47.46 15.46-15.46 39.98-21.42 93.91-21.97v44.14c-39.81 1.09-48.88 3.84-52.95 7.91-2.86 2.86-3.62 6.79-3.62 15.05v101.57z" fill="#fff" stroke-width="0"/></svg>