<svg xmlns="http://www.w3.org/2000/svg" width="290" height="290" fill="none"><style>@media (prefers-color-scheme:dark){.a{fill:#b5e941}}</style><path fill="#1D4B00" d="M189.51 290c-38.96 0-58.02-27.05-61.89-32.64C116.12 268.62 98.76 290 67.49 290 31.38 290 .94 262.85.94 218.83V72.04C.94 27.92 31.43.87 67.49.87s66.55 28.73 66.55 70.5c7.04-2.49 14.51-3.78 22.19-3.78 37.15 0 66.55 30.3 66.55 66.72 0 10.21-1.94 19.29-6.18 27.99 23.56 10.5 39.46 34.13 39.46 60.98 0 36.79-29.86 66.72-66.55 66.72Zm-45.8-48.77c9.57 16.67 25.68 26.53 45.8 26.53 24.46 0 44.37-19.96 44.37-44.48 0-19.4-12.44-36.28-30.34-42.22l-59.83 60.18v-.01ZM67.5 23.11c-22.08 0-44.37 15.13-44.37 48.93v146.79c0 33.8 22.28 48.93 44.37 48.93 17.53 0 27.22-8.87 42.85-24.54l6.92-6.94c-3.57-10.67-5.41-22.51-5.41-35.25v-129c0-33.8-22.28-48.93-44.37-48.93l.01.01Zm66.55 72.66v105.27c0 5.96.5 11.63 1.45 16.97l48.22-48.34c14.01-14.04 16.88-24.29 16.88-35.35 0-23.63-18.94-44.48-44.37-44.48-7.91 0-15.48 2.04-22.18 5.94v-.01Z" class="a"/></svg>