<svg xmlns="http://www.w3.org/2000/svg" version="1.1" xmlns:xlink="http://www.w3.org/1999/xlink" width="100" height="100"><svg width="100" height="100" viewBox="0 0 100 100" fill="none" xmlns="http://www.w3.org/2000/svg">
<path d="M40.8057 52.7165L49.5743 43.6783L45.8952 39.8662C39.7633 46.1991 34.4285 51.6713 33.5087 52.655C33.4474 52.7165 33.3861 52.8395 33.3861 53.024C33.3861 53.1469 33.4474 53.3314 33.5701 53.3929L45.6499 64.0912L49.697 60.5251L40.8057 52.7165Z" fill="#FFD600"/>
<path d="M91.21 38.5135C91.21 30.9509 86.6724 24.0031 78.9462 21.0519C76.9227 20.314 74.8378 19.9451 72.753 20.0066C67.9088 20.0681 63.2485 21.9126 60.0599 25.1713C57.0553 28.3071 53.3148 32.1806 49.5744 35.9927L53.2535 39.8047L63.2485 29.5368C66.0692 26.647 69.2578 25.3558 72.6917 25.3558C74.102 25.3558 75.5123 25.6017 76.9227 26.0936C82.5027 28.2456 85.6913 33.1644 85.6913 38.5135C85.6913 46.9369 79.4368 51.3638 72.4464 53.3928C72.2011 53.4543 72.0785 53.6388 72.0785 53.8847C72.0785 54.0692 72.1398 54.1921 72.3238 54.3151C75.8803 56.6515 77.5359 60.0332 77.5359 64.0297C77.5359 69.3789 73.2435 73.6828 67.9088 73.6828C65.7013 73.6828 63.4325 72.8835 62.1448 71.7153L53.5601 64.0912L49.5131 67.6573L58.5883 75.7118C61.1637 78.0482 64.8428 79.0935 67.9701 79.0935C76.2482 79.0935 82.9933 72.3302 82.9933 64.0297C82.9933 60.8325 82.0122 57.8812 80.2952 55.4218C86.7337 52.4706 91.21 46.0147 91.21 38.5135Z" fill="#EF7D00"/>
<path d="M49.5743 43.6785L58.343 52.7167L49.5743 60.5253L53.6214 64.0914L65.7013 53.3316C65.8239 53.2701 65.8852 53.0856 65.8852 52.9627C65.8852 52.8397 65.8239 52.7167 65.7626 52.5938L53.3761 39.8049L49.5743 43.6785Z" fill="#95C11F"/>
<path d="M45.5886 64.0914L37.0039 71.7155C35.7162 72.9452 33.4474 73.683 31.2399 73.683C25.9052 73.683 21.6128 69.3791 21.6128 64.0299C21.6128 60.0334 23.2684 56.6518 26.825 54.3153C26.9476 54.1924 27.0702 54.0694 27.0702 53.8849C27.0702 53.639 26.8863 53.4546 26.7023 53.3931C19.7119 51.3641 13.4574 46.9372 13.4574 38.5138C13.4574 33.1646 16.646 28.2458 22.226 26.0938C23.575 25.602 25.0467 25.356 26.457 25.356C29.9522 25.356 33.0795 26.6472 35.9002 29.537L45.8952 39.8049L49.6357 35.9929C45.8952 32.1808 42.1547 28.3073 39.1501 25.1716C35.9615 21.9129 31.2399 20.0683 26.457 20.0068C24.3722 20.0068 22.2873 20.3143 20.2638 21.0521C12.5989 24.0033 8 30.8896 8 38.5138C8 46.0149 12.4763 52.4708 18.8535 55.4221C17.1365 57.8815 16.1554 60.8327 16.1554 64.0299C16.1554 72.3304 22.9005 79.0937 31.1786 79.0937C34.3059 79.0937 37.985 78.11 40.5604 75.712L49.6357 67.6575L45.5886 64.0914Z" fill="#00AEC3"/>
<path d="M45.8951 39.8663L49.5743 43.6783L53.3148 39.8663L49.5743 36.0542L45.8951 39.8663Z" fill="#003E5C"/>
<path d="M53.6214 64.091L49.5744 60.5249L45.5886 64.091L49.5744 67.6571L53.6214 64.091Z" fill="#003E5C"/>
</svg><style>@media (prefers-color-scheme: light) { :root { filter: none; } }
@media (prefers-color-scheme: dark) { :root { filter: none; } }
</style></svg>