<svg xmlns="http://www.w3.org/2000/svg" version="1.1" xmlns:xlink="http://www.w3.org/1999/xlink" xmlns:svgjs="http://svgjs.dev/svgjs" width="1200" height="1200"><svg version="1.1" id="SvgjsSvg1093" xmlns="http://www.w3.org/2000/svg" xmlns:xlink="http://www.w3.org/1999/xlink" x="0px" y="0px" viewBox="0 0 1200 1200" style="enable-background:new 0 0 1200 1200;" xml:space="preserve">
<style type="text/css">
	.st0{fill:#FFFFFF;}
	.st1{fill:#DA344E;}
</style>
<g id="SvgjsG1092">
	<g id="SvgjsG1091">
		<path class="st0" d="M1174.3,601.8c0,314.9-255.3,570.2-570.1,570.2C289.3,1172,34,916.7,34,601.8C34,286.9,289.3,31.7,604.2,31.7    C919,31.7,1174.3,286.9,1174.3,601.8z"/>
		<path class="st1" d="M141.1,837.3c-18.9,0-34.1,15.2-34.1,34.1c0,18.6,15.1,33.9,34.1,33.9c18.7,0,33.9-15.3,33.9-33.9    C175.1,852.4,159.8,837.3,141.1,837.3z"/>
		<path class="st1" d="M604.2,31.7C289.3,31.7,34,287,34,601.9c0,70,12.8,136.9,36.1,198.8c49.8-45.8,78.9-10.9,127.6-53.5    c56.8-49.7,151.7-148.5,207.6-226.5c-10.9-12.7-22.8-25.4-36-38.5c-39.2-39.2-40.7-104.5,0-145.2c40.6-40.7,105.9-39.2,145.1,0    c68,68.1,122,104.6,248.3,111.8c120.4,7.2,175.8,56.6,209.1,90c0,0,8.8,8.7,14.6,14.5c5.8,5.8,5.6,14.6-0.1,20.4    c-5.8,5.8-164,164-164,164l-72.5-72.6c0,0,53.7-53.7,58-58c5.8-5.8,4.3-16-4.4-18.9c-8.6-2.9-243.3-79.2-249.6-81.3    c-6.5-2.1-10.1-1.5-13.1,1.4c-3,3.1-3.6,6.7-1.4,13.1c2.1,6.3,78.4,240.9,81.4,249.7c3,8.7,13,10.2,18.8,4.4c5.8-5.8,58-58,58-58    L770,790c0,0-158.1,158.2-164,163.9c-5.8,5.8-14.5,5.9-20.3,0.1c-6-5.8-14.6-14.6-14.6-14.6c-33.4-33.4-82.8-88.6-90-209.1    c-2.3-39.9-7.6-72.6-15.7-100.8C358.4,725.8,242.9,844.5,228.3,892c-14.9,49.2-15.6,127.8,56.1,181.2    c91.2,62.1,201.1,98.8,319.9,98.8c314.8,0,570.1-255.1,570.1-570.1C1174.3,287,919,31.7,604.2,31.7z"/>
	</g>
</g>
</svg><style>@media (prefers-color-scheme: light) { :root { filter: none; } }
@media (prefers-color-scheme: dark) { :root { filter: none; } }
</style></svg>