<?xml version="1.0" encoding="UTF-8"?>
<svg id="a" xmlns="http://www.w3.org/2000/svg" width="48" height="48" viewBox="0 0 48 48" preserveAspectRatio="xMidYMid meet"><defs><style>.b{fill:none;}.c{fill:#f79e1b;}.d{fill:#eb001b;}.e{fill:#ff5f00;}</style></defs><rect class="b" x="-6.5893" y="2.6471" width="61.1786" height="43.3529"/><rect class="e" x="17.6609" y="12.9622" width="12.6446" height="22.7227"/><path class="d" d="M18.4638,24.3235c0-4.6098,2.1584-8.7153,5.5194-11.3614-2.4581-1.9351-5.5596-3.0896-8.9306-3.0896C7.0722,9.8725,.6027,16.3425,.6027,24.3235s6.4695,14.451,14.4499,14.451c3.3711,0,6.4726-1.1546,8.9306-3.0896-3.3611-2.6461-5.5194-6.7516-5.5194-11.3614Z"/><path class="c" d="M47.3638,24.3235c0,7.981-6.4695,14.451-14.4499,14.451-3.3711,0-6.4726-1.1546-8.9306-3.0896,3.3611-2.6461,5.5194-6.7516,5.5194-11.3614s-2.1583-8.7153-5.5194-11.3614c2.4581-1.9351,5.5596-3.0896,8.9306-3.0896,7.9805,0,14.4499,6.4699,14.4499,14.451Z"/><path class="c" d="M45.9851,33.2782v-.4652h.1876v-.0948h-.4777v.0948h.1877v.4652h.1025Zm.9275,0v-.5609h-.1464l-.1684,.3858-.1685-.3858h-.1465v.5609h.1034v-.4231l.158,.3648h.1072l.158-.3657v.424h.1033Z"/></svg>