<svg width="80px" height="80px" viewBox="0 0 80 80" version="1.1" xmlns="http://www.w3.org/2000/svg" xmlns:xlink="http://www.w3.org/1999/xlink">
    <defs>
        <style>
            #Group-68 {
                fill: #000000;
            }

            @media (prefers-color-scheme: dark) {
                #Group-68 {
                    fill: #ffffff;
                }
            }
        </style>
    </defs>
    <g id="Symbols" stroke="none" stroke-width="1" fill="none" fill-rule="evenodd">
        <g id="Mudita-Logo-Sygnet" transform="translate(-10.000000, -10.000000)">
            <g id="Group-69" transform="translate(8.000000, 8.000000)">
                <rect id="Rectangle" x="0" y="0" width="84" height="84"/>
                <g id="Group-68" transform="translate(2.000000, 5.000000)" fill-rule="nonzero">
                    <path d="M79.1284916,46.9420065 C78.9658674,46.6247147 78.7408941,46.343498 78.4670391,46.1151909 C71.6501328,40.4862789 62.3623031,38.8878607 54.0558659,41.9140735 C54.0646441,31.6713111 49.3952823,21.9853068 41.3765363,15.6123976 C40.4232523,14.853002 39.0717198,14.853002 38.1184358,15.6123976 C30.1140664,21.9713646 25.4460738,31.6331387 25.4391061,41.855973 C17.1650005,38.9123604 7.95255178,40.5368884 1.18435754,46.133068 C0.910502518,46.3613751 0.685529208,46.6425918 0.522905028,46.9598836 C0.184206325,47.4077132 2.60400019e-13,47.9537038 2.60400019e-13,48.5151909 C0.0147799024,62.4871136 11.3375745,73.8099082 25.3094972,73.8247253 C30.5114267,73.8336723 35.586332,72.2180775 39.8256983,69.203459 C44.0671934,72.2117277 49.1419226,73.8210168 54.3418994,73.806811 C68.3138222,73.7920311 79.6366167,62.4692365 79.6513966,48.4973138 C79.6513966,47.9358267 79.4671903,47.3898361 79.1284916,46.9420065 Z M39.7497207,21.105135 C45.5436059,26.4905543 48.8352182,34.0440601 48.8352182,41.954297 C48.8352182,49.8645339 45.5436059,57.4180397 39.7497207,62.803459 C33.9533843,57.4194121 30.6600301,49.8653953 30.6600301,41.954297 C30.6600301,34.0431987 33.9533843,26.4891819 39.7497207,21.105135 L39.7497207,21.105135 Z M5.27374302,49.5744087 C11.2560199,45.0954133 19.2565927,44.3841359 25.9351955,47.7375372 C27.1221111,54.6182572 30.432023,60.9552228 35.4011173,65.8604423 C32.3424206,67.6583459 28.8574587,68.6028972 25.3094972,68.5956793 C14.6404706,68.5707698 5.84747213,60.2190884 5.27374302,49.5654702 L5.27374302,49.5744087 Z M54.3418994,68.5956569 C50.7562978,68.6006166 47.2363743,67.6337574 44.1564246,65.7978724 C49.0687794,60.9227997 52.3479524,54.6439642 53.5418994,47.8269227 C60.2477434,44.3693141 68.3394875,45.0462297 74.3776536,49.5699395 C73.7970779,60.2182754 65.0060228,68.562228 54.3418994,68.5866992 L54.3418994,68.5956569 Z" id="Shape"/>
                    <path d="M78.7083799,30.7900522 C78.8796017,30.7903791 79.0411992,30.7109066 79.1454681,30.5750941 C79.249737,30.4392817 79.2847694,30.2626398 79.2402235,30.0973138 C74.3550994,12.3203374 58.1924037,5.04921989e-13 39.7564246,5.04921989e-13 C21.3204454,5.04921989e-13 5.15774977,12.3203374 0.272625698,30.0973138 C0.229975724,30.2624706 0.265757471,30.4380668 0.369632228,30.5733658 C0.473506985,30.7086649 0.633900615,30.7885913 0.804469274,30.7900522 L5.09944134,30.7900522 C5.33814167,30.7903915 5.54883172,30.6341903 5.61787709,30.4056937 C10.2701135,15.4599284 24.1033354,5.27796474 39.7564246,5.27796474 C55.4095138,5.27796474 69.2427357,15.4599284 73.8949721,30.4056937 C73.9652648,30.6333098 74.1751875,30.7889421 74.4134078,30.7900522 L78.7083799,30.7900522 Z" id="Path"/>
                </g>
            </g>
        </g>
    </g>
</svg>