<svg width="276" height="276" xmlns="http://www.w3.org/2000/svg">
 <title>mycare.de</title>

 <g>
  <rect stroke-width="0" id="svg_2" height="276" width="276" y="0" x="0" stroke="#000" fill="#fff"/>
  <g id="mycare_heart">
   <path fill-rule="evenodd" opacity="0.4" fill="#980406" d="m169.52242,187.12877l-0.064,0.512c-1.613,11.894 -12.631,21.106 -24.687,21.106l-55.46,0l-0.911,6.556c-3.794,27.173 15.013,49.2 42,49.2c26.144,0 50.382,-20.671 55.318,-46.667q0.24,-1.258 0.418,-2.532l3.935,-28.221l29.321,0c17.656,0 34.44,-9.424 45,-23.548a55.887,55.887 0 0 0 10.74,-25.653a57.007,57.007 0 0 0 0.039,-15.863a40.628,40.628 0 0 0 -26.327,-31.969a45.249,45.249 0 0 0 -15.528,-2.665l-49.851,0l-13.923,99.736l-0.02,0.008z" class="cls-1" data-name="Red Transparent" id="Red_Transparent"/>
   <path fill="#c40606" fill-rule="evenodd" d="m187.40042,59.20277l-17.858,127.918l-127.056,0c-26.147,0 -44.609,-20.67 -42.29,-46.666q0.1,-1.143 0.258,-2.3l0.066,-0.469a55.5,55.5 0 0 1 8.9,-22.853c10.38,-15.53 28.103,-26.111 46.801,-26.111l29.324,0l3.609,-25.881l0.508,-3.637c3.797,-27.173 28.752,-49.201 55.738,-49.201a43.486,43.486 0 0 1 24,6.9c0.115,0.074 0.227,0.148 0.343,0.226c0.024,0.015 0.044,0.031 0.069,0.047c12.863,8.636 20.074,24.227 17.588,42.027z" class="cls-2" id="Red"/>
  </g>
 </g>
</svg>