<?xml version="1.0" encoding="UTF-8" standalone="no"?>
<svg xmlns="http://www.w3.org/2000/svg" data-name="Ebene 1" height="48" id="Ebene_1" preserveAspectRatio="xMidYMid meet" viewBox="0 0 283.46 297.91" width="48"><defs><style>.cls-1{fill:#0f0fb2;}</style></defs><title>Neustadt_Logo_RGB_RZ</title><path class="cls-1" d="M562.62,263.44C562,259.92,556.19,260.3,524,266c-12.62,2.22-28,6.74-30.62,6l-0.09,0c-3-1.09-13.23-4.37-19.92-.76-2.76,1.49-4.51,3.79-6.35,6.23a28.5,28.5,0,0,1-6.3,6.6c-5.23,3.71-42.58,11.34-53.14-5.22s-16.57-53.37-24-67.36c-4.33-8.2-12.24-14.78-27-18.22-17.55-4.08-26.66-8.54-69.42-44.52l-1.58,4.49c-1.24,3.53-11.85,34.78-2.72,44.88a40.34,40.34,0,0,0,14,9.49,19.15,19.15,0,0,1-6.3-.4c-1.65-.46-2.81-0.84-2.81-0.84s0,1.29.12,2.38-0.18,11.19,24.7,20.86c-0.58.48-2.37,1.56-7.35,1.93l-2.06.15s0,1.36,0,1.92,0,7,22.07,18.13l2.65,1.51a15.68,15.68,0,0,1,4.31,3.53c1.72,2.11,9,13.87,11.41,25.42,3.06-6-1.26-19.15-4.08-25s-6.51-9.95-6.2-13c0.34-3.48,6.39-6.88,6-13.63s-29.41-8.58-31.83-15c0,0,8.62-3.2,8.68-6.28s-28.15-31.28-24.61-44.7a0.34,0.34,0,0,1,.17-0.22C300.63,176.13,308,189,339.48,197c6.34,1.37,11.94,1.92,20.06,3.12,7.18,1.07,15.67,4.25,21.46,14.11s8.59,22.95,11.31,33.64,4.91,23,12.46,33.07c13.88,18.6,51.41,10.66,58,6a31.78,31.78,0,0,0,7.07-7.35c1.68-2.22,3.13-4.14,5.22-5.26,4.29-2.32,11.62-1,17,1,3,1.11,14.16-2.58,32.54-5.81,9.61-1.69,22.85-4,30.1-4.63-3.7,1-9,2.24-14.25,3.43-22.74,5.18-70.09,16.59-92.8,32.72-27.35,19.43-53.1,14.53-68.49,11.6a89.26,89.26,0,0,0-9.38-1.48c-0.87-.06-63.12,15.32-70.7,16.79a7,7,0,0,0-2.23.75,1.72,1.72,0,0,0-.92,1.89c0.33,1.54,2.67,2.75,3.25,2.57s57.63-17.71,70.61-16.77a87.48,87.48,0,0,1,9,1.43c15.94,3,42.61,8.1,71.18-12.19,22.13-15.72,68.79-28.76,91.28-33.89C559.38,267.51,563.2,266.53,562.62,263.44Z" transform="translate(-279.21 -148.68)"/><path class="cls-1" d="M316.6,366.22v40h-7L292.31,378h-0.12v28.19H285v-40h7.39L309.2,394h0.12V366.22h7.27Z" transform="translate(-279.21 -148.68)"/><path class="cls-1" d="M324.53,366.22h24.11v6.37H331.86v10h14.37V389H331.86v10.82h17.19v6.37H324.53v-40Z" transform="translate(-279.21 -148.68)"/><path class="cls-1" d="M361.44,366.22v26.93c0,5.89,3.31,7.63,7.87,7.63s7.51-2.4,7.51-7.33V366.22h7.33v28.25c0,7.87-6.13,12.44-15.09,12.44-9.86,0-14.91-4-14.91-13.4V366.22h7.27Z" transform="translate(-279.21 -148.68)"/><path class="cls-1" d="M391.64,397.05c2.28,1.44,7,3.49,11.12,3.49,3.19,0,6.43-1,6.43-5.53,0-3.79-3.43-4.93-7.63-6.07-6-1.62-11.48-4-11.48-11.66,0-7.33,5.65-11.78,13.53-11.78a19.68,19.68,0,0,1,13.77,5.65L413.46,376c-3.13-2.58-6.55-4.27-9.86-4.27-2.71,0-5.89,1.14-5.89,4.87s3.49,4.87,8,6.25c5.47,1.74,11.24,4.09,11.24,11.84,0,7.94-5.65,12.2-14.31,12.2-5.89,0-11.66-2.34-13.71-3.85Z" transform="translate(-279.21 -148.68)"/><path class="cls-1" d="M451.24,366.22v6.37H439.58v33.6h-7.27v-33.6H420.95v-6.37h30.3Z" transform="translate(-279.21 -148.68)"/><path class="cls-1" d="M448.1,406.19l13.83-40h8.18l14.13,40h-7.81l-3.61-10.58H458.74l-3.55,10.58H448.1Zm12.08-16.11h11.18L465.95,373h-0.18Z" transform="translate(-279.21 -148.68)"/><path class="cls-1" d="M488.68,366.22h13c11.48,0,18.76,6.07,18.76,18.57,0,15.75-8.78,21.4-18.45,21.4H488.68v-40Zm7.33,34.2h6.13c6.73,0,10.94-4.93,10.94-14.55,0-10.82-5.23-13.83-11.72-13.83H496v28.37Z" transform="translate(-279.21 -148.68)"/><path class="cls-1" d="M553.07,366.22v6.37H541.4v33.6h-7.27v-33.6H522.77v-6.37h30.3Z" transform="translate(-279.21 -148.68)"/><path class="cls-1" d="M300.32,446.19h-2.38L296.06,440h-6.44l-1.88,6.23h-2.38l7.47-22.93Zm-10.17-8.08h5.38l-2.71-8.56Z" transform="translate(-279.21 -148.68)"/><path class="cls-1" d="M320.13,425h2.17v21.17h-2.2V430.07H320l-4.35,10.38-4.32-10.38-0.06.06v16.05h-2.2V425h2.15l4.44,10.55Z" transform="translate(-279.21 -148.68)"/><path class="cls-1" d="M340.07,425h5.5c5.29,0,5.76,4.76,5.76,6,0,2.18-.82,4.17-3.76,5.85l5.7,9.32H350.6l-5.15-8.82c-1.06,0-2.12,0-3.18.06v8.76h-2.2V425Zm4.29,10.52c3,0,4.76-1.53,4.76-4.65,0-2.82-1.18-3.94-4.67-4h-2.18v8.67h2.09Z" transform="translate(-279.21 -148.68)"/><path class="cls-1" d="M373,425v15.61a5.7,5.7,0,0,1-5.85,6c-2.29,0-5.88-1.29-5.88-7.14V425h2.2v15.61c0,3.06,2,4.12,3.67,4.12,2.71,0,3.65-2,3.65-4.38V425H373Zm-8.5-6.17a2,2,0,1,1-2,2A2,2,0,0,1,364.53,418.84Zm5.26,0a2,2,0,1,1-2,2A2,2,0,0,1,369.79,418.84Z" transform="translate(-279.21 -148.68)"/><path class="cls-1" d="M383.73,446.19V425h4.44c2.44,0,6.64.29,6.64,5.35a5.07,5.07,0,0,1-2.79,4.56c2.41,1.18,3.7,2.76,3.7,5.5a5.65,5.65,0,0,1-5.94,5.76h-6.06Zm2.2-11.94h2.56a4,4,0,0,0,4.12-4c0-3.5-2.94-3.41-4.29-3.41h-2.38v7.38Zm3.7,10.08c1.94-.09,3.88-1.15,3.88-3.79,0-2.35-1.47-4.44-4.82-4.44h-2.76v8.23h3.7Z" transform="translate(-279.21 -148.68)"/><path class="cls-1" d="M417.17,426.87h-8.79v7.53h6.32v1.85h-6.32v8.09h9v1.85h-11.2V425h11v1.85Z" transform="translate(-279.21 -148.68)"/><path class="cls-1" d="M427.24,425h2.56l6.44,15.82h0.09V425h2.2v21.37h-2.09l-6.94-17.08-0.06.06v16.82h-2.21V425Z" transform="translate(-279.21 -148.68)"/><path class="cls-1" d="M449.25,446.19V425h4.44c2.44,0,6.64.29,6.64,5.35a5.07,5.07,0,0,1-2.79,4.56c2.41,1.18,3.7,2.76,3.7,5.5a5.65,5.65,0,0,1-5.94,5.76h-6.06Zm2.21-11.94H454a4,4,0,0,0,4.12-4c0-3.5-2.94-3.41-4.29-3.41h-2.38v7.38Zm3.7,10.08c1.94-.09,3.88-1.15,3.88-3.79,0-2.35-1.47-4.44-4.82-4.44h-2.76v8.23h3.7Z" transform="translate(-279.21 -148.68)"/><path class="cls-1" d="M482.69,426.87H473.9v7.53h6.32v1.85H473.9v8.09h9v1.85H471.7V425h11v1.85Z" transform="translate(-279.21 -148.68)"/><path class="cls-1" d="M493,425h5.5c5.29,0,5.76,4.76,5.76,6,0,2.18-.82,4.17-3.76,5.85l5.7,9.32h-2.68l-5.15-8.82c-1.06,0-2.12,0-3.18.06v8.76H493V425Zm4.29,10.52c3,0,4.76-1.53,4.76-4.65,0-2.82-1.18-3.94-4.68-4h-2.18v8.67h2.09Z" transform="translate(-279.21 -148.68)"/><path class="cls-1" d="M519.58,437.45V435.6h7.2v11h-2.21v-2.06a5.7,5.7,0,0,1-4.44,2.06c-1.71,0-6.38-.29-6.38-10.52,0-8.38,2.56-11.47,6.67-11.47,3.59,0,5.26,2.53,5.32,5.82h-2.2c0.18-1.94-.77-4-3-4-4.41,0-4.59,6.14-4.59,9.29,0,2.94.15,9,4.29,9,2.06,0,4.32-1.65,4.32-5.88v-1.41h-5Z" transform="translate(-279.21 -148.68)"/><path class="cls-1" d="M548.33,426.87h-8.79v7.53h6.32v1.85h-6.32v8.09h9v1.85h-11.2V425h11v1.85Z" transform="translate(-279.21 -148.68)"/></svg>