<svg id="nivona_logo" xmlns="http://www.w3.org/2000/svg" width="80" height="52.061" viewBox="0 0 80 52.061">
    <path id="Path_1" data-name="Path 1" d="M2.629,3.422c27.238,0,40-8.071,40-26.031s-12.762-26.03-40-26.03-40,8.07-40,26.03,12.762,26.031,40,26.031" transform="translate(37.371 48.639)" fill="#e4032e"/>
    <g id="Group_17610" data-name="Group 17610" transform="translate(10.862 17.568)">
        <path id="Path_3" data-name="Path 3" d="M.147.969V-7.894L5.262.969H7.552V-13.77l-2.238,1.1V-3L.389-11.478h-2.48V.969Z" transform="translate(2.091 13.77)" fill="#fff"/>
        <path id="Path_4" data-name="Path 4" d="M22.214-17.563h2.4V-30.1h-2.4Z" transform="translate(-9.3 32.374)" fill="#fff"/>
        <path id="Path_5" data-name="Path 5" d="M0,0H2.362L4.569,8.963H4.6L6.792,0H9.138L5.94,12.541H3.214Z" transform="translate(17.62 2.27)" fill="#fff"/>
        <path id="Path_6" data-name="Path 6" d="M.158.591c0,1.39.608,1.772,1.563,1.772S3.284,1.982,3.284.591V-4.515c0-1.389-.608-1.771-1.564-1.771S.158-5.9.158-4.515ZM-2.24-4.2c0-3.093,1.632-4.2,3.96-4.2S5.682-7.295,5.682-4.2V.279c0,3.093-1.633,4.2-3.961,4.2S-2.24,3.372-2.24.279Z" transform="translate(30.751 10.5)" fill="#fff"/>
        <path id="Path_8" data-name="Path 8" d="M0,.824v-12.54H2.622L5.956-4.282h.035v-7.434H8.181V.824H5.888l-3.664-8.1H2.189v8.1Z" transform="translate(39.148 13.987)" fill="#fff"/>
        <path id="Path_9" data-name="Path 9" d="M.225.511H2.6L1.44-4.56H1.407ZM-3.2,5.271-.089-7.269H2.985L6.009,5.271H3.716L3.107,2.632H-.21L-.888,5.271Z" transform="translate(52.267 9.54)" fill="#fff"/>
    </g>
</svg>