<?xml version="1.0" encoding="UTF-8"?>
<svg width="16px" height="16px" viewBox="0 0 16 16" version="1.1" xmlns="http://www.w3.org/2000/svg" xmlns:xlink="http://www.w3.org/1999/xlink">
    <title>favicon</title>
    <g id="favicon" stroke="none" stroke-width="1" fill="none" fill-rule="evenodd">
        <path d="M0,6.84398499 C0,4.99365434 0.582052805,3.47374043 1.74615842,2.28424437 C2.91026403,1.09474831 4.44168277,0.5 6.34041522,0.5 C8.21654513,0.5 9.73666261,1.09474831 10.9007682,2.28424437 C12.0648738,3.47374043 12.6469266,4.99365434 12.6469266,6.84398499 C12.6469266,8.60620304 12.0535726,10.1040884 10.8668644,11.337641 C9.68015628,12.5711937 8.17134007,13.18797 6.34041522,13.18797 C4.48688783,13.18797 2.96677036,12.5711937 1.78006221,11.337641 C0.593354071,10.1040884 0,8.60620304 0,6.84398499 Z M2.44122967,6.84398499 C2.44122967,8.05551131 2.774639,9.11284214 3.44145824,10.0159775 C4.10827749,10.9191128 5.07459821,11.3706805 6.340421,11.3706805 C7.58364126,11.3706805 8.53865899,10.9191128 9.20547418,10.0159775 C9.87229342,9.11284214 10.2057028,8.05551131 10.2057028,6.84398499 C10.2057028,5.63245867 9.85534037,4.57512784 9.15461559,3.67199249 C8.45389081,2.76885715 7.51582614,2.31728948 6.340421,2.31728948 C5.16501239,2.31728948 4.22129593,2.76885715 3.50927162,3.67199249 C2.79724732,4.57512784 2.44122967,5.63245867 2.44122967,6.84398499 L2.44122967,6.84398499 Z M16.071437,15.5669925 L12.4095943,15.5669925 L12.4095943,14.6418309 C12.4095943,14.6418309 12.5508693,14.5206783 12.8334189,14.2783736 C13.1159685,14.0360689 13.3363577,13.832313 13.4945864,13.6671066 C13.6528139,13.5018986 13.8449482,13.2871279 14.070988,13.0227946 C14.2970278,12.7584619 14.472209,12.5161572 14.5965304,12.2958811 C14.7208524,12.0756038 14.7830134,11.8663403 14.7830134,11.6680916 C14.7830134,11.4478143 14.6925975,11.2715925 14.5117657,11.1394262 C14.3309339,11.0072598 14.1274978,10.9411769 13.9014568,10.9411769 C13.4945841,10.9411769 13.0651093,11.084357 12.6130315,11.3707177 L12.5452193,10.4785955 C13.0425057,10.2362908 13.5850011,10.1151382 14.1727057,10.1151382 C15.3255083,10.1151382 15.9019094,10.6327905 15.9019094,11.668095 C15.9019094,12.0205386 15.7662855,12.4060234 15.4950377,12.8245499 C15.22379,13.2430764 14.9977491,13.5459579 14.8169155,13.7331946 C14.6360837,13.9204301 14.3083256,14.2453403 13.8336417,14.7079239 L16.071437,14.7079239 L16.071437,15.5669925 Z" id="Logos/o2" fill="#0050FF"/>
    </g>
</svg>