<svg xmlns="http://www.w3.org/2000/svg" viewBox="0 0 512 512">
  <style>
    #shape { stroke: #fff; fill: #0B5ED7; } @media (prefers-color-scheme: dark) { #Oval, #Rectangle { display: none; } #shape { fill: #fff; } }
  </style>
  <path d="M176 352a176 176 0 100-352 176 176 0 000 352z" transform="translate(85 134)" id="Oval" fill="#FFF"/>
  <path d="M0 0h386v99H0V0z" transform="translate(63 27)" id="Rectangle" fill="#FFF"/>
  <path id="shape" d="M195.2 499.2c35.6 0 68.7-8.8 99.1-26.6A195.9 195.9 0 00391 303.4V10.6c-17-2.4-42-4.7-75-6.9a1828.5 1828.5 0 00-242.3.5C43.8 6 19.2 8.3.1 10.7v292.8a197 197 0 0026 99 195.9 195.9 0 0070.2 70.2 193.4 193.4 0 0099 26.6zm84.2-391h-18V48c7-.7 14.5-1.1 22.3-1.1 9.5 0 17 1.8 22.3 5.4 5.3 3.6 8 9.3 8 17.2a23 23 0 01-7.5 18.4c-5 4.3-11.9 6.4-20.7 6.4h-6.4v14zm-232.6 0H29.3V48c6.9-.7 14-1.1 21.7-1.1 9.3 0 16.5 1.8 21.5 5.4 5 3.6 7.5 9.3 7.5 17.2 0 8-2.4 14-7 18.4-4.7 4.3-11.3 6.4-20 6.4h-6.2v14zm293.5 1c-7 0-13.3-1-18.9-3.2l-1.6-13.9a48.8 48.8 0 0020 4.8c6.3 0 9.4-2 9.4-5.8 0-1.8-.9-3.2-2.6-4.3-1.4-.7-3.9-1.8-7.4-3.2-5.6-2.1-9.6-4-12-5.9a16.4 16.4 0 01-5.8-13.3 15 15 0 016.6-13c4.3-3 10.2-4.6 17.5-4.6 5.6 0 11.2.5 16.8 1.6l1.1 13.3a36 36 0 00-15.5-3.2c-5.8 0-8.7 1.6-8.7 4.8 0 1.8 1.1 3.2 3.2 4.3 1 .7 3.5 1.8 7.3 3.2 5.6 2.1 9.7 4 12.1 5.9 3.9 2.8 5.8 7 5.8 12.2 0 13.6-9.1 20.3-27.3 20.3zm-92.5-2H230V47.9h17.8v59.5zm-28 0h-32.6V47.9H205v47.8h17.4l-2.7 11.7zm-44.8 0h-18.4V47.9H175v59.5zm-68.4 0H88.7V47.9h17.9v23.9h18.9v-24h17.8v59.6h-17.8V83.9h-19v23.4zm177.3-24c8.4 0 12.6-4.1 12.6-12.5 0-7.8-4.2-11.6-12.6-11.6h-3.2v24.2h3.2zm-234 0c8.4 0 12.6-4.1 12.6-12.5 0-7.8-4.2-11.6-12.6-11.6h-3.2v24.2H50zM112 292.6a532 532 0 017-51.4c1.7-6.8 5.8-11 12.2-12.8 3.2-.8 13-2.2 29.2-4.3l22.9-2.7v-3.2l-29.3-3.8c1.8-14.2 3-22.6 3.8-25.1 1-3.6 3.3-6 6.9-7l15.4-2.1 12.7-1.6v-1.6l-12.7-1.6c-8.5-1.1-13.7-2-15.4-2.7a9.8 9.8 0 01-7-7c-.7-2.5-1.9-11.2-3.7-26.2 13.5-3.2 27.3-4.8 41.5-4.8a167.3 167.3 0 01129.2 59.7c16 18.7 27.3 39.9 34 63.4a150 150 0 00-78.7-22 165 165 0 00-47.3 7 298.3 298.3 0 00-42.5 18.2l-12.8 6a443.8 443.8 0 01-30.3 15c-12.4 5-24 8.5-35 10.6zm2.7-118l-2-19.9c11.8-6.6 24.4-11.7 37.8-15.2a208.4 208.4 0 01-3.2 24.7 9.6 9.6 0 01-6.8 6.8c-2.5.7-11 2-25.8 3.7zm-65 40c14.1-23 32.7-41.6 55.5-55.6-2.8 21.4-4.7 34-5.7 37.8-1.7 6.6-5.7 10.6-12 12-3.8 1.4-16.4 3.4-37.9 5.8zm101.4-.9a120.5 120.5 0 01-20-3.7c-6.3-1.4-10.3-5.4-12-12-.8-2.5-1.8-9-3.2-19.5a280 280 0 0125.2 3.7c3.5 1 5.8 3.3 6.8 6.8.7 2.4 1.8 10.7 3.2 24.7zm-66 79.9c-19.8 0-39.1-3.7-57.9-11.1 2.8-21.6 9.6-42 20.2-61 23.8 2.8 37.8 4.7 42 5.8 6.4 1.7 10.5 6 12.3 12.7 1.4 5 3.9 22.1 7.4 51.5-8.1 1.4-16.1 2-24 2zm18 50.7c-13.1 0-26.3-1.6-39.4-4.7a140 140 0 01-37.4-15.2c-.7-7-1-14-1-21 9.2 4.9 19.3 8.7 30.4 11.5a156.3 156.3 0 0090.1-4.2c10.3-3.5 24.9-10 43.7-19.4l13.4-6.8c16.3-7.7 29-13.1 37.8-16.3a162.2 162.2 0 0187-1.5c14.2 3.5 26.5 8.5 36.8 15.2.7 6.6 1 13.4 1 20.4a146.3 146.3 0 00-68.2-15.7 143 143 0 00-51.2 8.4 284.8 284.8 0 00-43.8 19.4l-13.3 6.3c-16 8-28.6 13.6-37.9 16.8a164 164 0 01-48 6.8zm241 41a572.6 572.6 0 01-42.9-5.8 16.4 16.4 0 01-12.1-12.2c-1.4-4.9-3.9-22.4-7.4-52.6 7.7-1 16-1.6 24.8-1.6s18.3 1 28.3 2.9c10 2 19.6 4.6 28.8 8.2-2.5 21.7-9 42-19.6 61zm-148.8 87.7a167.8 167.8 0 01-129.2-60c-16-18.7-27.3-40-34-63.7 11 6.7 22.7 12 35 16a154 154 0 0043.7 6.4 164 164 0 0047.8-7 221 221 0 0042.5-17.6l15.5-8a330 330 0 0129.2-14.9c11-4.6 22-8 33-10.1a633 633 0 01-7.5 52.8 16.5 16.5 0 01-12.2 12.2c-3.2.7-13 2.2-29.2 4.3l-23 2.7v3.2a623 623 0 0152.2 7.4 16.5 16.5 0 0112.2 12.3c1 4.3 3.2 18.7 6.4 43.2a170 170 0 01-82.4 20.8zm86.4-23.4c2.9-22.9 4.8-36.3 5.9-40.3A16.7 16.7 0 01300 397c4-1 17.4-3 40.3-5.9a169.6 169.6 0 01-58.5 58.5zM238 463.2l1.5-9.6c.8-6.7 1.3-10.7 1.6-12.2a6.8 6.8 0 015.3-5.3c1.4-.3 5.5-.8 12.2-1.5l9.5-1.6v-1l-9.5-1.7c-6.7-.7-10.8-1.2-12.2-1.6-2.8-.7-4.6-2.3-5.3-4.7-.7-2.5-1.7-10-3.1-22.3h-1.1l-1 9.6c-1.1 6.7-1.8 10.7-2.2 12.1-.7 2.9-2.3 4.6-4.7 5.3-2.5.7-10 1.8-22.3 3.2v1c3.2.4 6.4 1 9.5 1.7 6.8.7 10.8 1.2 12.2 1.5 2.8.8 4.6 2.5 5.3 5.3.4 1.5 1 5.5 2.1 12.2l1.1 9.6h1z" transform="translate(61 6)"/>
</svg>