<?xml version="1.0" encoding="UTF-8" standalone="no"?>
<!-- Created with Inkscape (http://www.inkscape.org/) -->
<svg xmlns:dc="http://purl.org/dc/elements/1.1/" xmlns:cc="http://creativecommons.org/ns#" xmlns:rdf="http://www.w3.org/1999/02/22-rdf-syntax-ns#" xmlns:svg="http://www.w3.org/2000/svg" xmlns="http://www.w3.org/2000/svg" xmlns:sodipodi="http://sodipodi.sourceforge.net/DTD/sodipodi-0.dtd" xmlns:inkscape="http://www.inkscape.org/namespaces/inkscape" id="svg2" version="1.1" inkscape:version="0.91 r13725" xml:space="preserve" width="533.75" height="581.25" viewBox="0 0 533.75 581.25" sodipodi:docname="logoradiom_carre_contour.svg"><metadata id="metadata8"><rdf:RDF><cc:Work rdf:about=""><dc:format>image/svg+xml</dc:format><dc:type rdf:resource="http://purl.org/dc/dcmitype/StillImage"/><dc:title/></cc:Work></rdf:RDF></metadata><defs id="defs6"><clipPath clipPathUnits="userSpaceOnUse" id="clipPath18"><path d="M 0,465 427,465 427,0 0,0 0,465 Z" id="path20" inkscape:connector-curvature="0"/></clipPath><clipPath clipPathUnits="userSpaceOnUse" id="clipPath28"><path d="M 0,465 427,465 427,0 0,0 0,465 Z" id="path30" inkscape:connector-curvature="0"/></clipPath><clipPath clipPathUnits="userSpaceOnUse" id="clipPath44"><path d="M 0,465 427,465 427,0 0,0 0,465 Z" id="path46" inkscape:connector-curvature="0"/></clipPath></defs><sodipodi:namedview pagecolor="#ffffff" bordercolor="#666666" borderopacity="1" objecttolerance="10" gridtolerance="10" guidetolerance="10" inkscape:pageopacity="0" inkscape:pageshadow="2" inkscape:window-width="1920" inkscape:window-height="1056" id="namedview4" showgrid="false" inkscape:zoom="0.40602151" inkscape:cx="266.875" inkscape:cy="290.625" inkscape:window-x="1600" inkscape:window-y="0" inkscape:window-maximized="1" inkscape:current-layer="g10"/><g id="g10" inkscape:groupmode="layer" inkscape:label="logoradiom_carre" transform="matrix(1.25,0,0,-1.25,0,581.25)"><g id="g14"><g id="g16" clip-path="url(#clipPath18)"><path d="m 472.5,-31.5 -526,0 0,539 526,0 0,-539 z" style="fill:none;stroke:#ffffff;stroke-width:1;stroke-linecap:butt;stroke-linejoin:miter;stroke-miterlimit:10;stroke-dasharray:none;stroke-opacity:1" id="path22" inkscape:connector-curvature="0"/></g></g><g id="g24"><g id="g26" clip-path="url(#clipPath28)"><g id="g32" transform="translate(99.2124,265.4946)"><path d="m 0,0 c -0.605,-0.151 -1.211,-1.211 -1.211,-1.211 l 0.756,-1.363 c 0,0 -0.15,-0.455 -0.605,-0.907 -0.455,-0.456 -0.455,-0.908 0.152,-1.212 0.604,-0.296 1.059,-0.903 0.604,-1.053 -0.452,-0.151 -0.907,-0.303 -1.211,0.15 -0.303,0.455 -0.756,1.963 -0.756,1.963 l -0.751,0.604 0.903,1.363 -0.449,1.06 0.6,1.666 C -1.968,1.06 0.604,0.152 0,0 Z m -8.313,-13.454 -4.682,0.598 c 0,0 0.449,0.91 0,0.91 -0.453,0 -2.119,2.27 -2.119,2.27 0,0 2.416,1.212 2.27,1.664 -0.151,0.455 -1.967,1.357 -1.967,1.357 l 3.02,1.514 1.357,-2.871 0.758,-1.211 c 0,0 -1.963,-1.059 -1.356,-1.211 0.598,-0.151 4.231,-1.816 4.231,-1.816 l -1.512,-1.204 z m -17.839,1.356 c -0.455,-0.455 -3.168,-1.66 -3.168,-1.66 0,0 -1.815,-0.755 -1.211,-1.507 0.607,-0.756 2.719,-1.212 2.567,-1.666 -0.151,-0.453 -1.508,-0.756 -1.508,-0.756 l -1.967,-0.304 c 0,0 -1.211,0.759 -1.815,0.607 -0.607,-0.152 -1.363,1.059 -0.91,0.907 0.455,-0.151 3.029,0.304 3.029,0.304 l -1.212,1.508 0.152,1.809 2.875,1.06 -0.455,2.573 0.752,1.211 3.325,-1.664 -0.454,-2.422 z m 83.289,-9.478 c -0.57,0.839 -1.881,1.024 -3.111,1.433 -0.825,0.267 -1.64,0.581 -2.455,0.895 0.372,-0.605 0.733,-1.165 0.733,-1.165 0,0 -0.152,-1.053 0.606,-1.356 0.75,-0.301 0.902,-1.06 0.902,-1.06 l -2.568,0 -1.815,1.963 -1.212,1.664 -0.25,1.508 c -2.108,1.02 -4.164,2.194 -6.142,3.534 l -1.316,-1.105 c 0,0 1.514,-1.515 1.968,-1.515 0.454,0 2.415,-1.059 2.415,-1.512 0,-0.455 -0.145,-1.362 -0.145,-1.362 l 3.016,-4.531 -3.319,3.168 c 0,0 -1.664,2.27 -1.816,2.725 -0.151,0.453 -3.785,2.723 -4.233,3.172 -0.454,0.455 0.751,1.818 0.751,1.818 l -0.564,1.564 c -1.125,0.904 -2.23,1.852 -3.29,2.871 -1.561,1.502 -2.993,3.086 -4.309,4.729 l -0.151,-0.706 -1.506,0.151 -0.304,-1.811 c 0,0 -2.264,0.152 -2.871,0.455 -0.604,0.303 -0.604,-1.356 -0.604,-1.356 l -0.455,-3.18 -1.666,1.362 c 0,0 -0.151,1.363 0.152,1.818 0.303,0.452 1.059,0.75 1.059,0.75 l -0.301,1.962 c 0,0 1.06,1.212 3.178,0.908 2.112,-0.303 -1.211,0.455 -1.211,0.455 0,0 0.152,3.027 0.152,3.482 l 0.746,1.152 c -1.805,3.009 -3.284,6.16 -4.403,9.421 -0.21,0.616 -0.197,1.012 -0.656,1.385 l 0.079,-0.326 -1.967,-1.055 c 0,0 1.363,-1.06 0.756,-1.205 -0.604,-0.152 -3.626,1.508 -4.079,1.205 -0.455,-0.302 0,-1.658 0,-1.658 0,0 -1.363,0.598 -2.121,0 -0.442,-0.363 -1.036,0.64 -1.455,1.525 L 6.333,8.57 9.374,5.739 8.161,2.112 c 0,0 -1.605,-8.464 -1.605,-9.669 0,-1.211 -4.844,6.452 -4.844,6.452 l 3.224,3.217 -3.504,5.043 -8.57,-2.475 0.792,-2.968 2.013,-8.866 -2.818,2.013 -2.019,4.838 -2.416,3.226 -0.186,0.419 -13.169,-3.797 1.211,-3.633 2.573,-2.719 -0.152,-1.657 1.812,-1.97 c 0,0 -0.152,-0.151 -0.91,-1.059 -0.75,-0.908 -1.811,-2.871 -1.811,-2.871 0,0 -1.361,-0.453 -0.756,-1.506 0.606,-1.061 1.211,-2.273 0.756,-2.273 -0.453,0 -3.33,2.726 -3.33,2.726 l 2.422,2.713 c 0,0 1.666,1.817 1.363,2.27 -0.303,0.455 -1.664,1.515 -1.664,1.515 0,0 1.059,1.665 0.604,2.112 -0.454,0.455 -2.573,1.818 -3.177,1.514 -0.607,-0.303 -1.357,0.904 -1.812,0.6 -0.28,-0.181 -0.845,1.63 -1.24,3.05 l -4.809,-1.386 0,-1.96 c 0,0 -1.363,0.296 -1.66,-0.152 -0.303,-0.455 -1.512,-0.152 -1.21,-1.211 0.303,-1.053 -0.302,-1.205 -0.302,-1.205 0,0 -1.659,2.264 -1.508,1.811 0.15,-0.455 -0.151,-1.811 0.301,-2.87 0.455,-1.06 0.455,-1.969 0.455,-1.969 l -2.877,1.666 c 0,0 -0.149,-1.816 0,-2.726 0.152,-0.908 -0.907,-0.301 -0.907,-1.059 0,-0.75 -1.664,-0.449 -1.664,-0.449 l -1.056,4.385 c 0,0 -0.151,-0.455 -0.755,-0.607 -0.607,-0.149 -2.115,0 -2.115,-0.604 0,-0.606 -2.119,-0.151 -2.119,-0.151 0,0 -1.211,-0.908 -1.211,-1.515 0,-0.605 -1.961,-0.301 -2.567,-0.151 -0.605,0.151 -3.324,0.303 -3.324,0.303 l -0.956,1.695 -5.03,-1.455 c 0.112,-0.31 0.281,-0.543 0.542,-0.543 0.907,0 1.059,-1.06 0.152,-1.506 -0.902,-0.456 -3.931,-1.515 -3.023,-2.568 0.91,-1.061 1.211,-1.362 0.152,-1.514 -1.06,-0.152 -5.139,1.059 -4.99,-0.303 0.152,-1.363 0.152,-3.027 0.759,-3.931 0.598,-0.907 -2.871,3.779 -3.175,4.234 l -0.302,0.453 c 0,0 -1.816,-2.119 -1.665,-2.572 0.152,-0.455 -0.606,0.301 -1.059,0.605 -0.455,0.303 -1.059,0.755 -1.514,0.755 -0.449,0 -2.561,0.911 -2.561,0 0,-0.907 -1.211,-1.664 -1.211,-1.664 0,0 -0.908,1.364 -1.363,1.968 -0.165,0.214 -0.465,0.512 -0.779,0.804 l -3.058,-0.886 c 0,0 -1.985,-0.36 -2.399,-1.432 -0.413,-1.07 -0.47,-1.687 -0.146,-2.747 7.966,-25.809 22.248,-50.057 43.071,-70.109 20.687,-19.91 45.261,-33.195 71.162,-40.206 1.241,-0.337 2.515,-0.815 3.36,-0.226 0.85,0.588 1.036,1.951 1.036,1.951 l 26.316,106.202 c 0,0 0.767,2.062 0.198,2.912 z" style="fill:none;stroke:#ffe000;stroke-width:3;stroke-linecap:butt;stroke-linejoin:round;stroke-miterlimit:10;stroke-dasharray:none;stroke-opacity:1" id="path34" inkscape:connector-curvature="0"/></g><g id="g36" transform="translate(103.8452,395.7256)"><path d="M 0,0 -1.845,0.276 -2.247,1.302 -0.849,2.497 -1.547,3.494 -0.179,3.472 1.032,1.921 0,0 Z m -4.947,-24.169 c -0.105,-0.466 0.185,-1.957 0.185,-1.957 l -1.327,2.756 -2.178,0.548 c 0,0 -1.623,1.059 -2.223,1.001 -0.605,-0.057 -1.235,0.182 -1.235,0.182 l 1.643,1.833 c 0,0 0.693,-0.844 1.337,-1.238 0.647,-0.392 3.821,-0.238 3.821,-0.238 0,0 0.977,0.853 0.931,-0.213 -0.047,-1.068 -0.849,-2.209 -0.954,-2.674 z m -28.772,27.438 -0.722,-0.376 1.735,-0.743 1.373,1.5 0.716,-2.664 -2.211,-0.67 4.861,0.015 -2.416,-1.752 -3.418,-0.786 0.594,-1.461 -0.805,-2.659 -1.303,-0.494 4.81,-4.626 0.802,1.437 -0.284,1.337 2.951,0.895 -1.317,-2.101 -0.168,-1.385 2.393,0.382 0.886,-1.281 2.001,1.258 -0.64,1.912 1.118,1.019 0.803,-2.049 0.612,-1.609 -1.507,-1.666 -2.563,-0.246 -0.466,-1.414 0.217,-1.149 2.445,-2.351 0.482,0.769 0.28,1.847 c 0,0 1.571,1.066 1.759,0.625 0.198,-0.436 0.766,-0.075 0.766,-0.075 l 1.306,2.251 c 0,0 0.209,0.931 1.024,0.404 0.809,-0.53 2.399,-1.286 1.525,-1.676 -0.872,-0.388 -2.713,-1.78 -2.713,-1.78 0,0 -0.838,-0.688 -0.634,-1.276 0.209,-0.589 1.095,-1.87 0.495,-1.927 -0.607,-0.059 -1.851,0.275 -1.795,-0.327 0.06,-0.6 0.27,-1.188 0.27,-1.188 l -0.419,0.098 2.353,-2.271 1.634,-0.213 1.997,-0.263 0.029,-1.822 -0.109,-1.114 6.03,-5.813 2.131,0.568 -1.862,3.617 -0.524,0.71 c 0,0 2.584,1.464 2.63,1.013 0.046,-0.45 0.938,-3.402 0.938,-3.402 l 1.293,-0.787 2.23,0.518 0.116,-1.201 1.089,-1.87 -0.558,-0.51 -2.052,-0.804 -0.33,-1.247 c 0,0 1.047,-1.417 0.581,-1.31 -0.209,0.046 -1.165,0.653 -2.153,1.312 l 4.145,-3.991 0.513,0.339 1.768,-1.045 0.28,-1.339 2.62,-0.356 0.756,1.592 1.911,0.64 c 0,0 1.7,-0.29 1.293,-0.785 -0.408,-0.495 -2.517,-2.218 -2.517,-2.218 0,0 -0.092,-0.615 0.508,-0.556 0.6,0.059 3.709,-0.705 3.709,-0.705 0,0 0.465,-1.626 -0.274,-1.848 -0.739,-0.225 -3.144,-0.457 -2.934,-1.044 0.007,-0.011 0.007,-0.019 0.007,-0.027 l 7.567,-7.29 2.224,0.217 1.175,0.414 -0.628,-2.945 0.133,-0.481 8.496,-8.176 c 0,0 2.601,-2.454 4.192,-2.146 1.583,0.307 2.102,0.636 3.329,1.681 10.316,8.812 23.446,12.7 36.259,11.638 2.62,-0.219 5.594,0.537 7.168,1.999 1.413,1.31 2.555,4.471 2.555,4.471 l 25.29,102.047 c 0,0 0.28,1.2 -0.116,1.925 -0.408,0.722 -1.181,0.903 -2.124,1.117 -37.831,8.623 -78.05,3.828 -113.046,-14.301 l 0.577,-3.659 -2.731,2.518 c -4.483,-2.41 -8.878,-5.027 -13.168,-7.876 l 5.017,-3.107 1.607,-3.627 -5.641,4.031 -1.612,-0.404 1.612,-2.82 -2.824,-0.807 c 0,0 -1.373,1.374 -3.214,3.219 -0.908,-0.655 -1.822,-1.31 -2.725,-1.985 l 1.91,-1.639 14.113,-6.046 -16.126,2.824 -2.511,2.843 c -1.594,-1.251 -3.178,-2.523 -4.733,-3.842 l 5.63,-3.033 -2.415,-2.014 1.606,-4.839 -6.044,3.627 2.818,-4.028 -5.634,2.82 -1.439,2.609 c -0.636,-0.589 -1.275,-1.162 -1.903,-1.762 -1.713,-1.63 -3.01,-2.532 -3.191,-4.826 -0.175,-2.297 3.765,-5.618 3.765,-5.618 l 8.623,-8.296 3.191,3.022" style="fill:none;stroke:#ffe000;stroke-width:3;stroke-linecap:butt;stroke-linejoin:round;stroke-miterlimit:10;stroke-dasharray:none;stroke-opacity:1" id="path38" inkscape:connector-curvature="0"/></g></g></g><g id="g40"><g id="g42" clip-path="url(#clipPath44)"><g id="g48" transform="translate(221,375)"><path d="M 0,0 C 0,0 -8,3 -8.87,10 L -4.435,15 0,10 0,0 Z m -165.848,3 -2.673,5 4.242,-2.5 -1.569,-2.5 z M 184.14,9.54 168.519,26 147.831,26 152.529,19.667 158.195,9 c 0,0 -10.922,10.395 -19.513,17 L 105.667,26 112.952,10 134,-15 c 0,0 -8,7 -22,18 -6.354,4.993 -12.086,14.31 -16.457,23 L 59.865,26 66.788,17.878 53.29,26 12.225,26 19.992,17.878 23.898,13.5 13.011,20 l -5.285,6 -194.49,0 c 4.05,-4.069 9.558,-9.618 8.264,-8.403 -2,1.879 -10,2.872 -10,2.872 l 4.5,-6.094 c 0,0 3.5,-5.625 0,-3.625 -2.877,1.644 -5.084,6.839 -13,14.191 L -197,8.33 -187.272,4 -180,-6.358 l 5.629,-5.642 2.827,-11.717 c 0,0 -7.727,12.024 -25.456,29.103 l 0,-51.46 11,-27.185 -11,14.72 0,-307.461 394,0 0,361.989 -12.86,13.551 z" style="fill:#ffe000;fill-opacity:1;fill-rule:nonzero;stroke:none" id="path50" inkscape:connector-curvature="0"/></g><g id="g52" transform="translate(392.7241,401)"><path d="m 0,0 7.276,-5 8,-3.122 10,-11.545 L 25.276,0 0,0 Z" style="fill:#ffe000;fill-opacity:1;fill-rule:nonzero;stroke:none" id="path54" inkscape:connector-curvature="0"/></g><g id="g56" transform="translate(294.1758,109.3574)"><path d="m 0,0 -1.437,-0.227 -1.057,-1.057 -0.451,0.601 -2.047,0.608 0.379,9.824 0.91,-2.268 0.152,0.909 0.905,-0.453 -0.383,-2.193 1.062,-0.151 0.383,-1.738 c 0,0 -1.142,-0.832 -1.142,-1.058 0,-0.228 0.304,-1.286 0.304,-1.286 L -1.967,0.83 0.151,1.586 0,0 Z m -3.703,19.273 1.129,-0.151 0.152,-1.589 -0.759,-0.905 -1.129,-2.116 -0.075,3.55 0.682,1.211 z M 4.233,38.846 C 2.422,40.207 1.36,41.115 1.36,41.115 l -6.604,-0.254 -0.046,-0.25 -0.305,-2.82 -2.846,-1.338 -0.375,-0.177 1.507,-1.409 -1.415,-0.505 -0.952,0.556 -3.778,-75.428 c 0,0 0.455,-1.965 1.81,-2.872 1.362,-0.908 9.829,-1.511 9.829,-1.511 0,0 1.664,0 2.269,1.511 0.603,1.511 1.21,2.569 1.21,2.569 l 3.773,77.392 c 0,0 0.608,0.908 -1.204,2.267" style="fill:#000000;fill-opacity:1;fill-rule:nonzero;stroke:none" id="path58" inkscape:connector-curvature="0"/></g><g id="g60" transform="translate(339.5732,86.1797)"><path d="m 0,0 c -0.303,-0.102 -3.631,-1.211 -3.631,-1.211 l -2.515,0.303 -0.408,-3.022 1.011,-2.115 -4.237,-0.103 -0.304,1.211 2.726,0.503 0.302,3.931 -1.613,0.099 -1.811,-1.007 -0.674,0.479 c -0.278,-0.922 -0.686,-2.171 -1.04,-2.796 -0.6,-1.059 -1.511,-2.572 -1.511,-2.572 0,0 -0.905,0.152 -2.27,0.759 -1.361,0.604 -0.905,3.172 -0.905,3.172 l 1.967,43.23 2.422,3.93 c 0,0 1.202,0.607 2.558,-0.754 1.365,-1.362 0.911,-2.418 0.911,-2.418 l -1.74,-39.796 1.188,-1.724 2.216,1.31 0.198,2.521 -1.003,-0.405 0.699,2.621 1.622,-1.409 1.209,-1.715 -0.607,-2.013 3.53,0.903 0.901,-1.709 c 0,0 1.113,-0.1 0.809,-0.203 m -0.257,57.489 c -4.224,3.176 -6.191,4.234 -6.191,4.234 0,0 -6.346,2.116 -9.83,0.452 -3.476,-1.661 -6.647,-2.418 -9.069,-6.652 -2.419,-4.23 -4.528,-9.973 -4.528,-9.973 l -1.214,-33.427 c 0.468,-0.22 0.805,-0.353 0.805,-0.284 0,0.226 1.513,3.479 1.513,3.479 0,0 0.976,2.117 0.976,2.495 0,0.375 1.593,1.435 1.593,1.435 0,0 0.227,-1.287 -0.076,-1.813 -0.303,-0.531 -0.527,-1.814 -0.375,-2.041 0.152,-0.228 2.115,-0.303 1.205,-0.303 -0.902,0 -1.357,-0.227 -1.504,-0.529 -0.152,-0.303 0.299,-1.133 0.602,-1.437 0.299,-0.301 -0.383,-0.301 -0.602,-0.604 -0.235,-0.303 -1.062,-0.756 -0.843,-1.133 0.236,-0.377 -0.067,-0.832 -0.146,-1.512 -0.073,-0.679 0.079,-2.193 -0.224,-2.193 -0.304,0 -1.134,0.68 -1.285,-0.15 -0.152,-0.831 -0.683,-2.042 -0.683,-2.569 0,-0.531 -0.825,0 -0.825,0 l -0.375,0.198 -0.51,-14.181 c 0,0 2.57,-7.559 6.344,-9.977 3.783,-2.418 11.289,-3.578 11.289,-3.578 0,0 6.831,-0.168 11.384,3.049 l -0.097,-0.024 -1.513,3.728 -2.421,0 -2.115,1.512 0.91,0.807 -1.112,1.71 -1.209,-0.4 -0.501,-1.31 -2.214,0.101 0.093,0.906 1.922,0.604 0.502,1.613 1.209,0.098 1.209,1.515 1.715,-1.613 0.399,-2.522 1.917,1.212 1.108,-3.225 0.101,4.032 0.101,1.712 1.007,1.915 1.21,-1.814 1.713,1.614 0.704,-2.621 1.436,-0.06 c 0.481,1.554 0.586,2.529 0.586,2.529 l 1.811,55.625 c 0,0 -1.66,6.198 -5.902,9.37" style="fill:#000000;fill-opacity:1;fill-rule:nonzero;stroke:none" id="path62" inkscape:connector-curvature="0"/></g><g id="g64" transform="translate(338.3096,75.3457)"><path d="m 0,0 0.455,-2.567 0.909,-1.059 c 0,0 0.75,0.454 1.509,1.361 0.754,0.907 0.754,1.814 0.754,1.814 0,0 -0.754,0.602 -1.361,0.602 C 1.669,0.151 0,0 0,0" style="fill:#000000;fill-opacity:1;fill-rule:nonzero;stroke:none" id="path66" inkscape:connector-curvature="0"/></g><g id="g68" transform="translate(258.2783,106.4854)"><path d="m 0,0 -2.194,1.286 -0.405,0.066 c -0.295,-10.302 -0.652,-19.794 -0.652,-19.794 0,0 -0.451,-1.509 -1.513,-2.419 -1.056,-0.904 -2.878,-1.36 -2.878,-1.36 l 0.895,24.276 -0.359,0.061 -1.289,-0.754 -1.735,0.451 -1.365,0.528 c 0,0 1.592,1.589 1.895,1.288 0.3,-0.301 1.286,-1.136 1.286,-1.136 0,0 1.061,1.136 0.672,1.437 -0.37,0.301 -2.488,1.436 -2.488,1.436 l 2.726,-0.301 -1.518,1.434 1.433,-0.228 c 0,0 0.395,-0.311 0.877,-0.671 l 0.792,21.758 c 0,0 2.421,0.91 3.322,-0.453 0.459,-0.686 0.262,-12.301 -0.055,-23.598 l 0.51,-0.966 c 0,0 1.808,1.738 1.892,1.966 0.067,0.227 0.673,-2.041 0.673,-2.041 L 1.281,0.983 -0.91,1.813 0,0 Z m -12.211,40.246 0.985,1.472 -0.227,0.872 1.399,-0.303 -0.565,0.905 1.735,-0.677 -0.568,1.357 1.322,-0.945 1.399,-0.038 1.057,0.228 -1.167,-1.813 -0.227,-0.945 -2.342,0.38 0.455,-1.476 -1.967,0.037 0.753,2.079 -2.042,-1.133 z m -0.919,-38.483 -0.703,-0.807 -2.818,0.706 -1.517,-0.403 -2.013,-1.71 3.622,3.726 0.41,1.108 0,1.813 1.511,1.21 1.71,-1.611 -1.313,-2.823 1.111,-1.209 z M 10.047,40.512 C 7.179,43.079 1.584,45.496 1.584,45.496 L -17.311,45.8 c 0,0 -1.21,-0.304 -2.112,-1.055 -0.909,-0.758 -1.06,-1.818 -1.06,-1.818 l -1.362,-28.531 2.945,-0.113 0.455,1.287 -1.06,0.982 0.832,0.68 -1.285,1.208 0.981,1.287 1.214,-0.681 0,-1.359 0.681,1.13 0.372,-1.964 c 0.231,0.379 0.535,-2.19 0.535,-2.19 l 0.91,-0.228 c 0,0 0.152,2.266 0.152,2.494 0,0.227 0.901,-2.193 0.901,-2.193 l 1.812,-0.529 0.686,1.212 -0.386,-3.703 -0.453,-2.041 -1.508,2.795 -1.204,-1.889 -0.538,2.267 -0.907,-0.453 0.535,-1.663 0.221,-1.512 -1.581,0.38 -1.669,0.075 0.456,2.341 -1.059,0.379 -1.213,-0.304 -0.37,-1.134 -0.63,-0.214 -2.248,-47.171 2.575,-2.724 21.159,-0.451 c 0,0 4.839,1.513 7.713,4.684 2.868,3.177 4.384,7.41 4.384,7.41 l 1.967,62.275 c 0,0 -0.607,3.174 -3.483,5.746" style="fill:#000000;fill-opacity:1;fill-rule:nonzero;stroke:none" id="path70" inkscape:connector-curvature="0"/></g><g id="g72" transform="translate(178.2368,127.4961)"><path d="m 0,0 -0.304,-2.722 -2.422,-0.905 0.712,-0.907 -1.31,-2.117 -1.31,-1.209 -1.514,0.606 c 0,0 -0.908,2.014 -0.301,2.116 0.602,0.1 1.709,0.1 1.709,0.1 l -1.507,2.819 2.22,1.515 -0.304,2.214 0.199,2.521 0.105,0.402 L -1.512,2.117 -1.71,-0.102 0,0 Z m -7.254,-16.021 c 0,0 -0.758,-1.815 -0.606,-2.269 0.152,-0.455 0.152,-1.208 0.152,-1.208 l -2.422,-0.606 c 0,0 -0.909,-0.606 -0.757,0 0.15,0.606 1.363,3.172 1.363,3.172 l 0.454,-0.602 -0.606,3.629 -0.759,2.114 2.272,-1.211 1.516,-1.358 -0.607,-1.661 z m -3.93,-1.06 c 0,-0.602 -0.607,-1.058 -0.607,-1.058 l 0.607,-0.756 -1.967,0 -1.508,0.302 1.66,2.419 0.756,2.269 c 0,0 1.204,2.418 1.204,1.813 0,-0.606 -0.145,-4.385 -0.145,-4.989 m -4.233,15.57 c -0.908,-0.605 -3.631,0.152 -3.631,0.152 l 0.301,12.847 c 0,0 0.444,1.136 1.515,0.906 2.118,-0.455 3.781,-2.268 3.781,-2.268 l -0.3,-9.37 c 0,0 -0.756,-1.662 -1.666,-2.267 m 4.68,31.289 -19.339,0.302 c 0,0 -0.164,-0.051 -0.383,-0.142 l 1.641,-1.219 -0.104,-2.721 -2.216,0.204 2.924,-1.514 -2.216,-2.117 -0.91,-2.116 2.22,-1.409 -2.523,-0.807 -1.31,-1.915 -0.657,0.206 -3.273,-68.074 c 0,0 0.455,-1.058 1.66,-2.268 1.213,-1.209 1.514,-1.51 1.514,-1.51 l 9.071,-0.152 c 0,0 0.607,0.453 1.664,1.51 1.061,1.06 1.061,1.965 1.061,1.965 l 1.054,31.44 2.263,0 1.211,-32.345 c 0,0 0.608,-1.364 1.513,-2.269 0.91,-0.908 1.668,-1.059 1.668,-1.059 l 9.366,-0.152 c 0,0 0.605,0.303 1.514,1.211 0.902,0.905 0.902,1.664 0.902,1.664 l -0.624,32.772 -1.036,-0.577 c 0,0 -1.66,-0.299 -1.811,-0.907 -0.151,-0.603 -1.058,-1.661 -1.058,-1.661 l -2.119,1.058 c 0,0 -0.151,0.756 0.453,1.362 0.605,0.603 2.271,2.265 2.271,2.265 l 0.908,0.907 c 0,0 2.114,-0.303 1.962,0.151 -0.151,0.456 0.304,2.269 0.304,2.269 l 0.04,-0.023 -0.04,1.988 c 0,0 1.811,1.662 2.868,3.778 1.062,2.115 1.514,3.929 1.514,3.929 l 0.304,23.733 c -0.048,0.149 -0.756,3.931 -3.936,7.405 -4.036,4.423 -8.315,4.838 -8.315,4.838" style="fill:#000000;fill-opacity:1;fill-rule:nonzero;stroke:none" id="path74" inkscape:connector-curvature="0"/></g><g id="g76" transform="translate(218.8984,115.5537)"><path d="m 0,0 -0.759,-0.301 -1.056,1.662 c 0,0 -0.153,0.303 -0.153,1.059 0,0.755 0.453,2.871 0.453,2.871 0,0 0.756,-0.152 1.059,-1.965 L -0.152,1.513 0.907,0.455 0,0 Z m -9.524,-5.139 -1.062,1.211 0,3.476 1.062,-2.721 1.057,-1.816 -1.057,-0.15 z m -3.775,-11.487 1.508,12.092 0.455,-12.243 -1.963,0.151 z m -1.209,7.406 -0.455,-1.51 -1.514,-0.906 -0.303,1.965 1.514,0.903 0.758,2.874 0,-3.326 z M 1.967,34.766 c 0,0 -0.455,1.512 -1.362,2.421 -0.91,0.905 -2.725,1.509 -2.725,1.509 l -15.72,0.605 c 0,0 -0.758,0 -1.659,-1.209 -0.908,-1.209 -1.508,-1.965 -1.508,-1.965 0,0 -10.283,-78.751 -9.677,-79.81 0.608,-1.058 2.419,-1.813 2.419,-1.813 l 10.425,-0.456 c 0,0 0.91,0.607 1.664,1.511 0.758,0.91 1.062,1.817 1.062,1.817 l 0.455,8.463 c 0,0 1.208,-0.302 2.262,-0.15 1.061,0.15 0.455,-1.512 0.455,-1.512 l 0.302,-7.86 c 0,0 0.608,-0.456 1.509,-1.965 0.907,-1.51 1.967,-1.51 1.967,-1.51 l 9.676,0.149 c 0,0 0.606,0 1.818,1.209 1.204,1.211 1.055,1.661 1.055,1.661 L 1.967,34.766 Z" style="fill:#000000;fill-opacity:1;fill-rule:nonzero;stroke:none" id="path78" inkscape:connector-curvature="0"/></g><g id="g80" transform="translate(360.2764,131.0234)"><path d="m 0,0 4.992,0.051 0.248,-1.513 1.77,0.655 0.501,-1.006 0.855,1.158 0.405,2.772 c 0,0 -1.563,0.905 -1.61,0.554 C 7.102,2.317 6.656,2.016 6.656,1.712 6.656,1.409 5.544,2.671 5.544,2.671 l 0.051,1.562 c 0,0 0.759,0.4 1.263,0.656 0.501,0.25 1.205,0.601 1.205,0.956 0,0.353 -0.203,1.611 -0.295,1.864 C 7.663,7.961 6.302,8.364 6.302,8.364 l -0.859,1.51 -1.159,0.303 -0.349,1.965 c 0,0 0.851,0.403 0.851,0.605 0,0.201 1.166,-0.2 1.263,-0.704 0.101,-0.506 0.456,-1.312 0.456,-1.312 0,0 1.158,-0.354 1.263,-0.051 0.092,0.304 0.198,1.414 0.75,0.758 0.551,-0.654 1.006,-0.654 1.213,-1.46 0.203,-0.807 -0.055,-1.364 0.4,-1.311 0.456,0.048 1.513,0.552 1.513,0.552 0,0 1.006,-0.807 0.859,-0.855 C 12.351,8.315 11.744,7.709 11.593,7.558 11.44,7.405 11.44,6.498 11.238,6.498 c -0.197,0 -1.81,0.053 -1.81,0.053 L 8.974,4.332 c 0,0 -1.063,0.152 -1.114,-0.099 C 7.814,3.981 9.276,3.374 9.478,3.427 9.676,3.476 10.89,2.62 10.784,2.469 c -0.1,-0.152 1.011,0.655 1.011,0.655 0,0 0.455,-1.108 0.501,-1.26 0.055,-0.152 -0.097,3.225 -0.097,3.225 l 1.105,1.208 c 0,0 -0.506,0.957 -0.355,1.06 0.152,0.099 1.264,0.152 1.512,0.25 0.257,0.102 -0.399,1.715 -0.552,1.867 -0.151,0.149 2.372,0.351 2.372,0.351 0,0 0.703,0.153 0.951,0.352 0.257,0.2 -0.045,1.36 0.106,1.614 0.151,0.252 0.85,0.048 1.563,-0.305 0.703,-0.35 1.457,-0.854 1.457,-0.302 0,0.556 -0.049,1.414 -0.096,1.714 -0.017,0.084 -0.042,0.227 -0.059,0.387 -0.051,0.039 -0.093,0.081 -0.143,0.117 -1.357,0.906 -2.266,1.816 -2.266,1.816 L 1.77,15.366 c 0,0 -1.209,0.153 -2.575,-1.058 -1.359,-1.207 -1.359,-2.265 -1.359,-2.265 L -2.817,-2.173 -0.396,-2.018 0,0 Z" style="fill:#000000;fill-opacity:1;fill-rule:nonzero;stroke:none" id="path82" inkscape:connector-curvature="0"/></g><g id="g84" transform="translate(396.4102,96.7617)"><path d="m 0,0 c 0,0.303 0.8,1.711 0.8,1.711 l 0.501,1.411 c 0,0 0.712,-1.51 0.606,-2.015 -0.1,-0.503 -0.606,-1.611 -0.606,-1.611 0,0 2.924,0.905 3.332,1.513 0.4,0.603 -0.303,-0.808 -0.606,-1.112 -0.303,-0.302 0.198,-1.006 0.198,-1.006 0,0 -0.198,-0.908 -0.902,-0.807 -0.703,0.102 -3.126,0.403 -3.126,0.403 0,0 -0.804,0 -0.708,-0.403 0.103,-0.403 0.406,-1.41 0.406,-1.41 l -1.108,1.611 -1.513,0.303 c -0.303,0 -1.713,-0.101 -1.713,-0.101 l -0.098,2.018 c 0,0 1.711,0.805 1.811,0.4 0.106,-0.4 0.708,-1.51 0.708,-1.51 0,0 2.018,0.303 2.018,0.605 m -5.446,20.054 -0.506,-0.204 0.304,1.413 1.111,1.411 0.202,0.806 0.906,-0.102 -0.101,-1.511 -0.303,-0.708 1.107,-0.401 -1.411,-0.405 -0.8,-0.802 -0.509,0.503 z m 15.719,-26.099 0.911,0.301 -0.206,-1.313 1.212,0.607 -0.105,-1.11 -0.299,-0.503 -0.808,-0.402 c 0,0 -0.603,-0.908 -0.705,0.099 -0.096,1.011 -0.096,1.813 -0.096,1.813 l -0.304,-1.813 -1.107,0.204 1.507,2.117 z m -18.239,-16.629 0.106,-0.708 -1.214,-1.712 -2.013,1.614 1.816,-2.721 c 0,0 -2.12,-1.209 -2.018,-1.513 0.097,-0.301 0.399,-1.914 0.399,-1.914 l -1.208,5.743 -1.715,0.808 0.207,0.707 c -0.265,0.261 -1.836,0.297 -2.232,0.299 -0.105,-0.32 -0.185,-0.603 -0.185,-0.703 0,-0.084 -0.153,0.136 -0.384,0.52 -0.244,-0.069 -0.535,-0.114 -0.729,-0.017 -0.4,0.2 -1.204,2.217 -1.204,2.217 0,0 -1.015,3.729 -0.305,2.117 0.506,-1.165 1.644,-3.317 2.238,-4.317 0.264,0.078 0.48,0.183 0.48,0.183 l 0.089,0 c 0.21,0.626 0.518,1.412 0.518,1.412 l 1.108,-0.103 1.512,-0.601 0.703,1.209 1.011,0.604 0.808,-1.715 0.998,-0.905 0.83,0.352 -0.921,2.068 1.507,-1.817 -0.586,-0.251 0.384,-0.856 z m -11.739,21.161 1.011,0.505 0.506,1.107 c 0,0 -0.056,0.302 -0.207,0.302 l -0.754,0 0,2.169 -0.152,2.822 0.961,-0.053 0.606,0.454 -0.059,1.159 -0.602,0 -0.401,0.654 -1.815,0.456 0.151,2.265 0,1.361 2.423,-1.512 -0.712,1.413 1.015,-1.059 0.953,1.361 0.1,-1.764 0.202,-0.807 0.855,-0.403 c 0,0 0.708,1.006 0.708,0.859 0,-0.151 0.151,-1.414 0.151,-1.414 0,0 0.755,-0.151 0.907,-0.1 0.151,0.052 1.411,-0.251 1.411,-0.251 0,0 -0.758,-0.707 -0.758,-0.855 0,-0.151 0.505,-1.111 0.505,-1.111 l -1.816,-0.203 0.703,-1.61 -0.045,-1.11 -1.513,1.009 c 0,0 -0.253,-0.553 -0.101,-0.654 0.152,-0.104 -0.755,0.151 -0.755,0 0,-0.153 -0.508,-0.857 -0.508,-1.01 0,-0.149 -0.401,-0.201 -0.401,-0.404 0,-0.2 0.455,-2.166 0.455,-2.166 l -0.506,-1.964 -1.609,-0.152 -0.909,0.706 z m -9.297,-23.454 c -0.227,0.152 -1.659,-0.455 -1.892,-0.531 -0.218,-0.075 -0.672,-0.223 -0.605,0.303 0.084,0.531 1.667,1.89 1.667,1.89 l 0.526,0.606 0.228,-1.816 c 0,0 0.304,-0.604 0.076,-0.452 m -3.854,1.965 -0.982,-0.227 0.152,-0.379 c -0.375,0 -2.645,-0.299 -2.645,-0.299 l 0.526,2.567 c 0,0 -0.147,0.378 -0.602,0.378 -0.455,0 -1.285,0.076 -1.285,0.076 l 0.228,1.966 c 0,0 0.602,1.36 0.602,0.756 0,-0.607 0.606,-2.041 0.606,-2.041 0,0 0.531,3.022 0.531,2.268 0,-0.758 0.455,-2.798 0.455,-2.798 0,0 0.372,-0.605 0.674,-0.681 0.303,-0.075 1.285,-0.603 1.513,-0.526 0.227,0.075 1.061,1.283 1.061,1.283 l 0.371,-1.132 -1.205,-1.211 z m 45.952,36.908 0.606,0.807 0,2.82 c 0,0 0.527,-0.717 1.016,-1.407 l 1.402,28.062 c 0,0 0,0.906 -0.901,2.117 -0.909,1.209 -1.821,1.209 -1.821,1.209 l -16.169,0.604 c 0,0 -1.214,0.152 -2.272,-0.756 -1.061,-0.908 -1.517,-2.723 -1.517,-2.723 l -5.736,-26.603 -2.3,25.731 -0.724,0.169 c 0,0 -2.473,0.351 -2.62,-0.051 -0.152,-0.405 -0.552,-0.452 -0.354,-1.158 0.202,-0.706 0.151,-2.218 0.151,-2.218 l -2.165,-0.757 c 0,0 -1.309,-0.602 -1.365,-1.359 -0.046,-0.757 -0.501,-1.715 -0.501,-1.715 0,0 -0.801,-0.552 -0.601,-0.856 0.197,-0.302 1.254,-1.109 1.254,-1.109 l 0.304,-1.71 c 0,0 -0.048,-0.655 -0.25,-0.807 -0.206,-0.151 -0.707,-0.252 -1.006,-0.504 -0.302,-0.255 -0.758,0.605 -0.758,0.605 0,0 -0.552,1.813 -0.607,2.063 -0.046,0.254 -0.046,1.06 -0.248,0.958 -0.206,-0.102 -1.213,-2.014 -1.213,-2.014 0,0 -1.205,-1.158 -1.053,-1.511 0.152,-0.356 0.606,-1.259 0.606,-1.41 0,-0.153 -1.617,-0.608 -1.664,-0.759 -0.055,-0.149 -1.668,0.505 -1.668,0.505 l -0.501,-0.704 -0.451,2.065 -2.674,0.202 -0.354,-0.655 -1.213,0.605 c 0,0 -0.801,1.361 -0.75,1.21 0.055,-0.153 -0.552,-0.908 -0.505,-1.21 0.049,-0.303 -1.108,-1.161 -1.108,-1.161 l -2.405,-0.257 -2.886,-62.521 c 0,0 0.017,-0.018 0.029,-0.029 l 0.729,-0.474 c 0,0 1.007,-1.161 1.26,-0.606 0.248,0.554 1.508,2.82 1.305,2.116 -0.198,-0.706 -0.501,-2.419 -0.455,-2.571 0.059,-0.15 1.015,-0.805 1.015,-0.605 0,0.204 1.56,0.455 1.56,0.455 l -0.456,-1.209 0.527,-0.404 7.788,0 c 0,0 0.607,0 1.213,0.756 0.602,0.759 0.602,1.813 0.602,1.813 l 1.812,30.08 c 0,0 2.267,-29.776 2.721,-31.134 0.451,-1.364 3.025,-2.421 3.025,-2.421 0,0 7.859,-1.21 9.377,0.456 1.507,1.661 1.958,3.171 1.958,3.171 l 6.2,30.836 -1.348,-28.382 c 0.237,-1.009 0.443,-2.403 0.443,-2.403 l 0.703,-0.807 c 0,0 1.711,4.335 1.711,3.125 0,-1.21 -0.305,-3.528 -0.305,-3.83 0,-0.302 0.406,-1.208 0.406,-1.208 0,0 1.618,0 2.118,0.401 0.502,0.406 1.104,-0.401 1.007,-0.805 -0.102,-0.403 -0.704,-0.806 -0.303,-0.906 0.4,-0.102 2.418,-0.404 2.418,-0.404 l -0.502,-0.705 c 0,0 -0.042,-0.056 -0.093,-0.138 l 4.478,-0.366 1.96,1.511 c 1.966,1.511 1.212,2.42 1.212,2.42 l 1.559,31.261 -0.653,0.278 c 0,0 0.1,1.008 0.1,1.512 0,0.505 -0.596,0.908 -0.596,0.908 0,0 -0.106,-1.813 -0.41,-2.218 -0.303,-0.402 -0.704,0.1 -1.006,0.806 -0.303,0.705 -0.708,2.418 -0.708,2.418 0,0 -0.405,-2.116 -0.603,-2.72 -0.198,-0.603 -2.118,-0.603 -2.62,-0.302 -0.501,0.302 0.4,0.604 0.502,1.209 0.104,0.607 0.707,1.511 0.707,1.511 0,0 1.007,0.505 1.007,0.91 0,0.399 1.204,0.603 1.811,0.603 0.607,0 0.206,1.51 0,1.814 C 11.082,3.728 10.576,4.232 10.177,3.93 9.771,3.628 8.058,2.821 8.058,2.821 c 0,0 0.905,1.007 1.21,1.31 0.302,0.302 0.104,1.412 0.407,1.31 0.304,-0.098 2.317,-0.606 2.41,-0.303 0.105,0.303 0.606,1.514 0.909,1.514 0.299,0 -0.394,1.106 -0.394,1.106 0,0 0.394,2.621 0.693,2.823 0.305,0.201 -0.998,-0.405 -1.301,-0.605 -0.303,-0.2 -3.029,-0.2 -3.029,-0.2 l 0.409,1.106 -1.214,1.107 -1.511,2.22 c 0,0 -1.909,-0.506 -2.014,-0.204 -0.106,0.304 -0.408,1.211 -0.408,1.211 0,0 -1.307,-0.807 -1.508,-1.11 -0.202,-0.303 -2.014,-1.107 -2.414,-1.107 -0.408,0 -0.408,1.006 -0.408,1.006 l 2.118,0.908 c 0,0 1.815,1.31 2.014,0.907 0.198,-0.404 1.212,-1.31 1.212,-1.31 l 0.801,1.713 c 0,0 1.411,-0.704 1.517,-1.007 0.096,-0.303 2.316,-3.528 2.316,-3.528 0,0 -0.198,1.412 -0.303,1.714 -0.101,0.301 1.916,1.814 2.216,1.412 0.299,-0.405 -0.203,-2.218 -0.203,-2.218 l 1.513,1.31 z" style="fill:#000000;fill-opacity:1;fill-rule:nonzero;stroke:none" id="path86" inkscape:connector-curvature="0"/></g><g id="g88" transform="translate(161.2061,33.6826)"><path d="M 0,0 C -0.301,-0.106 -0.905,-0.509 -0.905,-0.509 L -1.209,0.901 0,1 C 0,1 0.304,0.092 0,0 m -1.524,-3.914 -0.262,1.06 -0.042,0.907 0.91,-0.033 0.64,-0.759 0.076,-0.907 -1.322,-0.268 z M -2.62,1.105 -2.921,2.921 -1.611,3.118 -2.215,2.111 -2.62,1.105 Z m 3.431,1.816 -0.507,-0.81 -0.401,0.704 0.401,0.911 0.705,1.71 0.198,14.715 -0.501,0.805 -4.135,-0.202 0.409,-1.108 1.71,-0.403 0.91,-0.708 -1.013,-1.006 -1.304,0.707 -1.112,-1.211 0.4,-23.681 0.809,-0.703 3.524,0.197 0.406,0.808 0.101,7.255 -0.402,1.112 -0.198,0.908 z" style="fill:#000000;fill-opacity:1;fill-rule:nonzero;stroke:none" id="path90" inkscape:connector-curvature="0"/></g><g id="g92" transform="translate(329.165,51.3877)"><path d="m 0,0 -3.621,-0.075 -0.607,-0.908 c 0,0 0,-21.538 0.153,-21.84 0.151,-0.304 0.826,-0.985 0.826,-0.985 0,0 3.177,-0.151 3.553,0.151 0.379,0.303 0.605,0.909 0.605,0.909 0,0 -0.151,21.538 -0.226,21.765 C 0.606,-0.756 0,0 0,0" style="fill:#000000;fill-opacity:1;fill-rule:nonzero;stroke:none" id="path94" inkscape:connector-curvature="0"/></g><g id="g96" transform="translate(328.8623,52.8232)"><path d="m 0,0 c 0.383,-0.074 0.758,0.605 0.758,0.605 0,0 0.075,1.663 0,1.89 -0.071,0.228 -0.826,0.68 -0.826,0.68 0,0 -2.878,0.228 -3.107,-0.15 C -3.397,2.646 -4.308,2.04 -4.308,2.04 c 0,0 -0.222,-1.055 0,-1.435 0.232,-0.378 0.911,-0.679 0.911,-0.679 0,0 3.025,0.149 3.397,0.074" style="fill:#000000;fill-opacity:1;fill-rule:nonzero;stroke:none" id="path98" inkscape:connector-curvature="0"/></g><g id="g100" transform="translate(368.6221,56.6768)"><path d="m 0,0 -4.234,-1.358 -0.076,-2.722 -1.664,-0.075 0.077,-4.31 1.208,0 0.228,-16.628 c 0,0 -0.076,-0.907 0.598,-2.036 0.686,-1.136 5.371,-0.607 5.371,-0.607 l -0.071,3.855 c 0,0 -0.384,0.227 -0.759,0.454 -0.384,0.228 -0.451,1.433 -0.451,1.433 l 0,13.529 1.281,0.075 0,4.082 -1.584,0.077 L 0,0 Z" style="fill:#000000;fill-opacity:1;fill-rule:nonzero;stroke:none" id="path102" inkscape:connector-curvature="0"/></g><g id="g104" transform="translate(173.5503,31.0625)"><path d="m 0,0 -0.528,0.297 0,-0.076 c 0,0 0.376,-0.607 -0.376,-0.677 -0.755,-0.082 -1.512,0.222 -1.512,0.222 l -0.151,5.52 c 0,0 -0.304,0.15 0.37,0.907 0.689,0.757 1.213,0.674 1.213,0.674 l 0.338,-4.907 0.72,0 L 1.06,2.643 1.136,1.128 1.363,0.372 0,0 Z m 2.416,17.907 c -0.75,1.06 -1.887,1.36 -1.887,1.36 L -3.174,19.19 c 0,0 -0.756,0.379 -2.118,-1.209 -1.357,-1.588 -1.584,-3.019 -1.584,-3.019 l -0.152,-2.341 c 0,0 3.929,0.069 3.929,-0.151 l 0.456,0.901 c 0,0 0.378,0.832 1.205,0.683 0.837,-0.152 0.534,-0.986 0.534,-0.986 L -1.438,11.56 c 0,0 -1.433,-0.384 -2.719,-1.361 C -5.444,9.214 -7.028,7.777 -7.028,7.777 l -0.076,-9.899 c 0,0 0.303,-0.831 0.903,-1.967 0.605,-1.128 1.666,-0.907 1.666,-0.907 l 6.578,-0.069 c 0,0 0.677,-0.082 1.211,0.372 0.524,0.453 0.75,1.588 0.75,1.588 L 3.627,16.021 c 0,0 -0.453,0.83 -1.211,1.886" style="fill:#000000;fill-opacity:1;fill-rule:nonzero;stroke:none" id="path106" inkscape:connector-curvature="0"/></g><g id="g108" transform="translate(202.0186,48.6924)"><path d="m 0,0 c -0.505,1.011 -1.507,1.513 -1.507,1.513 l -8.069,-0.302 -0.697,-0.604 0.235,-17.837 0.009,-0.028 2.043,1.664 0.832,-0.68 -0.075,-0.984 c 0,0 -0.53,-0.221 -0.833,-0.303 -0.303,-0.069 -0.303,-1.363 -0.303,-1.363 l -1.653,0.257 0.046,-2.899 0.803,-0.909 3.728,0.407 0.406,0.606 -0.605,18.537 c 0,0 0.803,0.105 1.407,-0.304 0.607,-0.395 0.198,-0.605 0.198,-0.605 0,0 -0.198,-4.936 0,-5.233 0.211,-0.303 0.606,-0.507 0.606,-0.507 0,0 2.924,-0.302 3.529,0 0.604,0.303 0.507,1.009 0.507,1.009 0,0 -0.101,7.558 -0.607,8.565" style="fill:#000000;fill-opacity:1;fill-rule:nonzero;stroke:none" id="path110" inkscape:connector-curvature="0"/></g><g id="g112" transform="translate(212.7734,30.8281)"><path d="m 0,0 c -0.752,-0.069 -1.508,0.234 -1.508,0.234 l -0.151,5.512 c 0,0 -0.305,0.151 0.378,0.909 0.68,0.75 1.21,0.681 1.21,0.681 L 0.383,0.687 C 0.383,0.687 0.756,0.082 0,0 m 3.33,18.367 c -0.756,1.058 -1.886,1.362 -1.886,1.362 l -3.711,-0.077 c 0,0 -0.75,0.379 -2.112,-1.208 -1.363,-1.587 -1.59,-3.027 -1.59,-3.027 L -6.12,13.076 c 0,0 3.93,0.076 3.93,-0.151 l 0.455,0.908 c 0,0 0.379,0.832 1.211,0.681 C 0.303,14.364 0,13.53 0,13.53 l -0.524,-1.512 c 0,0 -1.44,-0.372 -2.724,-1.359 C -4.531,9.675 -6.12,8.243 -6.12,8.243 l -0.077,-9.903 0.986,1.287 -0.152,-1.815 0.607,0.227 0.295,-1.363 0.455,0.378 -0.459,-1.479 c 0.446,-0.185 0.842,-0.105 0.842,-0.105 l 6.575,-0.08 c 0,0 0.679,-0.07 1.205,0.382 0.535,0.456 0.754,1.584 0.754,1.584 l -0.37,19.12 c 0,0 -0.456,0.832 -1.211,1.891" style="fill:#000000;fill-opacity:1;fill-rule:nonzero;stroke:none" id="path114" inkscape:connector-curvature="0"/></g><g id="g116" transform="translate(227.4092,31.9639)"><path d="m 0,0 -1.657,0.053 c 0,0 -0.334,0.006 -0.66,0.348 -0.292,0.314 -0.301,0.71 -0.301,0.71 l 0.103,11.993 c 0,0 0.128,0.577 0.28,0.676 0.291,0.199 0.523,0.281 0.523,0.281 L 0,14.008 0,0 Z m 4.087,22.725 c 0,0 -0.055,0.455 -0.356,0.655 -0.296,0.202 -0.449,0.353 -0.449,0.353 0,0 -3.177,-0.102 -3.481,-0.302 C -0.5,23.229 -0.5,22.522 -0.5,22.522 l 0,-3.829 -3.626,-0.048 c 0,0 -0.511,0.048 -1.261,-0.706 C -6.142,17.183 -6.649,15.37 -6.649,15.37 L -6.695,-1.763 c 0,0 -0.024,-1.004 0.627,-2.016 0.189,-0.29 0.433,-0.511 0.677,-0.694 l -0.328,0.77 -0.218,1.508 1.431,-2.113 0.905,-0.152 c 0,0 -0.3,0.908 -0.83,2.265 -0.529,1.363 1.059,-0.152 1.059,-0.152 l 1.206,-1.281 0.479,-1.432 4.617,-0.022 c 0,0 0.509,-0.082 1.052,0.675 0.455,0.628 0.41,1.037 0.41,1.037 L 4.087,22.725 Z" style="fill:#000000;fill-opacity:1;fill-rule:nonzero;stroke:none" id="path118" inkscape:connector-curvature="0"/></g><g id="g120" transform="translate(251.1973,32.0625)"><path d="m 0,0 c 0,0 -0.454,-1.152 -1.061,-1.106 -0.603,0.052 -0.704,1.159 -0.704,1.159 l -0.05,13.348 c 0,0 0.456,0.712 1.006,0.66 C -0.257,14.008 0,13.203 0,13.203 L 0,0 Z m 3.749,2.016 c 0,-0.304 0.834,-3.168 0.834,-3.168 L 4.528,14.311 c 0,0 -0.75,2.119 -2.059,3.53 -1.315,1.409 -3.126,1.46 -3.828,1.46 -0.708,0 -2.019,-0.555 -3.122,-1.46 -1.112,-0.908 -1.818,-2.82 -1.818,-2.82 L -6.204,1.444 c 0.244,0.147 0.429,0.222 0.429,0.117 0,-0.297 0.08,-1.66 0.08,-1.66 l 0.376,0.682 0.08,-1.735 0.302,-0.234 0.222,-1.356 c 0,0 0.234,-0.756 0.301,-0.453 0.084,0.3 0.385,1.284 0.455,0.68 0.082,-0.607 0.455,-1.742 0.455,-1.742 l -0.047,-0.344 c 1.326,-0.488 3.045,-0.428 3.045,-0.428 0,0 1.151,0.01 2.288,0.465 -0.437,0.495 -0.901,0.99 -0.901,0.99 l 1.209,0.756 c 0,0 -0.076,0.827 -0.076,1.059 0,0.221 0.606,-0.152 0.606,-0.152 l 0.455,0.152 c 0,0 -1.061,2.415 -0.834,2.114 C 2.469,0.053 3.83,-1.456 3.83,-1.456 l -0.232,1.66 c 0,0 0.151,2.112 0.151,1.812" style="fill:#000000;fill-opacity:1;fill-rule:nonzero;stroke:none" id="path122" inkscape:connector-curvature="0"/></g><g id="g124" transform="translate(240.7432,31.2832)"><path d="m 0,0 -0.228,1.815 c 0,0 -0.682,-2.119 -0.834,-2.492 C -1.213,-1.06 -1.213,0 -1.213,0 c 0,0 0,1.588 0.151,2.571 0.152,0.98 0,0 -0.151,-0.453 C -1.365,1.664 -1.888,1.664 -1.888,1.664 l -0.233,0.676 0.756,0.756 c 0,0 0.513,0.56 0.903,0.758 C -0.927,3.766 -1.818,3.633 -1.818,3.633 l 0.377,0.901 1.52,0.96 c -0.052,5.927 -0.117,12.598 -0.155,12.722 -0.076,0.227 -0.683,0.981 -0.683,0.981 l -3.627,-0.076 -0.606,-0.905 c 0,0 0,-21.542 0.151,-21.843 0.153,-0.297 0.834,-0.986 0.834,-0.986 0,0 3.172,-0.15 3.551,0.152 0.38,0.304 0.604,0.908 0.604,0.908 0,0 -0.009,1.421 -0.022,3.53 C 0.05,-0.013 0,0 0,0" style="fill:#000000;fill-opacity:1;fill-rule:nonzero;stroke:none" id="path126" inkscape:connector-curvature="0"/></g><g id="g128" transform="translate(235.7803,52.7236)"><path d="m 0,0 c 0.304,-0.404 0.606,-0.506 0.606,-0.506 l 3.423,0.204 0.606,0.704 c 0,0 0.302,1.208 0.1,1.614 C 4.528,2.42 4.228,2.719 4.228,2.719 4.228,2.719 1.003,2.923 0.396,2.62 -0.202,2.318 -0.105,1.915 -0.105,1.915 -0.105,1.915 -0.303,0.402 0,0" style="fill:#000000;fill-opacity:1;fill-rule:nonzero;stroke:none" id="path130" inkscape:connector-curvature="0"/></g><g id="g132" transform="translate(274.2979,43.6016)"><path d="m 0,0 -0.08,2.195 c 0,0 0.383,1.053 0.91,1.053 0.534,0 0.905,-0.977 0.905,-0.977 L 1.819,-0.069 0,0 Z M 4.41,6.5 C 3.202,7.711 2.6,7.711 2.6,7.711 c 0,0 -2.828,0.303 -3.834,-0.303 C -2.245,6.803 -3.05,6.704 -3.656,5.293 -4.259,3.885 -4.562,3.377 -4.562,3.377 L -4.761,-10.73 c 0,0 0.127,-0.611 0.57,-1.561 l 1.748,0.448 -0.607,-1.809 c 0,0 0.88,0 1.289,0.354 0.051,0.047 0.093,0.095 0.122,0.152 0.299,0.5 0,-1.915 0,-1.915 l -0.025,-0.274 c 0.337,-0.168 0.611,-0.233 0.759,-0.233 0.399,0 3.807,-0.099 3.807,-0.099 0,0 1.479,0.175 2.317,1.613 0.005,0.011 0.009,0.036 0.021,0.059 l -0.126,0.849 -1.613,1.508 c 0,0 0.303,1.415 0,1.719 -0.299,0.301 1.111,0 1.111,0 l -0.91,1.106 2.217,-0.106 c 0,0 -1.609,0.604 -2.019,0.71 -0.399,0.099 1.015,0.303 1.015,0.303 l 1.416,0.6 c 0.017,0.4 0.017,0.657 0.017,0.657 L 2.19,-6.695 c 0,0 0.203,-1.013 -0.303,-2.62 -0.134,-0.436 -0.219,-0.723 -0.303,-0.925 l 0.105,-2.603 c 0,0 -0.505,1.508 -0.906,2.212 -0.058,0 -0.113,0.046 -0.165,0.088 -0.139,-0.273 0.061,-1.996 0.061,-1.996 0,0 -0.608,0 -0.502,0.498 0.105,0.502 -0.502,0.304 -0.502,0.304 l -0.606,0.606 1.146,1.885 C 0.151,-8.529 0.177,-7.808 0.177,-7.808 L 0.151,-4.309 5.72,-4.378 c 0,0 0.704,0.197 0.801,0.699 0.105,0.505 0,7.259 0,7.259 0,0 -0.907,1.713 -2.111,2.92" style="fill:#000000;fill-opacity:1;fill-rule:nonzero;stroke:none" id="path134" inkscape:connector-curvature="0"/></g><g id="g136" transform="translate(290.0176,55.4697)"><path d="m 0,0 -4.233,-1.36 -0.076,-2.722 -1.664,-0.075 0.08,-4.312 1.206,0 0.18,-13.074 c 0.821,-0.387 1.761,-0.852 1.761,-0.852 l -0.607,-1.914 0.712,-0.706 -0.606,-0.604 1.209,-0.805 0,-0.815 0,-0.564 c 1.57,-0.158 3.551,0.064 3.551,0.064 l -0.08,3.853 c 0,0 -0.371,0.228 -0.758,0.455 -0.371,0.228 -0.447,1.439 -0.447,1.439 l 0,13.523 1.285,0.082 0,4.078 -1.588,0.076 L 0,0 Z" style="fill:#000000;fill-opacity:1;fill-rule:nonzero;stroke:none" id="path138" inkscape:connector-curvature="0"/></g><g id="g140" transform="translate(305.0557,51.085)"><path d="m 0,0 -3.551,0 -0.227,-0.604 0.455,-16.776 0.076,-1.211 -1.964,-0.151 c 0,0 -0.08,0.033 -0.197,0.132 -0.186,-0.575 -0.35,-1.146 -0.383,-1.519 -0.105,-1.013 -0.105,1.107 -0.105,1.107 l -1.91,1.62 1.008,0.498 -1.31,1.212 1.802,-0.129 c -0.033,0.491 -0.038,0.856 -0.038,0.856 l 0.83,0.681 0.152,13.831 -4.76,-0.151 0.22,-19.118 c 0,0 0,-1.212 1.14,-2.27 1.13,-1.06 1.736,-1.589 1.736,-1.589 l 7.406,0.302 1.133,0.986 L 0.909,-0.226 0,0 Z" style="fill:#000000;fill-opacity:1;fill-rule:nonzero;stroke:none" id="path142" inkscape:connector-curvature="0"/></g><g id="g144" transform="translate(316.9512,32.6201)"><path d="m 0,0 -1.664,0.049 c 0,0 -0.341,0.01 -0.652,0.347 -0.299,0.32 -0.304,0.712 -0.304,0.712 L -2.523,13.1 c 0,0 0.122,0.578 0.274,0.676 0.304,0.198 0.535,0.279 0.535,0.279 L 0,14.009 0,0 Z m 4.364,-1.978 c -0.169,0.07 -0.29,0.117 -0.29,0.117 l -1.811,1.606 c 0,0 -0.202,1.713 -0.202,2.014 0,0.304 1.718,0.606 1.718,0.606 L 2.868,3.273 4.297,4.128 4.074,22.722 c 0,0 -0.047,0.454 -0.35,0.656 -0.299,0.203 -0.451,0.354 -0.451,0.354 0,0 -3.176,-0.102 -3.479,-0.303 -0.299,-0.2 -0.299,-0.908 -0.299,-0.908 l 0,-3.829 -3.628,-0.052 c 0,0 -0.5,0.052 -1.259,-0.703 -0.757,-0.755 -1.263,-2.568 -1.263,-2.568 L -6.706,-1.763 c 0,0 -0.013,-0.599 0.278,-1.322 l 0.834,2.329 c 0,0 0.299,0.907 0.097,-0.703 -0.197,-1.613 -0.197,-2.521 -0.097,-2.221 0.097,0.281 1.226,1.354 1.377,1.819 0.026,0.132 0.034,0.191 0.034,0.098 0,-0.029 -0.021,-0.065 -0.034,-0.098 -0.058,-0.443 -0.197,-1.812 -0.264,-2.119 -0.106,-0.41 0.197,-0.607 0.298,-1.06 l 7.107,-0.049 c 0,0 0.509,-0.073 1.057,0.677 0.455,0.63 0.396,1.036 0.396,1.036 l -0.013,1.398 z" style="fill:#000000;fill-opacity:1;fill-rule:nonzero;stroke:none" id="path146" inkscape:connector-curvature="0"/></g><g id="g148" transform="translate(340.332,32.6201)"><path d="m 0,0 c -0.759,-0.08 -1.513,0.224 -1.513,0.224 l -0.151,5.517 c 0,0 -0.303,0.153 0.371,0.908 0.686,0.758 1.213,0.683 1.213,0.683 L 0.371,0.676 C 0.371,0.676 0.749,0.071 0,0 m 4.073,13.753 c -0.138,-0.286 0.223,1.456 0.442,2.744 -0.021,0.064 -0.139,0.365 -0.358,0.792 -0.606,-0.807 -1.525,-2.324 -1.593,-2.324 -0.096,0 0.207,2.015 0.207,2.015 0,0 -1.415,-0.605 -1.515,-0.202 -0.102,0.404 0.303,0.807 1.107,2.319 0.046,0.09 0.088,0.169 0.117,0.236 -0.092,0.055 -0.193,0.103 -0.282,0.145 -0.387,-0.301 -0.942,-0.886 -0.942,-0.886 0,0 0.142,0.569 0.256,1.118 -0.046,0.01 -0.08,0.017 -0.08,0.017 L -2.271,19.65 c 0,0 -0.757,0.38 -2.119,-1.211 -1.364,-1.585 -1.584,-3.022 -1.584,-3.022 l -0.151,-2.34 c 0,0 3.931,0.07 3.931,-0.151 l 0.446,0.907 c 0,0 0.384,0.828 1.213,0.677 C 0.295,14.358 0,13.532 0,13.532 l -0.535,-1.514 c 0,0 -1.432,-0.379 -2.722,-1.363 C -4.541,9.679 -6.125,8.233 -6.125,8.233 l -0.076,-9.897 c 0,0 0.295,-0.832 0.901,-1.967 0.608,-1.131 1.664,-0.91 1.664,-0.91 l 6.58,-0.069 c 0,0 0.405,0.023 0.931,0.478 0.526,0.452 0.805,1.514 0.805,1.514 L 4.54,15.421 C 4.317,14.568 4.145,13.886 4.073,13.753" style="fill:#000000;fill-opacity:1;fill-rule:nonzero;stroke:none" id="path150" inkscape:connector-curvature="0"/></g><g id="g152" transform="translate(358.7178,47.8857)"><path d="m 0,0 -1.213,0.303 0.73,1.62 c -0.11,0.184 -0.215,0.371 -0.371,0.596 -0.102,0.147 -0.211,0.28 -0.321,0.398 l -1.642,-0.398 0.265,1.272 c -0.105,0.029 -0.169,0.04 -0.169,0.04 l -7.654,-0.102 -0.711,-0.854 0.055,-21.866 0.656,-0.605 4.027,0 0.199,0.756 0,18.037 c 0,0 1.318,0.199 1.664,-0.257 0.349,-0.453 0.151,-0.703 0.151,-0.703 l -0.047,-17.43 0.852,-0.607 3.179,-0.053 0.654,0.508 L 0.06,0.051 0,0 Z" style="fill:#000000;fill-opacity:1;fill-rule:nonzero;stroke:none" id="path154" inkscape:connector-curvature="0"/></g><g id="g156" transform="translate(378.2891,44.4111)"><path d="m 0,0 -0.067,2.194 c 0,0 0.37,1.056 0.901,1.056 0.531,0 0.909,-0.986 0.909,-0.986 L 1.819,-0.076 0,0 Z m 6.529,3.578 c 0,0 -0.901,1.71 -2.115,2.921 -1.209,1.209 -1.815,1.209 -1.815,1.209 0,0 -2.818,0.303 -3.833,-0.303 C -2.232,6.801 -3.041,6.701 -3.648,5.288 -4.255,3.876 -4.55,3.376 -4.55,3.376 l -0.21,-14.105 c 0,0 0.21,-1.003 1.011,-2.422 1.107,-1.97 2.447,-2.422 2.843,-2.422 l -0.223,1.413 1.108,1.207 c 0,0 1.006,-1.409 1.208,-1.91 0,0 0.911,1.309 0.911,1.613 0,0.297 1.709,0.202 1.709,0.202 l 1.109,-0.506 0.408,0.703 -0.91,2.214 1.613,-0.408 c 0.295,2.119 0.325,4.391 0.325,4.391 L 2.194,-6.702 c 0,0 0.206,-1.014 -0.299,-2.618 -0.509,-1.614 -0.404,-1.317 -1.112,-1.317 -0.699,0 -0.602,2.829 -0.602,2.829 l -0.03,3.5 5.574,-0.076 c 0,0 0.703,0.198 0.804,0.704 0.097,0.507 0,7.258 0,7.258" style="fill:#000000;fill-opacity:1;fill-rule:nonzero;stroke:none" id="path158" inkscape:connector-curvature="0"/></g><g id="g160" transform="translate(191.7817,316.147)"><path d="m 0,0 c -8.309,8.001 -19.714,10.746 -30.182,8.383 l -0.616,-2.102 1.815,-0.602 2.62,1.609 -1.614,-3.627 2.627,-2.42 -4.436,-1.409 -1.613,-0.604 0.601,4.433 -1.812,0.604 -0.4,1.007 -0.204,0.807 -2.218,0.652 c -0.956,-0.389 -1.9,-0.808 -2.818,-1.293 l 0,-1.173 0.198,-2.013 0.406,-3.024 2.62,-2.216 0,-0.807 c 0,0 -2.013,0 -1.815,0.603 0.195,0.606 -1.409,1.211 -1.409,1.211 l -0.606,1.409 0,1.01 0,1.007 -2.819,-0.806 -0.604,0.806 0.175,1.637 c -0.7,-0.504 -1.399,-1.022 -2.073,-1.59 l -0.722,-1.66 0.6,-1.007 c 0,0 0.809,-3.024 0.202,-2.62 -0.605,0.402 -1.211,0.603 -1.211,0.603 l -3.963,-0.689 c -1.323,-1.744 -2.436,-3.591 -3.36,-5.506 l 0.419,-0.154 0.304,-2.268 2.118,2.721 0.152,-2.266 -0.303,-1.36 -0.757,-0.453 2.423,-2.269 c 0,0 -3.332,1.06 -2.726,0.605 0.605,-0.453 2.726,-2.57 2.726,-2.57 l -3.786,1.06 -0.454,0.905 0.303,-1.51 -1.811,1.966 -0.524,0.694 c -3.453,-11.485 -0.519,-24.443 8.715,-33.327 13.146,-12.658 34.065,-12.262 46.727,0.884 C 13.552,-33.576 13.151,-12.655 0,0" style="fill:#000000;fill-opacity:1;fill-rule:nonzero;stroke:none" id="path162" inkscape:connector-curvature="0"/></g><g id="g164" transform="translate(99.2124,265.4946)"><path d="m 0,0 c -0.605,-0.151 -1.211,-1.211 -1.211,-1.211 l 0.756,-1.363 c 0,0 -0.15,-0.455 -0.605,-0.907 -0.455,-0.456 -0.455,-0.908 0.152,-1.212 0.604,-0.296 1.059,-0.903 0.604,-1.053 -0.452,-0.151 -0.907,-0.303 -1.211,0.15 -0.303,0.455 -0.756,1.963 -0.756,1.963 l -0.751,0.604 0.903,1.363 -0.449,1.06 0.6,1.666 C -1.968,1.06 0.604,0.152 0,0 m -8.313,-13.454 -4.682,0.598 c 0,0 0.449,0.91 0,0.91 -0.453,0 -2.119,2.27 -2.119,2.27 0,0 2.416,1.212 2.27,1.664 -0.151,0.455 -1.967,1.357 -1.967,1.357 l 3.02,1.514 1.357,-2.871 0.758,-1.211 c 0,0 -1.963,-1.059 -1.356,-1.211 0.598,-0.151 4.231,-1.816 4.231,-1.816 l -1.512,-1.204 z m -17.839,1.356 c -0.455,-0.455 -3.168,-1.66 -3.168,-1.66 0,0 -1.815,-0.755 -1.211,-1.507 0.607,-0.756 2.719,-1.212 2.567,-1.666 -0.151,-0.453 -1.508,-0.756 -1.508,-0.756 l -1.967,-0.304 c 0,0 -1.211,0.759 -1.815,0.607 -0.607,-0.152 -1.363,1.059 -0.91,0.907 0.455,-0.151 3.029,0.304 3.029,0.304 l -1.212,1.508 0.152,1.809 2.875,1.06 -0.455,2.573 0.752,1.211 3.325,-1.664 -0.454,-2.422 z m 83.289,-9.478 c -0.57,0.839 -1.881,1.024 -3.111,1.433 -0.825,0.267 -1.64,0.581 -2.455,0.895 0.372,-0.605 0.733,-1.165 0.733,-1.165 0,0 -0.152,-1.053 0.606,-1.356 0.75,-0.301 0.902,-1.06 0.902,-1.06 l -2.568,0 -1.815,1.963 -1.212,1.664 -0.25,1.508 c -2.108,1.02 -4.164,2.194 -6.142,3.534 l -1.316,-1.105 c 0,0 1.514,-1.515 1.968,-1.515 0.454,0 2.415,-1.059 2.415,-1.512 0,-0.455 -0.145,-1.362 -0.145,-1.362 l 3.016,-4.531 -3.319,3.168 c 0,0 -1.664,2.27 -1.816,2.725 -0.151,0.453 -3.785,2.723 -4.233,3.172 -0.454,0.455 0.751,1.818 0.751,1.818 l -0.564,1.564 c -1.125,0.904 -2.23,1.852 -3.29,2.871 -1.561,1.502 -2.993,3.086 -4.309,4.729 l -0.151,-0.706 -1.506,0.151 -0.304,-1.811 c 0,0 -2.264,0.152 -2.871,0.455 -0.604,0.303 -0.604,-1.356 -0.604,-1.356 l -0.455,-3.18 -1.666,1.362 c 0,0 -0.151,1.363 0.152,1.818 0.303,0.452 1.059,0.75 1.059,0.75 l -0.301,1.962 c 0,0 1.06,1.212 3.178,0.908 2.112,-0.303 -1.211,0.455 -1.211,0.455 0,0 0.152,3.027 0.152,3.482 l 0.746,1.152 c -1.805,3.009 -3.284,6.16 -4.403,9.421 -0.21,0.616 -0.197,1.012 -0.656,1.385 l 0.079,-0.326 -1.967,-1.055 c 0,0 1.363,-1.06 0.756,-1.205 -0.604,-0.152 -3.626,1.508 -4.079,1.205 -0.455,-0.302 0,-1.658 0,-1.658 0,0 -1.363,0.598 -2.121,0 -0.442,-0.363 -1.036,0.64 -1.455,1.525 L 6.333,8.57 9.374,5.739 8.161,2.112 c 0,0 -1.605,-8.464 -1.605,-9.669 0,-1.211 -4.844,6.452 -4.844,6.452 l 3.224,3.217 -3.504,5.043 -8.57,-2.475 0.792,-2.968 2.013,-8.866 -2.818,2.013 -2.019,4.838 -2.416,3.226 -0.186,0.419 -13.169,-3.797 1.211,-3.633 2.573,-2.719 -0.152,-1.657 1.812,-1.97 c 0,0 -0.152,-0.151 -0.91,-1.059 -0.75,-0.908 -1.811,-2.871 -1.811,-2.871 0,0 -1.361,-0.453 -0.756,-1.506 0.606,-1.061 1.211,-2.273 0.756,-2.273 -0.453,0 -3.33,2.726 -3.33,2.726 l 2.422,2.713 c 0,0 1.666,1.817 1.363,2.27 -0.303,0.455 -1.664,1.515 -1.664,1.515 0,0 1.059,1.665 0.604,2.112 -0.454,0.455 -2.573,1.818 -3.177,1.514 -0.607,-0.303 -1.357,0.904 -1.812,0.6 -0.28,-0.181 -0.845,1.63 -1.24,3.05 l -4.809,-1.386 0,-1.96 c 0,0 -1.363,0.296 -1.66,-0.152 -0.303,-0.455 -1.512,-0.152 -1.21,-1.211 0.303,-1.053 -0.302,-1.205 -0.302,-1.205 0,0 -1.659,2.264 -1.508,1.811 0.15,-0.455 -0.151,-1.811 0.301,-2.87 0.455,-1.06 0.455,-1.969 0.455,-1.969 l -2.877,1.666 c 0,0 -0.149,-1.816 0,-2.726 0.152,-0.908 -0.907,-0.301 -0.907,-1.059 0,-0.75 -1.664,-0.449 -1.664,-0.449 l -1.056,4.385 c 0,0 -0.151,-0.455 -0.755,-0.607 -0.607,-0.149 -2.115,0 -2.115,-0.604 0,-0.606 -2.119,-0.151 -2.119,-0.151 0,0 -1.211,-0.908 -1.211,-1.515 0,-0.605 -1.961,-0.301 -2.567,-0.151 -0.605,0.151 -3.324,0.303 -3.324,0.303 l -0.956,1.695 -5.03,-1.455 c 0.112,-0.31 0.281,-0.543 0.542,-0.543 0.907,0 1.059,-1.06 0.152,-1.506 -0.902,-0.456 -3.931,-1.515 -3.023,-2.568 0.91,-1.061 1.211,-1.362 0.152,-1.514 -1.06,-0.152 -5.139,1.059 -4.99,-0.303 0.152,-1.363 0.152,-3.027 0.759,-3.931 0.598,-0.907 -2.871,3.779 -3.175,4.234 l -0.302,0.453 c 0,0 -1.816,-2.119 -1.665,-2.572 0.152,-0.455 -0.606,0.301 -1.059,0.605 -0.455,0.303 -1.059,0.755 -1.514,0.755 -0.449,0 -2.561,0.911 -2.561,0 0,-0.907 -1.211,-1.664 -1.211,-1.664 0,0 -0.908,1.364 -1.363,1.968 -0.165,0.214 -0.465,0.512 -0.779,0.804 l -3.058,-0.886 c 0,0 -1.985,-0.36 -2.399,-1.432 -0.413,-1.07 -0.47,-1.687 -0.146,-2.747 7.966,-25.809 22.248,-50.057 43.071,-70.109 20.687,-19.91 45.261,-33.195 71.162,-40.206 1.241,-0.337 2.515,-0.815 3.36,-0.226 0.85,0.588 1.036,1.951 1.036,1.951 l 26.316,106.202 c 0,0 0.767,2.062 0.198,2.912" style="fill:#000000;fill-opacity:1;fill-rule:nonzero;stroke:none" id="path166" inkscape:connector-curvature="0"/></g><g id="g168" transform="translate(230.3174,284.5381)"><path d="M 0,0 0,3.225 2.014,0 0,0 Z m 98.303,49.415 c -0.355,1.383 -0.628,1.901 -1.688,2.584 -1.94,1.244 -3.075,0.516 -3.075,0.516 l -76.425,-22.06 2.23,-1.837 c 0,0 -1.408,-3.021 0,-3.628 1.409,-0.602 6.853,-5.844 6.853,-5.844 0,0 -8.867,4.837 -9.873,5.039 -1.009,0.203 -6.853,0.605 -6.853,0.605 L 6.065,27.266 -6.352,23.68 c 0,0 -1.409,-0.314 -2.79,-1.108 l 0.473,-4.434 1.407,-1.813 4.642,-4.433 3.219,-4.032 -5.241,3.627 -2.409,2.218 -3.027,1.006 -0.607,3.427 -1.303,0.582 c -0.408,-1.46 -0.432,-2.905 -0.303,-4.571 l 2.817,-3.264 -0.802,-0.202 2.816,-3.429 1.01,-3.429 -4.235,4.236 -1.257,0.663 C -11.873,5.221 -12.18,1.717 -12.85,-1.742 l 4.181,-3.095 -3.425,0.604 -1.217,0.373 c -0.419,-1.746 -0.948,-3.482 -1.565,-5.194 l 0.967,-2.03 6.043,-6.049 4.844,-1.607 -1.818,-0.607 -3.627,0.607 -4.231,2.416 -3.494,3.964 c -0.604,-1.368 -1.281,-2.714 -2.02,-4.04 0.96,-1.806 2.288,-4.356 2.288,-4.356 l -0.403,-2.224 -3.277,4.263 c -0.238,-0.386 -0.476,-0.769 -0.734,-1.148 -0.431,-0.64 -0.891,-1.234 -1.339,-1.811 0.654,-1.245 1.522,-2.713 1.522,-2.713 l -1.01,0.409 1.211,-2.62 -2.013,0.802 1.211,-2.62 -1.555,-1.327 c 1.275,-1.594 2.858,-2.898 2.858,-2.898 l 70.912,-68.262 c 0,0 2.491,-3.267 5.577,-3.092 3.08,0.18 3.372,0.198 4.733,1.717 38.024,42.519 49.994,99.793 36.534,151.695" style="fill:#000000;fill-opacity:1;fill-rule:nonzero;stroke:none" id="path170" inkscape:connector-curvature="0"/></g><g id="g172" transform="translate(104.9575,411.9136)"><path d="m 0,0 -3.626,1.411 0.606,2.216 -2.218,1.413 0,2.418 L -3.02,6.046 -0.809,9.271 -1.211,4.634 -0.202,3.426 1.613,1.813 6.854,-0.807 0,0 Z m -1.112,-16.188 -1.845,0.276 -0.402,1.026 1.398,1.195 -0.699,0.997 1.369,-0.022 1.211,-1.551 -1.032,-1.921 z m -4.947,-24.169 c -0.106,-0.466 0.184,-1.957 0.184,-1.957 l -1.326,2.756 -2.178,0.548 c 0,0 -1.623,1.059 -2.224,1.001 -0.604,-0.057 -1.234,0.182 -1.234,0.182 l 1.643,1.833 c 0,0 0.693,-0.844 1.337,-1.238 0.647,-0.392 3.821,-0.238 3.821,-0.238 0,0 0.977,0.853 0.931,-0.213 -0.047,-1.068 -0.849,-2.209 -0.954,-2.674 m 108.963,80.578 c -0.408,0.722 -1.181,0.903 -2.124,1.117 -37.831,8.623 -78.051,3.828 -113.046,-14.301 l 0.577,-3.659 -2.731,2.518 c -4.483,-2.41 -8.878,-5.027 -13.168,-7.876 l 5.017,-3.107 1.607,-3.627 -5.641,4.031 -1.613,-0.404 1.613,-2.82 -2.824,-0.807 c 0,0 -1.373,1.374 -3.214,3.219 -0.908,-0.655 -1.822,-1.31 -2.726,-1.985 l 1.911,-1.639 14.113,-6.046 -16.127,2.824 -2.51,2.843 C -39.577,9.251 -41.16,7.979 -42.715,6.66 l 5.63,-3.033 -2.415,-2.014 1.606,-4.839 -6.044,3.627 2.818,-4.028 -5.634,2.82 -1.439,2.609 c -0.636,-0.589 -1.276,-1.162 -1.904,-1.762 -1.712,-1.63 -3.009,-2.532 -3.19,-4.826 -0.175,-2.297 3.765,-5.618 3.765,-5.618 l 8.623,-8.296 3.191,3.022 0.663,5.734 1.456,0.14 0.757,-3.115 -0.722,-0.376 1.736,-0.743 1.373,1.5 0.716,-2.664 -2.211,-0.67 4.861,0.015 -2.416,-1.752 -3.419,-0.786 0.595,-1.461 -0.805,-2.659 -1.304,-0.494 4.811,-4.626 0.802,1.437 -0.284,1.337 2.951,0.895 -1.317,-2.101 -0.169,-1.385 2.393,0.382 0.887,-1.281 2.001,1.258 -0.641,1.912 1.119,1.019 0.802,-2.049 0.613,-1.609 -1.508,-1.666 -2.563,-0.246 -0.466,-1.414 0.217,-1.149 2.446,-2.351 0.482,0.769 0.28,1.847 c 0,0 1.571,1.066 1.759,0.625 0.198,-0.436 0.766,-0.075 0.766,-0.075 l 1.306,2.251 c 0,0 0.209,0.931 1.024,0.404 0.809,-0.53 2.399,-1.286 1.525,-1.676 -0.872,-0.388 -2.713,-1.78 -2.713,-1.78 0,0 -0.839,-0.688 -0.635,-1.276 0.209,-0.589 1.096,-1.87 0.496,-1.927 -0.607,-0.059 -1.852,0.276 -1.795,-0.327 0.06,-0.6 0.27,-1.188 0.27,-1.188 l -0.419,0.098 2.353,-2.271 1.634,-0.213 1.997,-0.263 0.029,-1.822 -0.109,-1.114 6.029,-5.813 2.132,0.568 -1.862,3.617 -0.525,0.71 c 0,0 2.585,1.464 2.631,1.013 0.046,-0.45 0.937,-3.402 0.937,-3.402 l 1.293,-0.787 2.231,0.518 0.115,-1.201 1.089,-1.87 -0.558,-0.51 -2.051,-0.804 -0.331,-1.247 c 0,0 1.047,-1.417 0.581,-1.31 -0.208,0.046 -1.164,0.653 -2.152,1.312 l 4.145,-3.991 0.512,0.339 1.769,-1.045 0.28,-1.339 2.62,-0.356 0.756,1.592 1.911,0.64 c 0,0 1.699,-0.29 1.293,-0.785 -0.408,-0.495 -2.517,-2.218 -2.517,-2.218 0,0 -0.093,-0.615 0.507,-0.556 0.601,0.059 3.709,-0.705 3.709,-0.705 0,0 0.466,-1.626 -0.273,-1.848 -0.74,-0.225 -3.145,-0.457 -2.935,-1.044 0.007,-0.011 0.007,-0.019 0.007,-0.027 l 7.568,-7.29 2.224,0.217 1.175,0.414 -0.628,-2.945 0.132,-0.481 8.497,-8.176 c 0,0 2.601,-2.454 4.191,-2.146 1.584,0.307 2.103,0.636 3.33,1.681 10.316,8.812 23.446,12.7 36.259,11.638 2.62,-0.219 5.594,0.537 7.167,1.999 1.414,1.31 2.556,4.471 2.556,4.471 l 25.29,102.047 c 0,0 0.279,1.2 -0.116,1.925" style="fill:#000000;fill-opacity:1;fill-rule:nonzero;stroke:none" id="path174" inkscape:connector-curvature="0"/></g><g id="g176" transform="translate(50.6167,262.9331)"><path d="m 0,0 c -0.501,-0.141 -1.28,0 -1.817,0.43 -0.681,0.525 -1.31,1.514 -1.809,3.278 -0.426,1.497 -0.468,2.708 -0.165,3.546 0.28,0.739 0.769,1.222 1.445,1.415 C -0.88,9.082 0.123,7.859 0.314,7.178 0.446,6.696 0.268,6.218 -0.099,6.112 -0.263,6.066 -0.425,6.142 -0.623,6.38 -1.002,6.852 -1.402,7.363 -1.939,7.214 -2.662,7.01 -2.742,5.752 -2.243,4.004 -1.683,2.026 -0.834,1.321 -0.315,1.466 0.238,1.63 0.337,2.271 0.39,3.085 0.413,3.354 0.518,3.515 0.681,3.562 1.041,3.661 1.483,3.354 1.611,2.892 1.775,2.324 1.66,0.472 0,0" style="fill:#000000;fill-opacity:1;fill-rule:nonzero;stroke:none" id="path178" inkscape:connector-curvature="0"/></g><g id="g180" transform="translate(54.5635,269.646)"><path d="M 0,0 C -0.256,0.552 -0.402,0.937 -0.732,1.637 L -0.834,1.601 c 0.112,-0.792 0.165,-1.188 0.24,-1.77 L -0.378,-1.87 0.716,-1.561 0,0 Z M 2.776,-4.687 C 2.387,-4.798 2.089,-4.583 1.974,-4.326 l -0.653,1.449 -1.525,-0.436 0.198,-1.468 c 0.053,-0.419 -0.162,-0.744 -0.436,-0.815 -0.524,-0.152 -0.828,0.151 -0.95,0.589 -0.029,0.099 -0.036,0.192 -0.046,0.285 l -0.64,6.87 c -0.06,0.693 0.273,0.977 0.827,1.129 0.512,0.152 0.978,0.093 1.291,-0.525 l 3.04,-6.124 c 0.036,-0.08 0.115,-0.225 0.139,-0.325 0.134,-0.467 -0.047,-0.874 -0.443,-0.99" style="fill:#000000;fill-opacity:1;fill-rule:nonzero;stroke:none" id="path182" inkscape:connector-curvature="0"/></g><g id="g184" transform="translate(61.834,267.0195)"><path d="m 0,0 c -0.185,-0.541 -0.568,-1.037 -1.327,-1.251 -0.907,-0.264 -1.501,-0.006 -1.891,0.379 -0.194,0.185 -0.366,0.453 -0.438,0.72 -0.115,0.39 -0.011,0.957 0.35,1.055 0.25,0.07 0.56,-0.216 0.88,-0.448 0.33,-0.234 0.588,-0.327 0.809,-0.268 0.471,0.133 0.43,0.687 0.326,1.03 -0.095,0.337 -0.28,0.542 -0.524,0.703 -0.116,0.082 -0.257,0.146 -0.413,0.222 -0.151,0.059 -0.32,0.122 -0.501,0.198 -0.519,0.211 -0.944,0.431 -1.276,0.705 -0.349,0.285 -0.745,0.74 -0.978,1.565 -0.175,0.618 -0.181,1.211 0.024,1.696 0.209,0.518 0.629,0.901 1.223,1.066 0.802,0.231 1.42,-0.036 1.793,-0.363 0.168,-0.145 0.36,-0.406 0.431,-0.657 C -1.409,5.979 -1.455,5.461 -1.809,5.356 -2.025,5.292 -2.363,5.425 -2.717,5.699 -2.94,5.874 -3.195,6.015 -3.412,5.95 -3.656,5.88 -3.829,5.596 -3.702,5.135 -3.609,4.798 -3.412,4.564 -3.085,4.389 -2.812,4.244 -2.601,4.164 -2.112,3.982 -1.611,3.795 -1.257,3.633 -0.941,3.366 -0.587,3.068 -0.208,2.597 0.006,1.841 0.175,1.241 0.211,0.564 0,0" style="fill:#000000;fill-opacity:1;fill-rule:nonzero;stroke:none" id="path186" inkscape:connector-curvature="0"/></g><g id="g188" transform="translate(64.623,274.5068)"><path d="M 0,0 -1.041,-0.291 0.692,-6.416 C 0.844,-6.94 0.682,-7.29 0.263,-7.405 c -0.426,-0.116 -0.745,0.086 -0.891,0.61 l -1.742,6.126 -1.047,-0.298 c -0.21,-0.063 -0.431,0.221 -0.56,0.653 -0.116,0.43 -0.069,0.727 0.152,0.792 l 3.412,0.966 C -0.192,1.508 0.006,1.28 0.134,0.851 0.25,0.419 0.216,0.063 0,0" style="fill:#000000;fill-opacity:1;fill-rule:nonzero;stroke:none" id="path190" inkscape:connector-curvature="0"/></g><g id="g192" transform="translate(68.6812,274.3384)"><path d="M 0,0 C -0.208,0.762 -0.65,1.194 -1.291,1.013 L -1.746,0.891 C -1.851,0.855 -1.891,0.75 -1.838,0.575 l 0.64,-2.27 0.674,0.187 C 0.046,-1.346 0.211,-0.752 0,0 M 2.353,-5.491 C 2.155,-5.55 1.868,-5.461 1.62,-5.2 l -2.079,2.247 -0.343,-0.099 0.651,-2.3 C -0.01,-5.84 -0.185,-6.213 -0.594,-6.329 -1,-6.445 -1.339,-6.218 -1.478,-5.723 l -1.769,6.228 c -0.257,0.898 -0.106,1.422 0.476,1.591 l 1.095,0.307 C -0.693,2.683 0.746,2.584 1.35,0.442 1.712,-0.809 1.455,-1.822 0.782,-2.29 l 1.617,-1.524 c 0.162,-0.152 0.28,-0.377 0.326,-0.552 0.159,-0.56 0.024,-1.009 -0.372,-1.125" style="fill:#000000;fill-opacity:1;fill-rule:nonzero;stroke:none" id="path194" inkscape:connector-curvature="0"/></g><g id="g196" transform="translate(75.5977,270.2163)"><path d="m 0,0 -2.257,-0.64 c -0.7,-0.198 -1.06,0.122 -1.363,1.192 l -1.525,5.381 c -0.304,1.076 -0.17,1.525 0.522,1.723 l 2.225,0.628 C -2.177,8.349 -1.974,8.099 -1.851,7.679 -1.735,7.248 -1.769,6.911 -1.99,6.841 L -3.667,6.369 C -3.766,6.34 -3.808,6.234 -3.761,6.083 L -3.296,4.442 -1.99,4.815 C -1.781,4.872 -1.571,4.623 -1.455,4.198 -1.333,3.766 -1.373,3.429 -1.584,3.37 L -2.887,2.997 -2.363,1.146 C -2.316,0.994 -2.23,0.925 -2.131,0.96 l 1.718,0.483 C -0.191,1.508 0.006,1.274 0.128,0.855 0.251,0.413 0.211,0.063 0,0" style="fill:#000000;fill-opacity:1;fill-rule:nonzero;stroke:none" id="path198" inkscape:connector-curvature="0"/></g><g id="g200" transform="translate(79.7852,272.1206)"><path d="m 0,0 c -0.194,-0.542 -0.578,-1.042 -1.329,-1.257 -0.908,-0.258 -1.502,0 -1.892,0.383 -0.197,0.185 -0.366,0.455 -0.442,0.709 -0.111,0.396 0,0.961 0.354,1.06 0.251,0.072 0.566,-0.215 0.88,-0.442 0.333,-0.238 0.581,-0.331 0.803,-0.268 0.478,0.135 0.432,0.687 0.339,1.026 -0.099,0.337 -0.287,0.546 -0.53,0.697 C -1.94,2.003 -2.079,2.06 -2.23,2.135 -2.382,2.201 -2.544,2.258 -2.732,2.34 -3.25,2.548 -3.676,2.77 -4.006,3.039 -4.355,3.33 -4.751,3.782 -4.99,4.604 -5.165,5.228 -5.165,5.821 -4.967,6.299 -4.751,6.822 -4.333,7.201 -3.739,7.37 -2.94,7.597 -2.323,7.336 -1.946,7.003 -1.775,6.864 -1.584,6.601 -1.515,6.346 -1.405,5.973 -1.452,5.455 -1.812,5.356 -2.033,5.291 -2.37,5.419 -2.719,5.693 -2.94,5.868 -3.197,6.006 -3.406,5.95 -3.663,5.88 -3.837,5.587 -3.709,5.134 -3.61,4.796 -3.406,4.558 -3.092,4.389 -2.812,4.237 -2.604,4.155 -2.115,3.98 -1.613,3.789 -1.264,3.633 -0.95,3.363 -0.59,3.067 -0.211,2.597 0.004,1.839 0.174,1.238 0.214,0.558 0,0" style="fill:#000000;fill-opacity:1;fill-rule:nonzero;stroke:none" id="path202" inkscape:connector-curvature="0"/></g><g id="g204" transform="translate(82.4282,274.4014)"><path d="m 0,0 -1.532,-0.43 c -0.269,-0.082 -0.501,0.209 -0.646,0.71 -0.146,0.502 -0.088,0.862 0.181,0.938 l 1.525,0.435 C -0.205,1.723 0.034,1.456 0.179,0.95 0.32,0.442 0.261,0.076 0,0" style="fill:#000000;fill-opacity:1;fill-rule:nonzero;stroke:none" id="path206" inkscape:connector-curvature="0"/></g><g id="g208" transform="translate(90.2588,274.3091)"><path d="m 0,0 c -0.396,-0.112 -0.693,0.128 -0.834,0.617 -0.918,3.273 -1.31,4.738 -1.66,6.061 L -2.557,6.659 c 0.116,-1.362 0.175,-2.794 0.379,-6.392 0.034,-0.65 -0.164,-0.931 -0.518,-1.036 -0.373,-0.105 -0.705,0.04 -0.986,0.564 -1.63,3.069 -2.42,4.465 -3.037,5.683 L -6.794,5.461 c 0.399,-1.294 0.848,-2.725 1.775,-5.997 0.139,-0.494 0.046,-0.874 -0.362,-0.989 -0.383,-0.112 -0.674,0.105 -0.815,0.593 L -8.035,5.52 c -0.28,0.984 0.034,1.314 0.733,1.519 0.511,0.145 0.979,0.157 1.303,-0.459 1.492,-2.815 2.033,-3.798 2.667,-5.148 l 0.019,0 C -3.454,2.923 -3.5,3.9 -3.728,7.062 c -0.069,0.891 0.379,1.102 0.92,1.251 0.693,0.198 1.073,0.059 1.35,-0.938 L 0.371,0.954 C 0.512,0.465 0.4,0.116 0,0" style="fill:#000000;fill-opacity:1;fill-rule:nonzero;stroke:none" id="path210" inkscape:connector-curvature="0"/></g><g id="g212" transform="translate(92.7148,280.48)"><path d="M 0,0 C -0.257,0.547 -0.409,0.931 -0.733,1.63 L -0.832,1.607 c 0.109,-0.802 0.156,-1.198 0.238,-1.775 l 0.211,-1.7 1.092,0.307 L 0,0 Z m 2.777,-4.68 c -0.391,-0.118 -0.692,0.093 -0.81,0.36 l -0.651,1.445 -1.521,-0.432 0.192,-1.468 c 0.059,-0.423 -0.162,-0.744 -0.429,-0.826 -0.525,-0.151 -0.826,0.159 -0.955,0.594 -0.023,0.1 -0.036,0.193 -0.048,0.28 l -0.64,6.875 c -0.057,0.693 0.279,0.973 0.828,1.136 0.518,0.145 0.977,0.088 1.293,-0.536 L 3.075,-3.37 C 3.108,-3.458 3.19,-3.597 3.213,-3.697 3.353,-4.168 3.167,-4.577 2.777,-4.68" style="fill:#000000;fill-opacity:1;fill-rule:nonzero;stroke:none" id="path214" inkscape:connector-curvature="0"/></g><g id="g216" transform="translate(100.0273,277.1562)"><path d="M 0,0 -3.016,-0.857 C -3.237,-0.92 -3.435,-0.669 -3.558,-0.24 -3.657,0.099 -3.633,0.367 -3.617,0.727 L -3.29,6.474 -4.855,6.025 c -0.221,-0.058 -0.432,0.209 -0.547,0.641 -0.129,0.426 -0.082,0.746 0.138,0.803 l 2.772,0.791 c 0.221,0.059 0.43,-0.185 0.548,-0.611 0.086,-0.296 0.063,-0.61 0.046,-0.949 l -0.31,-5.763 1.799,0.506 C -0.192,1.508 0.013,1.234 0.134,0.809 0.256,0.377 0.221,0.063 0,0" style="fill:#000000;fill-opacity:1;fill-rule:nonzero;stroke:none" id="path218" inkscape:connector-curvature="0"/></g><g id="g220" transform="translate(102.0171,283.123)"><path d="M 0,0 C -0.254,0.554 -0.4,0.931 -0.733,1.63 L -0.825,1.607 c 0.105,-0.798 0.162,-1.198 0.231,-1.775 l 0.217,-1.7 1.093,0.307 L 0,0 Z M 2.785,-4.68 C 2.389,-4.798 2.092,-4.587 1.97,-4.32 l -0.647,1.445 -1.521,-0.432 0.194,-1.468 c 0.053,-0.423 -0.158,-0.743 -0.438,-0.825 -0.524,-0.152 -0.826,0.162 -0.948,0.594 -0.029,0.099 -0.029,0.192 -0.042,0.28 l -0.647,6.881 c -0.063,0.686 0.274,0.972 0.828,1.129 0.518,0.145 0.98,0.088 1.287,-0.536 L 3.075,-3.37 C 3.115,-3.452 3.191,-3.597 3.227,-3.69 3.355,-4.168 3.174,-4.571 2.785,-4.68" style="fill:#000000;fill-opacity:1;fill-rule:nonzero;stroke:none" id="path222" inkscape:connector-curvature="0"/></g><g id="g224" transform="translate(112.1479,280.5264)"><path d="m 0,0 c -0.396,-0.116 -0.697,0.122 -0.838,0.617 -0.92,3.273 -1.304,4.738 -1.66,6.061 L -2.561,6.661 C -2.439,5.299 -2.386,3.867 -2.178,0.268 -2.142,-0.384 -2.34,-0.664 -2.7,-0.769 -3.073,-0.872 -3.399,-0.727 -3.68,-0.208 -5.31,2.864 -6.102,4.256 -6.719,5.478 L -6.794,5.455 c 0.396,-1.291 0.844,-2.724 1.771,-5.997 0.139,-0.488 0.046,-0.867 -0.356,-0.983 -0.39,-0.116 -0.68,0.106 -0.822,0.594 L -8.035,5.52 c -0.278,0.977 0.03,1.314 0.735,1.512 0.506,0.152 0.971,0.165 1.304,-0.453 1.491,-2.811 2.026,-3.795 2.66,-5.147 l 0.019,0 c -0.141,1.491 -0.187,2.468 -0.409,5.625 -0.069,0.895 0.373,1.106 0.92,1.258 0.687,0.198 1.071,0.057 1.35,-0.938 L 0.373,0.956 C 0.512,0.465 0.402,0.118 0,0" style="fill:#000000;fill-opacity:1;fill-rule:nonzero;stroke:none" id="path226" inkscape:connector-curvature="0"/></g><g id="g228" transform="translate(116.8066,281.9243)"><path d="m 0,0 -2.26,-0.646 c -0.699,-0.192 -1.059,0.128 -1.363,1.198 l -1.524,5.379 c -0.31,1.072 -0.169,1.521 0.524,1.719 l 2.224,0.634 c 0.221,0.065 0.42,-0.192 0.541,-0.611 0.122,-0.432 0.087,-0.769 -0.134,-0.832 L -3.669,6.369 C -3.774,6.333 -3.808,6.229 -3.761,6.079 l 0.465,-1.643 1.304,0.373 c 0.21,0.059 0.415,-0.185 0.537,-0.618 0.122,-0.431 0.08,-0.768 -0.128,-0.827 L -2.887,2.993 -2.365,1.146 C -2.319,0.99 -2.237,0.925 -2.132,0.954 l 1.717,0.489 C -0.194,1.502 0.004,1.274 0.126,0.849 0.251,0.407 0.208,0.057 0,0" style="fill:#000000;fill-opacity:1;fill-rule:nonzero;stroke:none" id="path230" inkscape:connector-curvature="0"/></g><g id="g232" transform="translate(119.2856,290.0332)"><path d="m 0,0 -1.047,-0.297 1.74,-6.124 c 0.145,-0.523 -0.017,-0.862 -0.436,-0.984 -0.419,-0.122 -0.739,0.088 -0.884,0.611 l -1.742,6.124 -1.047,-0.301 c -0.217,-0.059 -0.438,0.221 -0.56,0.657 -0.122,0.425 -0.07,0.729 0.151,0.786 l 3.418,0.973 C -0.185,1.506 0.013,1.278 0.128,0.857 0.257,0.415 0.211,0.065 0,0" style="fill:#000000;fill-opacity:1;fill-rule:nonzero;stroke:none" id="path234" inkscape:connector-curvature="0"/></g><g id="g236" transform="translate(225.5596,321.5518)"><path d="m 0,0 c -0.413,-0.12 -0.558,0.084 -1.176,-0.088 -0.537,-0.157 -0.949,-1.348 -0.313,-3.587 l 1.185,-4.162 C -0.018,-8.829 -0.377,-9.513 -1.182,-9.743 -2.003,-9.977 -2.69,-9.612 -2.98,-8.6 l -2.551,8.969 c -0.28,0.973 0.152,1.704 0.931,1.92 0.782,0.226 1.375,-0.141 1.679,-0.975 0.219,0.849 0.667,1.803 1.373,2.003 C -0.657,3.572 0.06,3.063 0.36,1.984 0.762,0.596 0.339,0.093 0,0" style="fill:#000000;fill-opacity:1;fill-rule:nonzero;stroke:none" id="path238" inkscape:connector-curvature="0"/></g><g id="g240" transform="translate(236.5742,321.4194)"><path d="m 0,0 c -1.815,-0.896 -2.27,-1.877 -1.979,-2.892 0.198,-0.706 0.664,-1.087 1.316,-0.9 0.53,0.148 1.024,0.515 1.478,1.248 C 0.525,-1.795 0.151,-0.584 0,0 M 3.488,-5.139 C 2.755,-5.35 2.202,-5.038 1.746,-4.451 L 1.735,-4.453 C 1.323,-5.375 0.351,-6.19 -0.687,-6.487 -2.55,-7.018 -4.029,-6.074 -4.646,-3.92 -5.31,-1.58 -4.487,0.155 -0.6,2.205 L -0.676,2.451 C -0.931,3.363 -1.401,3.968 -2.154,3.755 -2.597,3.628 -2.979,3.226 -3.515,2.535 -3.817,2.135 -4.354,1.491 -4.691,1.396 c -0.664,-0.19 -1.212,0.526 -1.462,1.396 -0.1,0.333 -0.117,0.775 0.17,1.258 0.465,0.827 1.547,1.714 3.142,2.171 2.224,0.634 3.936,0.092 5.02,-3.696 L 2.538,1.24 c 0.63,-2.195 0.816,-2.7 1.225,-3.323 0.184,-0.306 0.465,-0.763 0.534,-0.99 0.327,-1.158 -0.034,-1.845 -0.809,-2.066" style="fill:#000000;fill-opacity:1;fill-rule:nonzero;stroke:none" id="path242" inkscape:connector-curvature="0"/></g><g id="g244" transform="translate(249.29,327.1055)"><path d="m 0,0 c -0.325,1.137 -1.345,1.607 -1.968,1.428 -0.686,-0.191 -1.303,-1.175 -0.535,-3.867 0.697,-2.443 1.782,-3.096 2.549,-2.877 0.775,0.221 1.061,1.378 0.746,2.471 L 0,0 Z M 3.447,-7.213 C 2.992,-7.342 2.701,-7.268 2.475,-7.108 2.247,-6.952 2.118,-6.763 1.956,-6.495 1.613,-7.243 1.059,-8.05 0.092,-8.325 c -2.334,-0.668 -4.353,1.691 -5.356,5.189 -1.291,4.537 0.246,6.675 1.759,7.106 0.931,0.266 1.712,0.04 2.469,-0.394 l -0.978,3.44 c -0.298,1.036 0.059,1.693 0.898,1.935 0.838,0.236 1.494,-0.177 1.779,-1.194 L 4.303,-4.998 C 4.675,-6.304 4.418,-6.933 3.447,-7.213" style="fill:#000000;fill-opacity:1;fill-rule:nonzero;stroke:none" id="path246" inkscape:connector-curvature="0"/></g><g id="g248" transform="translate(260.5029,322.1074)"><path d="m 0,0 c -0.821,-0.233 -1.502,0.107 -1.792,1.123 l -2.551,8.966 c -0.291,1.015 0.093,1.707 0.914,1.942 0.822,0.234 1.462,-0.19 1.746,-1.182 L 0.867,1.904 C 1.153,0.908 0.805,0.23 0,0 m -3.726,12.909 c -0.861,-0.244 -1.548,0.183 -1.852,1.238 -0.307,1.081 0.069,1.746 0.931,1.991 0.865,0.244 1.59,-0.152 1.901,-1.228 0.301,-1.057 -0.118,-1.755 -0.98,-2.001" style="fill:#000000;fill-opacity:1;fill-rule:nonzero;stroke:none" id="path250" inkscape:connector-curvature="0"/></g><g id="g252" transform="translate(270.9697,331.6064)"><path d="M 0,0 C -0.756,2.651 -1.92,3.437 -2.769,3.199 -3.63,2.951 -4.191,1.603 -3.451,-0.985 c 0.752,-2.652 1.857,-3.459 2.788,-3.194 l 0.013,0.007 c 0.894,0.256 1.35,1.685 0.64,4.168 L 0,0 Z m 0.042,-6.662 c -3.108,-0.884 -5.199,1.294 -6.223,4.897 -1.224,4.267 0.034,6.66 2.712,7.422 2.667,0.76 4.99,-0.613 6.207,-4.878 L 2.742,0.758 c 1.066,-3.728 0.24,-6.581 -2.7,-7.42" style="fill:#000000;fill-opacity:1;fill-rule:nonzero;stroke:none" id="path254" inkscape:connector-curvature="0"/></g><g id="g256" transform="translate(291.9893,331.082)"><path d="M 0,0 C -0.851,-0.242 -1.48,0.16 -1.759,1.154 L -3.19,6.187 C -3.471,7.161 -3.774,7.902 -4.052,8.269 -4.293,8.518 -4.554,8.6 -4.844,8.515 -5.526,8.319 -5.929,7.403 -6.16,6.596 l 1.768,-6.192 c 0.282,-0.996 -0.052,-1.67 -0.884,-1.91 -0.849,-0.238 -1.502,0.158 -1.782,1.15 l -1.443,5.055 c -0.292,1.031 -0.576,1.714 -0.88,2.03 -0.238,0.268 -0.472,0.356 -0.749,0.278 -0.281,-0.08 -0.548,-0.246 -0.788,-0.627 -0.215,-0.348 -0.4,-0.786 -0.541,-1.296 l 1.765,-6.19 c 0.284,-0.994 -0.066,-1.678 -0.914,-1.916 -0.845,-0.243 -1.498,0.153 -1.783,1.147 l -2.549,8.966 c -0.302,1.037 0.045,1.67 0.949,1.93 0.635,0.181 1.287,0.008 1.67,-1.068 l 0.023,0.006 c 0.28,0.596 0.601,1.112 0.967,1.506 0.367,0.396 0.874,0.721 1.422,0.874 0.967,0.276 1.839,0.076 2.693,-1.045 l 0.03,0.009 c 0.29,0.6 0.6,1.156 0.99,1.581 0.409,0.453 0.874,0.763 1.504,0.942 0.79,0.225 1.529,0.103 2.152,-0.459 0.653,-0.6 1.212,-1.605 1.712,-3.383 L 0.907,1.915 C 1.187,0.922 0.843,0.24 0,0" style="fill:#000000;fill-opacity:1;fill-rule:nonzero;stroke:none" id="path258" inkscape:connector-curvature="0"/></g><g id="g260" transform="translate(299.6846,333.207)"><path d="M 0,0 C -0.844,-0.24 -1.584,0.312 -1.92,1.489 -2.275,2.734 -1.909,3.488 -1.059,3.728 -0.21,3.97 0.549,3.45 0.897,2.248 1.235,1.047 0.85,0.244 0,0" style="fill:#000000;fill-opacity:1;fill-rule:nonzero;stroke:none" id="path262" inkscape:connector-curvature="0"/></g><g id="g264" transform="translate(307.5264,349.772)"><path d="m 0,0 c -0.251,-0.069 -0.377,-0.04 -0.646,0.019 -0.18,0.038 -0.397,0.019 -0.536,-0.021 -0.61,-0.17 -0.535,-1.068 -0.337,-1.82 l 0.78,0.225 C -0.308,-1.474 0.075,-1.902 0.287,-2.625 0.495,-3.353 0.39,-3.94 -0.04,-4.062 l -0.792,-0.229 2.258,-7.908 c 0.28,-0.992 -0.07,-1.674 -0.872,-1.904 -0.815,-0.233 -1.502,0.108 -1.788,1.125 l -2.264,7.932 -0.314,-0.093 c -0.432,-0.122 -0.815,0.328 -1.026,1.053 -0.204,0.724 -0.11,1.289 0.32,1.411 l 0.332,0.095 c -0.43,1.624 -0.418,2.523 -0.151,3.382 0.281,0.91 0.943,1.432 1.874,1.696 0.77,0.225 1.41,0.158 1.829,-0.057 C -0.39,2.308 0.042,2.026 0.228,1.362 0.449,0.601 0.17,0.048 0,0" style="fill:#000000;fill-opacity:1;fill-rule:nonzero;stroke:none" id="path266" inkscape:connector-curvature="0"/></g><g id="g268" transform="translate(318,347.8975)"><path d="M 0,0 C -0.419,-0.116 -0.563,0.088 -1.175,-0.086 -1.717,-0.24 -2.131,-1.432 -1.49,-3.671 l 1.187,-4.162 c 0.28,-0.992 -0.08,-1.676 -0.884,-1.906 -0.816,-0.234 -1.502,0.131 -1.792,1.144 l -2.558,8.966 c -0.277,0.975 0.158,1.702 0.937,1.927 0.776,0.221 1.376,-0.145 1.677,-0.98 0.223,0.849 0.666,1.803 1.376,2.003 C -0.663,3.576 0.059,3.063 0.362,1.986 0.759,0.6 0.333,0.097 0,0" style="fill:#000000;fill-opacity:1;fill-rule:nonzero;stroke:none" id="path270" inkscape:connector-curvature="0"/></g></g></g></g></svg>