<?xml version="1.0" encoding="UTF-8"?>
<!-- Generator: Adobe Illustrator 26.5.0, SVG Export Plug-In . SVG Version: 6.00 Build 0)  -->
<svg version="1.1" id="Ebene_1" xmlns="http://www.w3.org/2000/svg" xmlns:xlink="http://www.w3.org/1999/xlink" x="0px" y="0px" viewBox="0 0 1500 1500" style="enable-background:new 0 0 1500 1500;" xml:space="preserve">
<style type="text/css">
	.st0{clip-path:url(#SVGID_00000134250565581224681660000005658743601088538293_);fill:#8ABD24;}
</style>
<g>
	<defs>
		<rect id="SVGID_1_" y="198.69" width="1500" height="1102.63"/>
	</defs>
	<clipPath id="SVGID_00000025442156017661285110000015268150728026035604_">
		<use xlink:href="#SVGID_1_" style="overflow:visible;"/>
	</clipPath>
	<path style="clip-path:url(#SVGID_00000025442156017661285110000015268150728026035604_);fill:#8ABD24;" d="M1179.55,719.91   l-344.67,432.01c-5.16,6.47-12.85,9.94-20.66,9.94c-4.44,0-8.95-1.12-13.06-3.46c-11.3-6.45-16.23-20.16-11.62-32.32l113.73-300.15   l-140.46,2.04c-10.87-0.21-19.49-5.55-24.02-14.61c-4.54-9.08-3.47-19.95,2.75-27.98l338.47-437c7.95-10.29,22.21-13.29,33.64-6.97   c11.4,6.28,16.54,19.91,12.1,32.14l-110.03,303.47h143.18c10.14,0,19.4,5.81,23.81,14.96   C1187.11,701.12,1185.9,711.97,1179.55,719.91 M1222.15,198.68H1022.6H698.54c-41.36,0-81.4,33.53-89.44,74.88l-13.51,69.48   l-332.05-1.57c-31.59,0-58.23,6.44-81.42,19.71c-42.63,26.86-71.83,79.97-71.83,131.65c0,53.74,34.3,83.32,96.56,83.32l343.37,0.31   l-67.76,348.57l-329.23-1.56c-31.59,0-58.23,6.44-81.42,19.71C29.19,970.05,0,1023.15,0,1074.83c0,53.74,34.3,83.32,96.55,83.32   l340.55,0.31l-13.21,67.96c-8.04,41.36,18.97,74.89,60.33,74.89h598.49c144.75,0,284.9-117.34,313.04-262.09l97.88-503.56   C1529.8,349.56,1408.26,198.68,1222.15,198.68"/>
</g>
</svg>