<svg xmlns="http://www.w3.org/2000/svg" viewBox="0 0 1503.9 573">
    <defs>
        <style>
            .cls-1 {
                fill: #2c2c2c
            }

            @media (prefers-color-scheme: dark) {
                .cls-1 {
                    fill: #ffffff
                }
            }
        </style>
    </defs>
    <path class="cls-1" d="m184.2 211.8 19.9-55.8a146.75 146.75 0 0 0-55.1-10.6A149.14 149.14 0 0 0 0 294.2v138.7h59.2V294.2a89.73 89.73 0 0 1 89.7-89.6 87.79 87.79 0 0 1 35.3 7.2zm978.5-55.4v139.7a148.85 148.85 0 0 1-297.7 0V156.4h59.2v139.7a89.7 89.7 0 0 0 179.4 0V156.4zm282.2 0v139.7a89.7 89.7 0 0 1-179.4 0V156.4h-59.2v139.7a149 149 0 0 0 148.8 148.8c32.4 0 64.6-12.2 89.7-33.1v12.4a89.79 89.79 0 0 1-89.7 89.6V573a149 149 0 0 0 148.8-148.8V156.4zm-909.4 4.8a193.64 193.64 0 0 1 55.7-42.1V0H532v164.9z"/>
    <path class="cls-1" d="M681 144.6A149.26 149.26 0 0 0 569 195L417.3 357.5a89.73 89.73 0 1 1-16.7-138.3l-67.9 73.7 43.6 40.9L484.7 218l-18.6-20.7a149.8 149.8 0 1 0-2.3 198.4s148.7-159.2 148.8-159.2a89.73 89.73 0 1 1 1.8 118l-24.6-26.1-41.2 43.9 24.7 26.1A149.77 149.77 0 1 0 681 144.6z"/>
</svg>