<?xml version="1.0" encoding="UTF-8"?>
<!-- Generator: Adobe Illustrator 25.1.0, SVG Export Plug-In . SVG Version: 6.00 Build 0)  -->
<svg version="1.1" id="Layer_1" xmlns="http://www.w3.org/2000/svg" xmlns:xlink="http://www.w3.org/1999/xlink" x="0px" y="0px" width="32px" height="32px" viewBox="0 0 32 32" style="enable-background:new 0 0 32 32;" xml:space="preserve">
<style type="text/css">
	.st0{fill:#FFFFFF;}
	.st1{fill:none;}
	.st2{fill:#46EBC8;}
	.st3{fill:#FB1AA2;}
</style>
<path class="st0" d="M28,32H4c-2.2,0-4-1.8-4-4V4c0-2.2,1.8-4,4-4h24c2.2,0,4,1.8,4,4v24C32,30.2,30.2,32,28,32z"/>
<g>
	<path class="st1" d="M9.7,11.6c-1.2,0-2.3,0.5-3.1,1.3c-1.7,1.7-1.7,4.5,0,6.3c0.8,0.8,2,1.3,3.1,1.3c1.2,0,2.3-0.5,3.1-1.3   l0.9-0.9L11.6,16l2.2-2.2l-0.9-0.9C12,12,10.9,11.6,9.7,11.6z"/>
	<path class="st1" d="M18.2,18.2l0.9,0.9c0.8,0.8,2,1.3,3.1,1.3c1.2,0,2.3-0.5,3.1-1.3c0.8-0.8,1.3-2,1.3-3.1c0-1.2-0.5-2.3-1.3-3.1   c-0.8-0.8-2-1.3-3.1-1.3c-1.2,0-2.3,0.5-3.1,1.3l-0.9,0.9l2.2,2.2L18.2,18.2z"/>
	<path class="st2" d="M18.2,13.8L16,16l-2.2,2.2l-0.9,0.9c-0.8,0.8-2,1.3-3.1,1.3c-1.2,0-2.3-0.5-3.1-1.3c-1.7-1.7-1.7-4.5,0-6.3   c0.8-0.8,2-1.3,3.1-1.3c1.2,0,2.3,0.5,3.1,1.3l0.9,0.9l2.2-2.2l-0.9-0.9c-1.5-1.5-3.4-2.2-5.3-2.2c-1.9,0-3.9,0.7-5.3,2.2   c-2.9,2.9-2.9,7.7,0,10.7c1.5,1.5,3.4,2.2,5.3,2.2c1.9,0,3.9-0.7,5.3-2.2l0.9-0.9l2.2-2.2l2.2-2.2L18.2,13.8z"/>
	<path class="st3" d="M27.6,10.7c-1.5-1.5-3.4-2.2-5.3-2.2c-1.9,0-3.9,0.7-5.3,2.2L16,11.6l-2.2,2.2L11.6,16l2.2,2.2L16,16l0,0l0,0   l2.2-2.2l0.9-0.9c0.8-0.8,2-1.3,3.1-1.3c1.2,0,2.3,0.5,3.1,1.3c0.8,0.8,1.3,2,1.3,3.1c0,1.2-0.5,2.3-1.3,3.1   c-0.8,0.8-2,1.3-3.1,1.3c-1.2,0-2.3-0.5-3.1-1.3l-0.9-0.9L16,20.4l0.9,0.9c1.5,1.5,3.4,2.2,5.3,2.2c1.9,0,3.9-0.7,5.3-2.2   C30.5,18.4,30.5,13.6,27.6,10.7z"/>
</g>
</svg>