<svg height="1000" version="1.1" width="1000" xmlns="http://www.w3.org/2000/svg">
  <rect fill="#63513d" height="1000" rx="200" ry="200" width="1000"/>
  <g transform="matrix(2.952465308532625,0,0,2.952465308532625,99.99999913059736,99.99999913059736)">
    <svg height="270.96" version="1.1" width="270.96" xmlns="http://www.w3.org/2000/svg">
      <svg viewBox="0 0 270.96 270.96" xmlns="http://www.w3.org/2000/svg">
        <defs>
          <style>.d {
            fill: #e1e000;
          }</style>
        </defs>
        <g id="a"/>
        <g id="b">
          <g id="c">
            <path class="d" d="M270.96,135.71C271.09,60.89,210.53,.13,135.71,0,60.89-.13,.13,60.43,0,135.25c-.13,74.82,60.43,135.58,135.25,135.71,6.22,.01,12.43-.41,18.59-1.25,2.99-.52,5.93-1.31,8.78-2.34,13.17-4.88,21.13-14.48,21.13-26.84v-.67c0-11.25,0-24-53.66-35.32-30.7-6.66-50.49-14.68-64.23-26-15.38-12.64-22.86-29.57-22.86-51.77v-.68c0-43,36.77-74.25,87.42-74.25,34.8,0,62.3,9.61,89.16,31.18l7.41,5.95-27.37,36.27-7.87-6.42c-19.63-16-39.33-23.45-62-23.45-23.85,0-40.51,11.67-40.51,28.36v.67c0,14.2,4.05,25.12,56.4,36.34,70.71,15.41,83.35,45.64,84.58,71.64,26.08-25.42,40.78-60.3,40.74-96.72"/>
          </g>
        </g>
      </svg>
    </svg>
  </g>
</svg>