<?xml version="1.0" encoding="UTF-8"?>
<!-- Generator: Adobe Illustrator 21.1.0, SVG Export Plug-In . SVG Version: 6.00 Build 0)  -->
<svg version="1.1" id="Layer_1" xmlns="http://www.w3.org/2000/svg" xmlns:xlink="http://www.w3.org/1999/xlink" x="0px" y="0px" viewBox="0 0 299.6 263.2" style="enable-background:new 0 0 299.6 263.2;" xml:space="preserve">
<style type="text/css">
	.st0{fill:#F37C20;}
</style>
<path class="st0" d="M171.2,139.8c0-49.1-17.4-71.4-26.6-79.8c-1.8-1.6-4.6-0.2-4.5,2.3c1.8,27.7-33,34.5-33,78h0c0,0.1,0,0.2,0,0.3  c0,26.5,20,48,44.7,48c24.7,0,44.7-21.5,44.7-48c0-0.1,0-0.2,0-0.3h0c0-12.3-4.6-24-9.3-32.8c-0.9-1.7-3.6-1.1-3.3,0.5  C192.3,145.4,171.2,168.6,171.2,139.8z"/>
<g>
	<path class="st0" d="M118.5,243.2c-1.1,0-2.2-0.4-3-1.3L1.2,127.8c-1.7-1.7-1.7-4.4,0-6L121.8,1.3c0.8-0.8,1.9-1.3,3-1.3h34.6   c2.1,0,3.4,1.4,3.9,2.6c0.5,1.3,0.6,3.2-0.9,4.7L49,120.7c-2.3,2.3-2.3,6,0,8.3l89.6,89.6c1.7,1.7,1.7,4.4,0,6l-17.1,17.3   C120.7,242.7,119.6,243.2,118.5,243.2z"/>
</g>
<g>
	<path class="st0" d="M140.2,263.2c-2.1,0-3.4-1.4-3.9-2.6c-0.5-1.3-0.6-3.2,0.9-4.7l113.4-113.4c1.1-1.1,1.7-2.6,1.7-4.1   s-0.6-3-1.7-4.1L161,44.6c-1.7-1.7-1.7-4.4,0-6l17.4-17.4c0.8-0.8,1.9-1.3,3-1.3s2.2,0.4,3,1.3l114,114.1c0.8,0.8,1.3,1.9,1.3,3   s-0.4,2.2-1.3,3L177.8,261.9c-0.8,0.8-1.9,1.2-3,1.2H140.2z"/>
</g>
</svg>
