<?xml version="1.0" encoding="UTF-8" standalone="no"?><!DOCTYPE svg PUBLIC "-//W3C//DTD SVG 1.1//EN" "http://www.w3.org/Graphics/SVG/1.1/DTD/svg11.dtd"><svg width="100%" height="100%" viewBox="0 0 134 134" version="1.1" xmlns="http://www.w3.org/2000/svg" xmlns:xlink="http://www.w3.org/1999/xlink" xml:space="preserve" xmlns:serif="http://www.serif.com/" style="fill-rule:evenodd;clip-rule:evenodd;stroke-linejoin:round;stroke-miterlimit:2;"><rect id="VWBank_Groß" x="0" y="0" width="133.333" height="133.333" style="fill:#004666;"/><g><g><path d="M47.88,60.44l-7.476,0l-10.041,-29.858l6.37,0l5.75,17.871c0.575,1.99 1.283,4.556 1.769,6.635l0.089,-0c0.487,-2.035 1.15,-4.557 1.814,-6.724l5.794,-17.782l5.927,0l-9.996,29.858Z" style="fill:#fff;fill-rule:nonzero;"/><path d="M92.214,60.44l-7.121,0l-4.556,-16.322c-0.399,-1.593 -0.752,-3.627 -0.974,-5.441l-0.088,0c-0.266,1.902 -0.531,3.848 -0.929,5.441l-4.468,16.322l-7.166,0l-7.475,-29.858l6.148,0l3.981,16.322c0.575,2.787 0.973,5.176 1.283,7.432l0.088,-0c0.31,-2.256 0.752,-4.733 1.416,-7.343l4.512,-16.411l5.75,0l4.645,16.588c0.619,2.211 1.194,4.777 1.548,7.166l0.089,-0c0.31,-2.301 0.663,-4.733 1.15,-7.078l3.937,-16.676l5.662,0l-7.432,29.858Z" style="fill:#fff;fill-rule:nonzero;"/></g><path d="M14.472,72.85c0,-0 4.689,-0.222 9.157,-0.222c7.165,0 10.748,2.698 10.748,7.608c0,2.831 -1.548,5.397 -4.335,6.503l0,0.044c3.274,0.841 5.352,3.318 5.352,6.724c0,4.511 -3.538,9.244 -12.12,9.244c-2.034,0 -5.042,-0.088 -8.802,-0.088l-0,-29.814l0,0.001Zm5.751,12.341c0.707,0.044 1.459,0.044 2.565,0.044c3.76,0 5.529,-1.592 5.529,-4.158c0,-2.256 -1.327,-3.892 -5.087,-3.892c-1.017,-0 -2.079,0.044 -3.008,0.088l0,7.918l0.001,-0Zm-0,12.827c0.707,0.089 2.211,0.133 3.229,0.133c3.937,0 5.75,-1.813 5.75,-4.379c0,-2.654 -1.813,-4.246 -6.281,-4.246c-0.531,-0 -2.079,-0 -2.698,0.044l-0,8.449l-0,-0.001Z" style="fill:#fff;fill-rule:nonzero;"/><path d="M57.069,102.663l-2.035,-6.37l-11.235,0l-2.079,6.37l-5.795,-0l9.997,-29.858l7.475,0l10.041,29.858l-6.37,-0l0.001,-0Zm-6.414,-20.259c-0.487,-1.548 -0.885,-3.052 -1.195,-4.467l-0.088,-0c-0.31,1.415 -0.708,2.963 -1.151,4.423l-3.096,9.377l8.626,0l-3.096,-9.333l-0,0Z" style="fill:#fff;fill-rule:nonzero;"/><path d="M83.988,102.663l-9.377,-15.128c-1.681,-2.698 -2.61,-4.468 -3.494,-6.458l-0.089,0c0.221,3.008 0.443,8.626 0.443,13.447l-0,8.139l-5.574,-0l0,-29.858l6.547,0l8.802,14.155c1.549,2.433 2.743,4.689 3.583,6.547l0.089,-0c-0.221,-3.274 -0.443,-8.537 -0.443,-13.447l0,-7.255l5.574,0l-0,29.858l-6.061,-0Z" style="fill:#fff;fill-rule:nonzero;"/><path d="M111.696,102.663l-10.439,-14.332l-0,14.332l-5.751,-0l0,-29.858l5.751,0l-0,13.536l10.085,-13.536l6.812,0l-11.014,14.244l11.721,15.614l-7.165,-0Z" style="fill:#fff;fill-rule:nonzero;"/></g></svg>