<svg xmlns="http://www.w3.org/2000/svg" version="1.1" xmlns:xlink="http://www.w3.org/1999/xlink" xmlns:svgjs="http://svgjs.dev/svgjs" width="1000" height="1000"><svg viewBox="0 0 1000 1000" version="1.1" xmlns="http://www.w3.org/2000/svg">
    <path d="M1000,74.2L1000,925.8C1000,966.752 966.752,1000 925.8,1000L74.2,1000C33.248,1000 0,966.752 0,925.8L0,74.2C0,33.248 33.248,0 74.2,0L925.8,0C966.752,0 1000,33.248 1000,74.2Z" fill="#002446"/>
    <path d="M499.055,528.565L588.042,682.8L499.055,837.035L410.065,682.8L499.055,528.565ZM625.913,307.681L499.055,86.797L372.197,307.681L499.055,528.565L625.913,307.681ZM707.329,475.248C703.539,480.958 588.042,682.8 588.042,682.8L718.687,911.3L879.626,631.387L951.574,505.713C944,463.823 915.6,427.642 877.732,410.503C862.584,402.887 843.652,399.081 826.61,399.081C800.103,399.081 773.597,408.6 750.874,423.832C731.942,439.068 718.687,456.203 707.329,475.248ZM249.126,425.739C226.406,410.503 199.897,400.984 173.39,400.984C154.455,400.984 137.416,404.794 122.268,412.41C84.4,429.545 56,463.823 48.426,507.616L120.374,633.29L281.313,913.203L411.958,684.703C411.958,684.703 294.568,482.865 292.674,477.148C279.419,456.203 266.165,439.068 249.126,425.739Z" fill="#ffffff"/>
</svg><style>@media (prefers-color-scheme: light) { :root { filter: none; } }
@media (prefers-color-scheme: dark) { :root { filter: none; } }
</style></svg>