<?xml version="1.0" encoding="UTF-8"?>
<!-- Generator: Adobe Illustrator 24.0.0, SVG Export Plug-In . SVG Version: 6.00 Build 0)  -->
<svg version="1.1" id="Ebene_1" xmlns="http://www.w3.org/2000/svg" xmlns:xlink="http://www.w3.org/1999/xlink" x="0px" y="0px" viewBox="0 0 372.9 358.7" style="enable-background:new 0 0 372.9 358.7;" xml:space="preserve">
<style type="text/css">
	.st0{fill:#1F3528;}
</style>
<g>
	<path class="st0" d="M361.3,125.6L196.3,6c-6.7-4.9-15.9-4.9-22.6,0.1L11,125.6c-4.9,3.6-7.8,9.3-7.8,15.4v192.6   c0,10.6,8.6,19.2,19.2,19.2h133.5v-0.5c-18.8-2.1-9.7-17.7-3.6-32.5c8.4-16.9,5.9-18.4-3.2-26.9c-24.9-20.7-28.1-38.9-19.7-74.5   c14.8-52.9,14.2-82.3,14.2-87.5c1.6-2.7,42.6-1.7,42.6-1.7s41-1.1,42.6,1.7c0,5.2-0.5,34.5,14.3,87.5c8.3,35.5,5.1,53.8-19.8,74.5   c-9.1,8.6-11.6,10-3.2,26.9c6.1,14.8,15.2,30.4-3.6,32.5v0.5h133.5c10.6,0,19.2-8.6,19.2-19.2V141.1   C369.3,135,366.3,129.2,361.3,125.6z"/>
</g>
<g>
	<path class="st0" d="M236,261.1c-1.7,6-4.6,11.2-9.2,16.4c-39.5,36.1-76.9,3-79.9,0.2c-0.2-0.2-0.2-0.2-0.2-0.2   c-2.6-2.9-4.7-5.9-6.3-9c-3.8-7.2-5.1-15.3-4.2-25.7c0.5-6,1.7-12.7,3.5-20.5c0.9-3.2,1.8-6.4,2.6-9.6   c4.5,13.2,15.3,28.7,41.1,27.7c15.5-0.9,37.5-1.8,48.2,6C235.9,249.7,237.5,255.7,236,261.1z"/>
</g>
</svg>