<svg xmlns="http://www.w3.org/2000/svg" viewBox="0 0 193.48 193.48" xml:space="preserve"><path fill="#d92231" d="M0 0h193.48v193.48H0z"/><path d="M139.03 94.38c0-6.57-2.53-12.38-9.25-12.38-6.74 0-9.34 5.81-9.34 12.38s2.6 12.39 9.34 12.39c6.73 0 9.25-5.82 9.25-12.39m9.92 0c0 11.23-7.94 19.53-19.19 19.53-11.45 0-19.24-7.96-19.24-19.53 0-10.94 7.68-19.54 19.24-19.54 11.25.01 19.19 8.32 19.19 19.54m-76.57-3.62h-17.4c.17-1.25.54-2.46 1.1-3.6 1.56-3.13 4.51-5.12 8.19-5.12 5.04 0 8.11 3.42 8.11 8.49v.23zm9.03.15c-.46-5.07-2.32-9.16-5.45-11.93-3-2.67-7.02-4.12-12.01-4.12-3.68 0-8.32 1.27-11.74 4.08-4.07 3.36-7.24 8.6-7.24 15.67 0 6.09 1.99 11 5.54 14.31 3.48 3.26 8.41 5.02 14.52 5.02 4.92 0 10.87-1.85 13.4-3.43.9-.54 1.18-.79.96-1.69l-1.6-4.51c-.18-.72-1.01-.92-1.67-.58-1.01.52-2.04.98-3.09 1.39-2.2.82-4.49 1.37-6.66 1.37-4.56 0-7.18-1.24-9.16-3.55-1.26-1.46-2-3.29-2.23-5.42h25.21c.91 0 1.32-.63 1.32-1.71V94c.01-.87-.02-2.25-.1-3.09m9.06-10.66c2.85-3.67 7.3-5.35 14.59-5.35 1.72 0 3.44.17 5.13.51.86.2.99.88.83 1.76l-.86 4.24c-.19.79-.42 1.02-1.04 1.02-.17 0-.34-.01-.51-.04-.6-.08-2.32-.27-3.03-.27-3.62 0-5.34.91-6.63 2.26-1.5 1.61-1.55 3.99-1.55 8.24v18.87c0 1.24-.54 1.94-1.87 1.94h-5.76c-1.23 0-1.76-.61-1.86-1.94V92.97c-.01-6.74.38-9.9 2.56-12.72m78.13 7.85c1.29-1.35 4.29-5.06 7.62-11.34.57-1.08 1.08-1.35 1.82-1.35h6.18c.56 0 1.23.27.87 1.35-2.46 7.29-8.07 13.69-11.17 17 3.38 3.2 9.39 10.79 12.21 18.24.25.67.13 1.44-1.28 1.44h-7.4c-.76 0-1.37-.07-1.88-1.34-1.83-4.57-4.7-9.37-7.97-12.52-3.59 3.8-6.3 8.47-8.13 12.52-.46.99-.9 1.34-1.88 1.34h-6.79c-.46 0-.92-.53-.62-1.34 2.02-5.54 6.04-12.43 11.8-17.61-4.53-5.46-8.88-12.12-10.59-17.72-.26-.84.19-1.35.82-1.35h7.96c.87 0 1.32.35 1.75 1.35 1.96 4.56 4.64 8.91 6.68 11.33m-142.67 0c1.29-1.35 4.29-5.06 7.63-11.34.56-1.08 1.06-1.35 1.81-1.35h6.19c.55 0 1.22.27.86 1.35-2.47 7.29-8.08 13.69-11.18 17 3.39 3.21 9.39 10.8 12.23 18.24.24.67.11 1.44-1.31 1.44h-7.4c-.76 0-1.34-.07-1.87-1.34-1.83-4.57-4.71-9.37-7.97-12.52-3.58 3.79-6.3 8.47-8.14 12.52-.44.99-.88 1.34-1.87 1.34H8.14c-.46 0-.92-.53-.63-1.34 2.02-5.54 6.04-12.43 11.79-17.61-4.5-5.46-8.86-12.12-10.57-17.72-.26-.84.2-1.35.82-1.35h7.96c.87 0 1.31.35 1.75 1.35 1.95 4.56 4.63 8.91 6.67 11.33" fill="#fff"/></svg>