<svg viewBox="0 0 37 37" xmlns="http://www.w3.org/2000/svg">
    <style>
        @media (prefers-color-scheme:dark) {
            path {
                fill: #fff;
            }
        }
    </style>

    <path d="M25.79 25.32c-.93 1.76-6.25 6.73-13.19 6.73H7.88L26.52 1.3H8.96c-2.1 0-4.11-.17-4.11-.17s-3.26 7.46-3.56 8.1c-.21.46.26.68.55.19.89-1.5 4.79-6.38 12.6-6.38h3.98L0 33.75h22.43s3.6-7.88 3.77-8.28c.17-.4-.22-.51-.41-.15zM4.78 32.05H3.8c-.12 0-.15-.1-.08-.22l17.3-28.58a.45.45 0 01.34-.21h.98c.12 0 .15.1.08.21L5.12 31.83c-.07.12-.22.22-.34.22z" fill="#1d1d1b"/>
</svg>