<?xml version="1.0" encoding="utf-8"?>
<!-- Generator: Adobe Illustrator 25.2.3, SVG Export Plug-In . SVG Version: 6.00 Build 0)  -->
<svg version="1.2" baseProfile="tiny-ps" xmlns:xlink="http://www.w3.org/1999/xlink" viewBox="0 0 500 500" xmlns="http://www.w3.org/2000/svg">
  <title>Zone Media OÜ</title>
<g>
	<path fill="#EB1D25" d="M85.4,289.6L61,243.8l11.5-6.1l24.4,45.8L85.4,289.6z M64.1,256.6l-29.7,5.8l2.5,12.8l29.7-5.8L64.1,256.6z    M107.7,227.8l-64.1-12.5l-2.5,12.8l64.1,12.5L107.7,227.8z M90,205.5c0-6.2-5-11.3-11.3-11.3c-6.2,0-11.3,5-11.3,11.3   c0,6.2,5,11.3,11.3,11.3C85,216.7,90,211.7,90,205.5" />
	<path fill="#EB1D25" d="M208.3,251.4l-55.9,19.7h65v13.3h-59.7c-7.8,0-14.1-6.4-14.1-14.3c0-6.7,4.7-12.2,10.9-13.8l55.9-19.7   h-63.6v-13.3H205c7.8,0,14.1,6.4,14.1,14.3C219.2,244.3,214.4,249.8,208.3,251.4 M288.2,271.1h-46.6v-34.5h46.6V271.1z    M301.4,241.3c0-9.9-8-17.9-17.9-17.9h-37.3c-9.9,0-17.9,8-17.9,17.9v25.2c0,9.9,8,17.9,17.9,17.9h37.3c9.9,0,17.9-8,17.9-17.9   V241.3z M381.8,241.3c0-9.9-8-17.9-17.9-17.9h-52v61.1h13.3v-47.8h43.4v47.8h13.3L381.8,241.3L381.8,241.3z M458.3,271.1h-53.5   v-10.6h53.5v-13.3h-53.5v-10.6h53.5v-13.3h-48.8c-9.9,0-17.9,8-17.9,17.9v25.2c0,9.9,8,17.9,17.9,17.9h48.8V271.1L458.3,271.1z" />
</g>
</svg>
